<svg xmlns="http://www.w3.org/2000/svg" xmlns:svg="http://www.w3.org/2000/svg" id="svg953" width="445.328" height="429.524" version="1.1" viewBox="0 0 117.826 113.645"><metadata id="metadata950"/><g id="layer1" transform="translate(194.22867,-5.0763507)"><path style="opacity:1;fill:#ffbc20;fill-opacity:1;fill-rule:nonzero;stroke:#000;stroke-width:15.4654541;stroke-linecap:butt;stroke-linejoin:round;stroke-miterlimit:4;stroke-dasharray:none;stroke-dashoffset:0;stroke-opacity:1;paint-order:stroke markers fill" id="path1509" d="m -135.14589,12.811452 a 6.8236765,6.8236765 0 0 0 -5.61797,2.698495 l -16.05914,21.272804 -25.17949,8.70656 a 6.8236765,6.8236765 0 0 0 -3.35664,10.337901 l 15.24121,21.855734 0.49853,26.636854 a 6.8236765,6.8236765 0 0 0 8.81476,6.3936 l 25.48034,-7.76633 25.49444,7.76633 a 6.8236765,6.8236765 0 0 0 8.81476,-6.3936 l 0.47943,-26.636854 15.264765,-21.855734 a 6.8236765,6.8236765 0 0 0 -3.361371,-10.337901 l -25.174754,-8.70656 -16.06388,-21.272804 a 6.8236765,6.8236765 0 0 0 -5.27472,-2.698495 z"/><ellipse style="opacity:1;fill:#fff038;fill-opacity:1;fill-rule:nonzero;stroke:none;stroke-width:15.65725899;stroke-linecap:butt;stroke-linejoin:round;stroke-miterlimit:4;stroke-dasharray:none;stroke-dashoffset:0;stroke-opacity:1;paint-order:stroke markers fill" id="path5219" cx="-150.671" cy="-32.953" rx="14.806" ry="9.743" transform="matrix(0.87081322,-0.49161401,0.6706431,0.74178018,0,0)"/></g></svg>