<svg xmlns="http://www.w3.org/2000/svg" xmlns:xlink="http://www.w3.org/1999/xlink" width="146" height="35" version="1.1" viewBox="0 0 146 35"><title>1C0EFD3B-CDCD-430C-8998-84FD26A4AB13</title><g id="Design" fill="none" fill-rule="evenodd" stroke="none" stroke-width="1"><g id="CoinApi---Docs" fill="#6881A9" fill-rule="nonzero" transform="translate(-149.000000, -17.000000)"><g id="Group" transform="translate(110.000000, 0.000000)"><g id="logo_coinapi" transform="translate(40.000000, 18.000000)"><g id="a1482848865462" stroke="#6881A9"><path id="Shape" d="M31.3451163,23.208593 L25.0753488,19.934686 L31.0102326,16.7705233 C31.1992558,16.6692209 31.1992558,16.5065233 31.0091163,16.407907 L24.315907,12.9133605 L31.3529302,9.16133721 C31.6948837,8.97830233 31.8976744,8.65367442 31.895814,8.29259302 C31.8935814,7.93227907 31.6870698,7.61072093 31.3451163,7.43267442 L17.6208372,0.267837209 C17.3666977,0.135453488 17.1013953,0.10744186 16.9231628,0.10744186 C16.7594419,0.10744186 16.5146047,0.131232558 16.2775814,0.245581395 L0.676465116,7.77763953 C0.321488372,7.94916279 0.107534884,8.26995349 0.104146355,8.63525581 C0.100837209,9.00094186 0.309581395,9.32595349 0.661953488,9.50476744 L8.15553488,13.3047558 L0.992372093,16.7628488 C0.801116279,16.8553256 0.800372093,17.0095814 0.990511628,17.1058953 L7.35106977,20.3314535 L0.676465116,23.5531744 C0.321116279,23.7246977 0.107162791,24.0454884 0.104146355,24.4107907 C0.101209302,24.7764767 0.309953488,25.1014884 0.661953488,25.2795349 L15.3797209,32.7436744 C15.6219535,32.8668488 15.8734884,32.8925581 16.0416744,32.8925581 C16.2187907,32.8925581 16.4829767,32.8645465 16.7382326,32.7294767 L31.3536744,24.9368721 C31.6956279,24.7538372 31.8984186,24.4292093 31.8965708,24.0681279 C31.8935814,23.7081977 31.6874419,23.3862558 31.3451163,23.208593 Z M16.8837209,1.64577907 C16.8874419,1.64501163 16.9019535,1.64232558 16.9231628,1.64232558 C16.9458605,1.64232558 16.9626047,1.64539535 16.9536744,1.64002326 L29.719814,8.30448837 L16.08,15.5790698 C16.0762791,15.5798372 16.0621395,15.582907 16.0416744,15.582907 L16.0364651,15.5909651 L2.36390698,8.65751163 L16.8837209,1.64577907 Z M16.0818605,31.3538372 C16.0777674,31.3549884 16.0628837,31.3576744 16.0413023,31.3576744 L16.0368372,31.3665 L2.36465116,24.4326628 L8.82976744,21.3114767 L15.3789767,24.6325814 C15.6215814,24.7557558 15.8731163,24.7818488 16.0413023,24.7818488 C16.2187907,24.7818488 16.4833488,24.7534535 16.7371163,24.6183837 L23.6706977,20.922 L29.7190698,24.0800233 L16.0818605,31.3538372 Z"/></g><g id="t1482848865462" transform="translate(47.000000, 8.000000)"><path id="Shape" d="M7.55622189,0 C8.71764118,0 9.74612694,0.210114979 10.6416792,0.630344938 C11.5372314,1.0505749 12.2578711,1.63106204 12.8035982,2.37180638 L11.2713643,3.5042905 C10.8235882,2.89175192 10.2708646,2.43234798 9.6131934,2.12607869 C8.95552224,1.8198094 8.26986507,1.66667475 7.55622189,1.66667475 C5.97501249,1.66667475 4.64217891,2.27921333 3.55772114,3.5042905 C2.47326337,4.72936767 1.91704148,6.21085634 1.88905547,7.9487565 C1.88905547,9.74363701 2.42778611,11.2358095 3.50524738,12.4252739 C4.58270865,13.6147384 5.93303348,14.2165932 7.55622189,14.2308383 C9.33333333,14.2308383 10.7676162,13.5257066 11.8590705,12.1154434 L13.1814093,13.2479275 C11.88006,15.0143178 10.0049975,15.897513 7.55622189,15.897513 C5.38730635,15.897513 3.59270365,15.135401 2.17241379,13.6111771 C0.752123938,12.0869532 0.027986007,10.1994797 0,7.9487565 C0,5.69803334 0.717141429,3.81768234 2.15142429,2.3077035 C3.58570715,0.797724667 5.38730635,0.0284901667 7.55622189,0 L7.55622189,0 Z M20.023988,5.25643575 C21.5492254,5.25643575 22.7946027,5.73720732 23.7601199,6.69875044 C24.7256372,7.66029357 25.2293853,8.93166725 25.2713643,10.5128715 C25.2713643,12.0370954 24.7816092,13.2871015 23.802099,14.2628897 C22.8225887,15.2386779 21.5632184,15.7408171 20.023988,15.7693073 C18.4847576,15.7693073 17.2323838,15.2742906 16.2668666,14.2842573 C15.3013493,13.294224 14.8045977,12.0370954 14.7766117,10.5128715 C14.7766117,8.9744025 15.2663668,7.7172739 16.2458771,6.74148569 C17.2253873,5.76569748 18.4847576,5.27068084 20.023988,5.25643575 L20.023988,5.25643575 Z M16.5397301,10.5128715 C16.5397301,11.6097429 16.8650675,12.4964994 17.5157421,13.1731408 C18.1664168,13.8497823 19.0024988,14.2023481 20.023988,14.2308383 C21.0454773,14.2308383 21.878061,13.885395 22.5217391,13.1945084 C23.1654173,12.5036219 23.4942529,11.6097429 23.5082459,10.5128715 C23.5082459,9.43024517 23.1829085,8.53992746 22.5322339,7.84191838 C21.8815592,7.1439093 21.0384808,6.79490475 20.0029985,6.79490475 C18.9955022,6.79490475 18.169915,7.14034802 17.5262369,7.83123457 C16.8825587,8.52212111 16.5537231,9.41600009 16.5397301,10.5128715 L16.5397301,10.5128715 Z M28.7766117,0.38461725 C29.0984508,0.38461725 29.3783108,0.502139188 29.6161919,0.737183063 C29.854073,0.972226938 29.9730135,1.26068988 29.9730135,1.60257188 C29.9730135,1.95869896 29.8610695,2.25072317 29.6371814,2.4786445 C29.4132934,2.70656583 29.1264368,2.8205265 28.7766117,2.8205265 C28.4267866,2.8205265 28.13993,2.70656583 27.916042,2.4786445 C27.6921539,2.25072317 27.5802099,1.95869896 27.5802099,1.60257188 C27.5802099,1.26068988 27.6991504,0.972226938 27.9370315,0.737183063 C28.1749125,0.502139188 28.4547726,0.38461725 28.7766117,0.38461725 L28.7766117,0.38461725 Z M29.5952024,5.51284725 L29.5952024,15.5128958 L27.958021,15.5128958 L27.958021,5.51284725 L29.5952024,5.51284725 Z M37.6761619,5.25643575 C38.9075462,5.25643575 39.838081,5.61968538 40.4677661,6.34618463 C41.0974513,7.07268388 41.4122939,8.04134955 41.4122939,9.25218163 L41.4122939,15.5128958 L39.7751124,15.5128958 L39.7751124,9.44449025 C39.7751124,8.67525575 39.6001999,8.04491082 39.2503748,7.55345544 C38.9005497,7.06200007 38.3268366,6.80914984 37.5292354,6.79490475 C36.5217391,6.79490475 35.7626187,7.13322548 35.2518741,7.80986694 C34.7411294,8.4865084 34.4857571,9.42312263 34.4857571,10.6197096 L34.4857571,15.5128958 L32.8485757,15.5128958 L32.8485757,7.73508025 C32.8485757,7.66385484 32.8205897,6.9231105 32.7646177,5.51284725 L34.3178411,5.51284725 C34.3458271,6.51000309 34.3598201,7.0584388 34.3598201,7.15815438 L34.4017991,7.15815438 C34.6676662,6.58835105 35.097951,6.12894711 35.6926537,5.77994257 C36.2873563,5.43093802 36.9485257,5.25643575 37.6761619,5.25643575 L37.6761619,5.25643575 Z M51.2983508,0.38461725 L57.6161919,15.5128958 L55.5592204,15.5128958 L54.047976,11.794929 L46.6176912,11.794929 L45.0854573,15.5128958 L43.0914543,15.5128958 L49.6401799,0.38461725 L51.2983508,0.38461725 L51.2983508,0.38461725 Z M50.3958021,2.69232075 L47.3103448,10.1282543 L53.3763118,10.1282543 L50.4377811,2.69232075 L50.3958021,2.69232075 L50.3958021,2.69232075 Z M64.101949,0.38461725 C65.6971514,0.38461725 66.9390305,0.733621792 67.8275862,1.43163088 C68.7161419,2.12963996 69.1744128,3.1624085 69.2023988,4.5299365 C69.2023988,5.85472925 68.7686157,6.87681398 67.9010495,7.59619069 C67.0334833,8.3155674 65.872064,8.68950084 64.4167916,8.717991 L61.3523238,8.717991 L61.3523238,15.5128958 L59.5892054,15.5128958 L59.5892054,0.38461725 L64.101949,0.38461725 L64.101949,0.38461725 Z M64.4167916,7.05131625 C65.3123438,7.05131625 66.0189905,6.83051746 66.5367316,6.38891988 C67.0544728,5.94732229 67.3133433,5.33478371 67.3133433,4.55130413 C67.3133433,3.76782454 67.057971,3.15528596 66.5472264,2.71368838 C66.0364818,2.27209079 65.3263368,2.051292 64.4167916,2.051292 L61.3523238,2.051292 L61.3523238,7.05131625 L64.4167916,7.05131625 L64.4167916,7.05131625 Z M73.7991004,0.38461725 L73.7991004,15.5128958 L72.035982,15.5128958 L72.035982,0.38461725 L73.7991004,0.38461725 Z M79.8230885,14.359044 C79.8230885,14.700926 79.6971514,15.0000728 79.4452774,15.2564843 C79.1934033,15.5128958 78.8995502,15.6411015 78.5637181,15.6411015 C78.2418791,15.6411015 77.9515242,15.5128958 77.6926537,15.2564843 C77.4337831,15.0000728 77.3043478,14.700926 77.3043478,14.359044 C77.3043478,14.017162 77.4267866,13.7180153 77.6716642,13.4616038 C77.9165417,13.2051923 78.2138931,13.0769865 78.5637181,13.0769865 C78.9135432,13.0769865 79.2108946,13.201631 79.4557721,13.4509199 C79.7006497,13.7002089 79.8230885,14.0029169 79.8230885,14.359044 L79.8230885,14.359044 Z M84,0.38461725 C84.3218391,0.38461725 84.6016992,0.502139188 84.8395802,0.737183063 C85.0774613,0.972226938 85.1964018,1.26068988 85.1964018,1.60257188 C85.1964018,1.95869896 85.0844578,2.25072317 84.8605697,2.4786445 C84.6366817,2.70656583 84.3498251,2.8205265 84,2.8205265 C83.6501749,2.8205265 83.3633183,2.70656583 83.1394303,2.4786445 C82.9155422,2.25072317 82.8035982,1.95869896 82.8035982,1.60257188 C82.8035982,1.26068988 82.9225387,0.972226938 83.1604198,0.737183063 C83.3983008,0.502139188 83.6781609,0.38461725 84,0.38461725 L84,0.38461725 Z M84.8185907,5.51284725 L84.8185907,15.5128958 L83.1814093,15.5128958 L83.1814093,5.51284725 L84.8185907,5.51284725 Z M92.7526237,5.25643575 C94.2778611,5.25643575 95.5232384,5.73720732 96.4887556,6.69875044 C97.4542729,7.66029357 97.958021,8.93166725 98,10.5128715 C98,12.0370954 97.5102449,13.2871015 96.5307346,14.2628897 C95.5512244,15.2386779 94.2918541,15.7408171 92.7526237,15.7693073 C91.2133933,15.7693073 89.9610195,15.2742906 88.9955022,14.2842573 C88.029985,13.294224 87.5332334,12.0370954 87.5052474,10.5128715 C87.5052474,8.9744025 87.9950025,7.7172739 88.9745127,6.74148569 C89.954023,5.76569748 91.2133933,5.27068084 92.7526237,5.25643575 L92.7526237,5.25643575 Z M89.2683658,10.5128715 C89.2683658,11.6097429 89.5937031,12.4964994 90.2443778,13.1731408 C90.8950525,13.8497823 91.7311344,14.2023481 92.7526237,14.2308383 C93.7741129,14.2308383 94.6066967,13.885395 95.2503748,13.1945084 C95.894053,12.5036219 96.2228886,11.6097429 96.2368816,10.5128715 C96.2368816,9.43024517 95.9115442,8.53992746 95.2608696,7.84191838 C94.6101949,7.1439093 93.7671164,6.79490475 92.7316342,6.79490475 C91.7241379,6.79490475 90.8985507,7.14034802 90.2548726,7.83123457 C89.6111944,8.52212111 89.2823588,9.41600009 89.2683658,10.5128715 L89.2683658,10.5128715 Z"/></g></g></g></g></g></svg>