<svg xmlns="http://www.w3.org/2000/svg" xmlns:xlink="http://www.w3.org/1999/xlink" id="Layer_1" x="0" y="0" version="1.1" viewBox="-2457.7 882.5 422.8 65" style="enable-background:new -2457.7 882.5 422.8 65" xml:space="preserve"><style type="text/css">.st0{enable-background:new}.st1{fill:#fff}</style><switch><g><title>black</title><g class="st0"><path d="M-2360.1,926.9c2.6,0,5.4-0.4,8.4-1.3l1.1,5.2c-3.1,1.2-6.8,1.7-10,1.7c-8.6,0-11.6-4-11.6-10.5v-7.2 c0-5.8,2.6-10.7,11.3-10.7c8.8,0,10.7,5.1,10.7,11v5.8h-15.2v1.4C-2365.4,925.6-2364.2,926.9-2360.1,926.9z M-2365.4,915.4h8.7 v-1.3c0-2.6-0.8-4.4-4.2-4.4c-3.4,0-4.5,1.8-4.5,4.4V915.4z" class="st1"/><path d="M-2347,931.9l8.8-13.7l-8.6-13.6h6.8l5.4,8.3l5.4-8.3h6.8l-8.6,13.6l8.9,13.7h-7l-5.4-8.5l-5.5,8.5H-2347z" class="st1"/><path d="M-2318.7,922v-7.5c0-7.3,3.2-10.5,11.8-10.5c1.9,0,4.7,0.3,6.7,1l-0.8,5.6c-1.9-0.5-4.3-0.7-5.7-0.7 c-3.9,0-5.1,1.2-5.1,4.5v7.6c0,3.4,1.2,4.5,5.1,4.5c1.7,0,3.7-0.2,5.7-0.7l0.8,5.6c-1.8,0.6-4.4,1-6.7,1 C-2315.5,932.5-2318.7,929.4-2318.7,922z" class="st1"/><path d="M-2277.8,931.9v-19.1c0-1.5-0.6-2.2-2.2-2.2c-1.7,0-4.7,1-7.1,2.3v19h-6.8v-38.5l6.8-1v14.2 c3-1.6,7.1-2.6,10-2.6c4.5,0,6.2,3.2,6.2,8.1v19.8H-2277.8z" class="st1"/><path d="M-2243.2,931.9h-5.6l-0.5-1.9c-2.5,1.6-5.4,2.4-8.1,2.4c-5,0-7.1-3.4-7.1-8.1c0-5.6,2.4-7.7,8-7.7h6.6v-2.9 c0-3-0.8-4.1-5.2-4.1c-2.5,0-5.2,0.3-7.6,0.8l-0.8-5.2c2.6-0.8,6.3-1.3,9.4-1.3c8.6,0,11.1,3,11.1,9.9V931.9z M-2250,921.6h-5 c-2.2,0-2.9,0.6-2.9,2.7c0,1.9,0.6,2.7,2.7,2.7c2,0,3.9-0.7,5.2-1.4V921.6z" class="st1"/><path d="M-2219.7,931.9v-19.1c0-1.5-0.6-2.2-2.2-2.2c-1.7,0-4.7,1-7.1,2.3v19h-6.8v-27.3h5.2l0.7,2.3 c3.4-1.7,7.7-2.9,10.9-2.9c4.5,0,6.2,3.2,6.2,8.1v19.8H-2219.7z" class="st1"/><path d="M-2197.6,924.6c-0.9,0.6-1.6,1.3-1.6,2.2c0,0.7,0.4,1.1,1.5,1.2c3,0.3,4.7,0.5,7.9,0.8 c4.4,0.5,5.8,2.7,5.8,6.6c0,5.8-2.1,8.1-12.3,8.1c-3.1,0-7.5-0.4-10.5-1.4l0.8-5.1c2.9,0.7,6,1.2,9.2,1.2c5.4,0,6.5-0.4,6.5-2.2 c0-1.7-0.5-2-2.6-2.2c-3.1-0.3-4.4-0.5-7.9-0.9c-3.9-0.4-5.4-1.7-5.4-5.2c0-2.2,1.5-3.7,2.9-4.7c-2.5-1.5-3.7-4-3.7-7.3v-2.6 c0.1-5.7,3.1-9.1,11-9.1c1.9,0,3.3,0.2,4.7,0.6h8.4v3.4c-1,0.3-2.1,0.6-3,0.8c0.6,1.2,1,2.7,1,4.3v2.6c0,5.6-3.4,8.9-11,8.9 C-2196.6,924.7-2197.1,924.7-2197.6,924.6z M-2196,909.6c-3.4,0-4.5,1.2-4.5,3.8v2.1c0,2.7,1.3,3.7,4.5,3.7 c3.3,0,4.6-1.1,4.6-3.7v-2.1C-2191.4,910.8-2192.6,909.6-2196,909.6z" class="st1"/><path d="M-2167,926.9c2.6,0,5.4-0.4,8.4-1.3l1.1,5.2c-3.1,1.2-6.8,1.7-10,1.7c-8.6,0-11.6-4-11.6-10.5v-7.2 c0-5.8,2.6-10.7,11.3-10.7c8.8,0,10.7,5.1,10.7,11v5.8h-15.2v1.4C-2172.3,925.6-2171.1,926.9-2167,926.9z M-2172.3,915.4h8.7 v-1.3c0-2.6-0.8-4.4-4.2-4.4c-3.4,0-4.5,1.8-4.5,4.4V915.4z" class="st1"/><path d="M-2136.8,910.4c-2.6,1.2-4.8,2.4-7.2,4v17.6h-6.8v-27.3h5.8l0.4,3c1.5-1,4.8-2.9,7.2-3.6L-2136.8,910.4z" class="st1"/><path d="M-2112.2,931.9h-5.6l-0.5-1.9c-2.5,1.6-5.4,2.4-8.1,2.4c-5,0-7.1-3.4-7.1-8.1c0-5.6,2.4-7.7,8-7.7h6.6v-2.9 c0-3-0.8-4.1-5.2-4.1c-2.5,0-5.2,0.3-7.6,0.8l-0.8-5.2c2.6-0.8,6.3-1.3,9.4-1.3c8.6,0,11.1,3,11.1,9.9V931.9z M-2119,921.6h-5 c-2.2,0-2.9,0.6-2.9,2.7c0,1.9,0.6,2.7,2.7,2.7c2,0,3.9-0.7,5.2-1.4V921.6z" class="st1"/><path d="M-2090.3,931.4c-1.5,0.6-4.3,1.1-6,1.1c-5,0-7.5-2.4-7.5-7.2v-15.2h-4.1v-5.4h4.1v-6.8l6.8-1v7.7h7l-0.4,5.4 h-6.6v14.3c0,1.5,0.7,2.4,2.5,2.4c1,0,2.2-0.2,3.4-0.6L-2090.3,931.4z" class="st1"/><path d="M-2074,926.9c2.6,0,5.4-0.4,8.4-1.3l1.1,5.2c-3.1,1.2-6.8,1.7-10,1.7c-8.6,0-11.6-4-11.6-10.5v-7.2 c0-5.8,2.6-10.7,11.3-10.7c8.8,0,10.7,5.1,10.7,11v5.8h-15.2v1.4C-2079.3,925.6-2078.2,926.9-2074,926.9z M-2079.3,915.4h8.7 v-1.3c0-2.6-0.8-4.4-4.2-4.4c-3.4,0-4.5,1.8-4.5,4.4V915.4z" class="st1"/><path d="M-2049.5,932.5c-2.9,0-6.9-0.7-9.4-1.6l1-5.2c2.3,0.7,5.3,1.2,8.1,1.2c3,0,3.5-0.7,3.5-2.7 c0-1.7-0.3-2.5-4.8-3.6c-6.7-1.6-7.5-3.3-7.5-8.6c0-5.5,2.4-7.9,10.2-7.9c2.5,0,5.8,0.3,8.2,1l-0.7,5.4c-2.1-0.4-5.4-0.8-7.5-0.8 c-3,0-3.5,0.7-3.5,2.4c0,2.2,0.2,2.4,3.9,3.3c7.6,2,8.4,3,8.4,8.6C-2039.6,929.3-2041.3,932.5-2049.5,932.5z" class="st1"/></g><g><path d="M-2424.3,914.8c-1.9,1.9-3.8,3.7-5.7,5.6c-5.2,5.2-10.3,10.3-15.5,15.5c-0.2,0.2-0.5,0.4-0.8,0.7 c-7.5-8.1-10.6-17.5-8.1-28.1c2.9-12.6,11-20.6,23.6-23.4c10.6-2.3,19.8,0.8,27.8,8.2c-0.3,0.4-0.6,0.6-0.8,0.9 c-6.5,6.5-12.9,12.9-19.4,19.4c-0.3,0.3-0.6,0.6-0.9,1C-2424.2,914.7-2424.3,914.7-2424.3,914.8z" class="st1"/><path d="M-2424.3,914.8c0.1-0.1,0.1-0.1,0.2-0.2c4.3-0.1,8.6-0.1,12.8-0.2c1.6,0,3.2-0.1,4.7-0.1 c4.1-0.1,8.1-0.1,12.2-0.2c0.5,0,0.9,0,1.6,0c-0.1,1.6-0.2,3.2-0.4,4.7c-1.8,10.2-7.2,17.9-16.3,22.9c-4.1,2.3-8.6,3.4-13.3,3.7 c-0.8,0-1-0.2-1-0.9c-0.1-7.9-0.2-15.7-0.4-23.6C-2424.2,918.9-2424.3,916.9-2424.3,914.8z" class="st1"/></g></g></switch></svg>