<svg xmlns="http://www.w3.org/2000/svg" xmlns:xlink="http://www.w3.org/1999/xlink" version="1.1" viewBox="0 0 127 80"><defs><polygon id="path-1" points="0 .315 126.409 .315 126.409 22.677 0 22.677"/></defs><g id="Page-1" fill="none" fill-rule="evenodd" stroke="none" stroke-width="1"><g id="logo_suite_symbol"><g id="Group-3" transform="translate(0.000000, 56.818898)"><g id="Fill-1-Clipped"><mask id="mask-2" fill="#fff"><use xlink:href="#path-1"/></mask><path id="Fill-1" fill="#0870E3" fill-rule="nonzero" d="M63.2043617,22.6772913 C64.5312274,22.6772913 65.794909,22.3623307 66.9954065,21.6687874 L80.8327199,13.7324094 C83.6128194,12.1576063 86.8352075,11.4646929 90.0575955,11.8426457 C106.864561,13.7947717 118.6168,16.944378 122.091924,17.9528819 C122.786949,18.1418583 123.608342,17.8892598 124.05063,17.3229606 C124.619287,16.6294173 125.314312,15.496189 125.882969,13.8583937 C126.388441,12.2835906 126.451625,10.960126 126.388441,10.0152441 C126.325257,9.2599685 125.819785,8.56705512 125.061576,8.37807874 C119.627745,6.80327559 95.5546104,0.315086614 63.2043617,0.315086614 C30.8541129,0.315086614 6.78097861,6.80327559 1.34714776,8.37807874 C0.588938806,8.56705512 0.0834661692,9.2599685 0.0202820896,10.0152441 C-0.04290199,10.8977638 0.0202820896,12.2199685 0.525754726,13.8583937 C1.03122736,15.496189 1.78943632,16.6294173 2.35809303,17.3229606 C2.80038159,17.8892598 3.62177463,18.1418583 4.3167995,17.9528819 C7.79192388,16.944378 19.6073468,13.7947717 36.3511279,11.8426457 C39.5735159,11.4646929 42.795904,12.1576063 45.5760035,13.7324094 L59.4133169,21.6687874 C60.6138144,22.3623307 61.9406801,22.6772913 63.2043617,22.6772913" mask="url(#mask-2)"/></g></g><path id="Fill-4" fill="#0870E3" fill-rule="nonzero" d="M40.1421726,34.8345197 C40.9003816,36.1573543 42.1008791,37.0392441 43.4909289,37.4171969 C44.8809786,37.7951496 46.3342124,37.6061732 47.6610781,36.8502677 C48.9879438,36.0943622 49.8725209,34.8975118 50.2516254,33.511685 C50.6307299,32.1258583 50.4411776,30.6770394 49.6829687,29.3542047 L37.235705,7.87388976 C36.8566005,7.18097638 36.0352075,6.92900787 35.2769985,6.992 C34.2660532,7.05499213 32.8760035,7.55892913 31.2332174,8.50381102 C29.5904313,9.44869291 28.4531179,10.3935748 27.8844612,11.2124724 C27.4421726,11.8423937 27.3158045,12.6612913 27.694909,13.3542047 L40.1421726,34.8345197 Z"/><path id="Fill-6" fill="#0870E3" fill-rule="nonzero" d="M28.7690383,50.2048504 C30.095904,50.9607559 31.6123219,51.0861102 32.9391876,50.7711496 C34.3292373,50.3938268 35.5297348,49.5113071 36.2879438,48.1891024 C37.0461527,46.8662677 37.1725209,45.3544567 36.8566005,44.031622 C36.5406801,42.7087874 35.5929189,41.4489449 34.2660532,40.6930394 L12.7202821,28.2835906 C12.0252572,27.9056378 11.2038642,28.031622 10.5720234,28.4725669 C9.75063035,29.0394961 8.80286915,30.1733543 7.85510796,31.8111496 C6.90734677,33.4489449 6.40187413,34.8347717 6.33869005,35.8426457 C6.27550597,36.6615433 6.59142637,37.4174488 7.22326716,37.7954016 L28.7690383,50.2048504 Z"/><path id="Fill-8" fill="#0870E3" fill-rule="nonzero" d="M68.7011871,27.2127244 C68.7011871,28.7245354 68.0693463,30.1103622 67.1215851,31.1182362 C66.1106398,32.1261102 64.7837741,32.6930394 63.2041721,32.6930394 C61.6877542,32.6930394 60.2977045,32.0631181 59.2867592,31.1182362 C58.2758139,30.1103622 57.7071572,28.7875276 57.7071572,27.2127244 L57.7071572,2.4568189 C57.7071572,1.63792126 58.2126299,1.008 58.9708388,0.69303937 C59.8554159,0.252094488 61.3086498,0.000125984252 63.2041721,0.000125984252 C65.0996945,0.000125984252 66.5529284,0.252094488 67.4375055,0.69303937 C68.1325303,1.07099213 68.7011871,1.63792126 68.7011871,2.4568189 L68.7011871,27.2127244 Z"/><path id="Fill-10" fill="#0870E3" fill-rule="nonzero" d="M86.2665507,34.8345197 C85.5083418,36.1573543 84.3078443,37.0392441 82.9177945,37.4171969 C81.5277448,37.7951496 80.0745109,37.6061732 78.7476453,36.8502677 C77.4207796,36.0943622 76.5362025,34.8975118 76.157098,33.511685 C75.7779935,32.1258583 75.9675458,30.6770394 76.7257547,29.3542047 L89.1730184,7.87388976 C89.5521229,7.18097638 90.3735159,6.92900787 91.1317249,6.992 C92.1426701,7.05499213 93.5327199,7.55892913 95.175506,8.50381102 C96.818292,9.44869291 97.9556055,10.3935748 98.5242622,11.2124724 C98.9665507,11.8423937 99.0929189,12.6612913 98.7138144,13.3542047 L86.2665507,34.8345197 Z"/><path id="Fill-12" fill="#0870E3" fill-rule="nonzero" d="M97.6396851,50.2048504 C96.3128194,50.9607559 94.7964015,51.0861102 93.4695358,50.7711496 C92.0794861,50.3938268 90.8789886,49.5113071 90.1207796,48.1891024 C89.3625706,46.8662677 89.2362025,45.3544567 89.5521229,44.031622 C89.9312274,42.6457953 90.8158045,41.4489449 92.1426701,40.6930394 L113.688441,28.2835906 C114.383466,27.9056378 115.204859,28.031622 115.8367,28.4725669 C116.658093,29.0394961 117.605854,30.1733543 118.553615,31.8111496 C119.501377,33.4489449 120.006849,34.8347717 120.070033,35.8426457 C120.133217,36.6615433 119.817297,37.4174488 119.185456,37.7954016 L97.6396851,50.2048504 Z"/></g></g></svg>