<svg xmlns="http://www.w3.org/2000/svg" xmlns:xlink="http://www.w3.org/1999/xlink" id="Layer_1" width="100" height="100" x="0" y="0" enable-background="new 0 0 100 100" version="1.1" viewBox="0 0 100 100" xml:space="preserve"><g><path fill="#FFF" d="M49.607,1.406C76.447,1.406,98.2,23.162,98.2,50c0,26.841-21.753,48.594-48.593,48.594 C22.769,98.594,1.013,76.841,1.013,50C1.013,23.162,22.769,1.406,49.607,1.406z"/><linearGradient id="SVGID_1_" x1="41.785" x2="56.932" y1="6.315" y2="92.218" gradientUnits="userSpaceOnUse"><stop offset="0" style="stop-color:#009c47"/><stop offset="1" style="stop-color:#00843c"/></linearGradient><circle cx="49.358" cy="49.266" r="43.607" fill="url(#SVGID_1_)"/><g><path fill="#FFF" d="M50.527,84.337c-4.999-6.121-7.632-9.313-7.894-9.573c-0.989-1.185-2.667-2.829-5.034-4.934 c1.052-5.661,2.434-10.068,4.146-13.228c0.657-1.119,3.388-4.804,8.192-11.055c2.633,5.461,6.187,9.146,10.66,11.055 c0.985,0.395,5.23,1.284,12.729,2.667c5.53,1.115,9.973,3.19,13.326,6.218c4.738,4.274,8.849,11.382,12.336,21.317 c-14.146-7.962-24.247-10.757-30.298-8.389c-2.831,1.712-5.266,3.06-7.304,4.047C58.294,84.04,54.674,84.666,50.527,84.337z"/><path fill="#FFF" d="M52.107,34.987c-0.593,3.751-1.874,6.812-3.849,9.179c-1.12,1.382-3.291,3.291-6.515,5.725 c-6.45,4.736-11.12,10.856-14.015,18.357c-2.829,7.107-3.553,14.313-2.17,21.618l-2.072,0.194 c-1.581-7.366-0.921-14.639,1.973-21.811c2.961-7.633,7.962-14.018,15.002-19.147c3.883-2.896,6.417-6.745,7.601-11.547 c0.921-3.947,0.821-8.259-0.297-12.931c-0.854-4.014-2.271-7.008-4.242-8.981c-1.91-1.908-3.818-2.598-5.727-2.072 c-4.474,1.184-6.186,6.844-5.131,16.976c0.987,9.607,2.83,15.661,5.526,18.16c-2.697,0.199-5.032-3.486-7.007-11.054 c-1.909-7.501-2.173-14.016-0.791-19.542c0.593-2.763,1.876-4.836,3.849-6.218c3.027-2.106,6.548-1.842,10.563,0.789 c2.631,1.712,4.572,4.376,5.82,7.995C52.14,24.624,52.636,29.395,52.107,34.987z M32.96,90.567 c-3.75-16.867-1.217-29.042,7.601-36.533c-5.988,13.02-7.567,25.264-4.738,36.735L32.96,90.567z"/></g></g></svg>