<svg width="857" height="195" xmlns="http://www.w3.org/2000/svg"><defs><linearGradient x1="0%" y1="50%" x2="100%" y2="50%" id="a"><stop stop-color="#0087FF" offset="0%"/><stop stop-color="#00CDE9" offset="100%"/></linearGradient></defs><g fill="none" fill-rule="evenodd"><path d="M191.49 131.24a18.36 18.36 0 01-7.39-1.32 12.59 12.59 0 01-4.9-3.73 15.19 15.19 0 01-2.75-5.71 29.1 29.1 0 01-.87-7.39V89.22h-7.14v-8.77l7.75-.51 1.43-13.67h9.79v13.67h12.75v9.28h-12.75v23.87c0 5.847 2.333 8.77 7 8.77a12 12 0 002.7-.31 12.43 12.43 0 002.5-.81l2 8.67c-1.52.517-3.07.94-4.64 1.27-1.802.38-3.639.568-5.48.56zM229.54 131.24a23.656 23.656 0 01-9-1.73 22.51 22.51 0 01-7.6-5.1 24.35 24.35 0 01-5.25-8.26 30.08 30.08 0 01-1.92-11.15 30.08 30.08 0 011.94-11.12 24.35 24.35 0 015.29-8.23 23.14 23.14 0 0116.58-6.94c3.088 0 6.147.608 9 1.79a22.36 22.36 0 017.59 5.15 25.49 25.49 0 015.26 8.26 29.47 29.47 0 012 11.12 29.47 29.47 0 01-2 11.12 25.49 25.49 0 01-5.26 8.26 21.81 21.81 0 01-7.59 5.1 24.006 24.006 0 01-9.04 1.73zm0-9.58a10 10 0 008.67-4.54c2.107-3.033 3.16-7.063 3.16-12.09s-1.053-9.09-3.16-12.19a10 10 0 00-8.67-4.54 9.9 9.9 0 00-8.62 4.54c-2.08 3.027-3.117 7.08-3.11 12.16.007 5.08 1.043 9.11 3.11 12.09a9.9 9.9 0 008.62 4.57zM265 130V79.94h9.69l.82 6.83h.49a34.93 34.93 0 016.88-5.71 15.5 15.5 0 018.42-2.35 15 15 0 018.82 2.35 14.55 14.55 0 015.05 6.63 40.29 40.29 0 017.45-6.43 15.41 15.41 0 018.67-2.55c5.333 0 9.243 1.717 11.73 5.15 2.487 3.433 3.743 8.347 3.77 14.74V130h-11.88v-29.87c0-4.14-.63-7.07-1.89-8.77a6.7 6.7 0 00-5.76-2.55c-3.127 0-6.63 2.073-10.51 6.22V130H295v-29.87c0-4.14-.63-7.07-1.89-8.77-1.26-1.7-3.21-2.55-5.86-2.55-3.133 0-6.637 2.073-10.51 6.22V130H265zM371.52 131.24a23.656 23.656 0 01-9-1.73 22.38 22.38 0 01-7.59-5.1 24.37 24.37 0 01-5.26-8.26 30.08 30.08 0 01-1.92-11.15 30.08 30.08 0 011.94-11.12 24.37 24.37 0 015.31-8.23 23.1 23.1 0 0116.57-6.94c3.088 0 6.147.608 9 1.79a22.4 22.4 0 017.6 5.15 25.63 25.63 0 015.25 8.26 29.28 29.28 0 012 11.12 29.28 29.28 0 01-2 11.12 25.63 25.63 0 01-5.25 8.26 21.85 21.85 0 01-7.6 5.1 24.006 24.006 0 01-9.05 1.73zm0-9.58a10 10 0 008.67-4.54c2.113-3.033 3.167-7.063 3.16-12.09-.007-5.027-1.06-9.09-3.16-12.19a10 10 0 00-8.67-4.54 9.9 9.9 0 00-8.62 4.54c-2.073 3.027-3.11 7.09-3.11 12.19s1.037 9.13 3.11 12.09a9.9 9.9 0 008.62 4.54zM407 130V79.94h9.69l.81 8.87h.41a21.11 21.11 0 016.43-7.5 14.12 14.12 0 0113.46-1.58l-2 10.2a22.4 22.4 0 00-2.45-.61 16.32 16.32 0 00-2.75-.2 10.88 10.88 0 00-6.22 2.29c-2.18 1.533-4.05 4.2-5.61 8V130H407zM445.06 130V79.94h9.69l.82 8.87h.43a21 21 0 016.42-7.5 14.12 14.12 0 0113.46-1.58l-2 10.2a23.59 23.59 0 00-2.45-.61 16.45 16.45 0 00-2.76-.2 10.93 10.93 0 00-6.22 2.29c-2.18 1.533-4.05 4.2-5.61 8V130h-11.78zM502.59 131.24a23.656 23.656 0 01-9-1.73 22.41 22.41 0 01-7.6-5.1 24.35 24.35 0 01-5.25-8.26 30.08 30.08 0 01-1.92-11.15 30.08 30.08 0 011.94-11.12 24.35 24.35 0 015.24-8.23 23.14 23.14 0 0116.58-6.94 23.481 23.481 0 019 1.79 22.31 22.31 0 017.6 5.15 25.49 25.49 0 015.26 8.26 29.47 29.47 0 012 11.12 29.47 29.47 0 01-2 11.12 25.49 25.49 0 01-5.26 8.26 21.76 21.76 0 01-7.6 5.1 24.006 24.006 0 01-8.99 1.73zm0-9.58a10 10 0 008.67-4.54c2.1-3.033 3.153-7.063 3.16-12.09.007-5.027-1.047-9.09-3.16-12.19a10 10 0 00-8.67-4.54 9.9 9.9 0 00-8.59 4.54c-2.08 3.027-3.117 7.09-3.11 12.19.007 5.1 1.043 9.13 3.11 12.09a9.9 9.9 0 008.59 4.54zM545.73 130l-13.26-50.06h11.84l6 26c.547 2.38 1.007 4.76 1.38 7.14s.81 4.797 1.31 7.25h.4c.48-2.447.973-4.86 1.48-7.24s1.063-4.743 1.67-7.09l6.52-26h10.71l6.63 26c.62 2.38 1.19 4.76 1.74 7.14s1.09 4.79 1.63 7.24h.41c.47-2.45.92-4.86 1.32-7.24s.85-4.76 1.33-7.14l6-26h11l-12.72 50h-14l-5.82-23.36a301.15 301.15 0 01-1.52-7.09l-1.53-7.49h-.41c-.48 2.65-1 5.16-1.43 7.54-.43 2.38-1 4.77-1.53 7.14L559.2 130h-13.47z" fill="#000" fill-rule="nonzero"/><path d="M65.71 37.74c1.72-.32 3.46-.72 5.15-1.2a58.86 58.86 0 006.58-2.29c1.06-.44 2.12-.92 3.16-1.43a60.24 60.24 0 0017.52-13 55.65 55.65 0 00-9.24-9.23A46.53 46.53 0 0155 25.46a46.54 46.54 0 01-33.95-14.89 55.65 55.65 0 00-9.24 9.23 60.37 60.37 0 0017.52 13c1 .51 2.1 1 3.16 1.43a59.57 59.57 0 006.58 2.29c1.7.48 3.43.88 5.15 1.2.58.11 1.17.21 1.75.3 1.17.18 2.37.33 3.55.44 3.622.34 7.268.34 10.89 0 1.18-.11 2.38-.26 3.55-.44.58-.02 1.17-.17 1.75-.28zM77.54 3.66A55 55 0 0066.45 0a24.24 24.24 0 01-11.6 3 24.26 24.26 0 01-11.52-3 54.21 54.21 0 00-10.94 3.66A33.89 33.89 0 0055 12.35a33.89 33.89 0 0022.54-8.69zm32.08 43a56.26 56.26 0 00-3.4-12.8C79.7 40.54 60.46 65.19 60.46 93.92v1.55a63.42 63.42 0 002 14.43A54.35 54.35 0 0075 106.63a49.58 49.58 0 01-1.66-12.71c.01-22.67 15.44-42.13 36.28-47.3v.04zM86.08 93.92c.011 2.137.215 4.27.61 6.37a55.49 55.49 0 008.76-7.73 26.12 26.12 0 0111.93-20.37 56.44 56.44 0 002.54-12.06 35.72 35.72 0 00-23.84 33.79zm-49.52 0a50 50 0 01-1.65 12.71 54.35 54.35 0 0012.5 3.27 63.41 63.41 0 002-14.43v-1.55c0-28.73-19.25-53.38-45.76-60.1A55.75 55.75 0 00.3 46.62c20.83 5.17 36.26 24.63 36.26 47.3zM0 60.13a56.44 56.44 0 002.54 12.06 26.15 26.15 0 0111.93 20.37 55.49 55.49 0 008.76 7.73c.395-2.1.599-4.233.61-6.37A35.72 35.72 0 000 60.13z" fill="url(#a)" transform="translate(35 44)"/><g opacity=".3" fill="#000" fill-rule="nonzero"><path d="M644.62 131.24c-6.32 0-11.32-2.293-15-6.88-3.68-4.587-5.553-11.04-5.62-19.36a32 32 0 011.78-11 25.82 25.82 0 014.74-8.26 21.3 21.3 0 016.79-5.2 18.11 18.11 0 017.9-1.84 16.13 16.13 0 017.24 1.48 28.91 28.91 0 015.92 4l-.37-8.02V58h11.73v72H660l-.81-5.41h-.41a26.71 26.71 0 01-6.43 4.7 16.39 16.39 0 01-7.73 1.95zm2.86-9.69c3.74 0 7.24-1.87 10.5-5.61V92.59a16.45 16.45 0 00-5.15-3.27 14.57 14.57 0 00-5.05-.92 10.15 10.15 0 00-8.26 4.29c-2.24 2.853-3.36 6.933-3.36 12.24 0 5.44.967 9.57 2.9 12.39a9.58 9.58 0 008.42 4.23zM705.11 131.24a23.656 23.656 0 01-9-1.73 22.41 22.41 0 01-7.6-5.1 24.35 24.35 0 01-5.25-8.26 30.08 30.08 0 01-1.92-11.15 30.08 30.08 0 011.94-11.12 24.35 24.35 0 015.25-8.26 23.14 23.14 0 0116.58-6.94 23.481 23.481 0 019 1.79 22.4 22.4 0 017.6 5.15 25.49 25.49 0 015.29 8.29 29.47 29.47 0 012 11.09 29.47 29.47 0 01-2 11.12 25.49 25.49 0 01-5.26 8.26 21.85 21.85 0 01-7.6 5.1 24.006 24.006 0 01-9.03 1.76zm0-9.58a10 10 0 008.67-4.54c2.1-3.033 3.153-7.063 3.16-12.09.007-5.027-1.047-9.09-3.16-12.19a10 10 0 00-8.67-4.54 9.89 9.89 0 00-8.62 4.54c-2.08 3.027-3.117 7.09-3.11 12.19.007 5.1 1.043 9.13 3.11 12.09a9.89 9.89 0 008.62 4.54zM761.51 131.24a25.82 25.82 0 01-9.51-1.73 21.65 21.65 0 01-7.71-5.1 23.75 23.75 0 01-5.1-8.26 31.63 31.63 0 01-1.85-11.15 28.7 28.7 0 012-11.12 24.32 24.32 0 015.51-8.26 24 24 0 018-5.15 25.87 25.87 0 019.54-1.79 19.88 19.88 0 018.42 1.64 27.4 27.4 0 016.27 4L771.41 92a20.26 20.26 0 00-4-2.7 9.86 9.86 0 00-4.34-1 12.25 12.25 0 00-9.89 4.54c-2.52 3.027-3.78 7.09-3.78 12.19s1.243 9.13 3.73 12.09a11.9 11.9 0 009.64 4.54 12.42 12.42 0 005.55-1.28 24.72 24.72 0 004.75-3l4.79 7.75a25.13 25.13 0 01-16.32 6.12l-.03-.01zM801.7 131.24a27.83 27.83 0 01-10.25-2 33.3 33.3 0 01-8.72-5l5.51-7.55a31.4 31.4 0 006.68 4.13 17.33 17.33 0 007.19 1.48c2.72 0 4.72-.56 6-1.68a5.47 5.47 0 001.94-4.34 4.26 4.26 0 00-.91-2.7 8.94 8.94 0 00-2.45-2.09 23.86 23.86 0 00-3.47-1.68c-1.29-.52-2.59-1-3.88-1.59-1.63-.61-3.3-1.32-5-2.14a19.43 19.43 0 01-4.54-3 14.78 14.78 0 01-3.27-4 11 11 0 01-1.27-5.45 13.55 13.55 0 014.89-10.81c3.273-2.787 7.73-4.183 13.37-4.19a23.19 23.19 0 019.38 1.84 34.86 34.86 0 017.24 4.18l-5.41 7.14a27.76 27.76 0 00-5.35-3.11 14.1 14.1 0 00-5.66-1.17c-2.52 0-4.373.527-5.56 1.58a5 5 0 00-1.78 3.93 4 4 0 00.86 2.6 8 8 0 002.3 1.88 21.85 21.85 0 003.31 1.53c1.26.48 2.57 1 3.93 1.43 1.7.607 3.4 1.303 5.1 2.09a21 21 0 014.64 2.91 13.42 13.42 0 013.37 4.23 13 13 0 011.27 6 14.48 14.48 0 01-1.27 6.07 13.89 13.89 0 01-3.73 4.89 18.07 18.07 0 01-6.1 3.35 26.22 26.22 0 01-8.36 1.24z"/></g></g></svg>