<?xml version="1.0" encoding="utf-8"?>
<!-- Generator: Adobe Illustrator 16.0.0, SVG Export Plug-In . SVG Version: 6.00 Build 0)  -->
<!DOCTYPE svg PUBLIC "-//W3C//DTD SVG 1.1//EN" "http://www.w3.org/Graphics/SVG/1.1/DTD/svg11.dtd">
<svg version="1.1" id="Layer_1" xmlns="http://www.w3.org/2000/svg" xmlns:xlink="http://www.w3.org/1999/xlink" x="0px" y="0px"
	 width="165px" height="170px" viewBox="0 0 165 170" enable-background="new 0 0 165 170" xml:space="preserve">
<g id="Page-1">
	<g id="Group-2-Copy-2">
		<path id="Combined-Shape" fill="#222222" d="M57.177,133.033L57.177,133.033c-8.023-1.308-15.203-3.234-21.138-5.625V169.9H15
			V93.722c0-5.948,2.066-11.056,6.198-15.322C25.33,74.133,30.277,72,36.039,72h42.177v97.9H57.177V133.033z M45.375,83.255
			L39,112.201l7.753,8.604l7.753-8.604l-6.366-28.902c1.585-1.11,3.437-3.516,3.437-4.238c0-1.138-1.287-2.061-2.874-2.061h-3.831
			C43.287,77,42,77.923,42,79.061C42,79.774,43.805,82.127,45.375,83.255L45.375,83.255z"/>
		<path id="Combined-Shape_1_" fill="#222222" d="M137.363,69.109c18.426-12.756,19.926-40.818,8.121-65.918
			c1.943-4.254,4.564-4.254,7.865,0c13.238,18.543,15.057,50.337,2.392,77.295c-0.063,0.134-0.126,0.268-0.188,0.4
			c-0.98-1.613-2.167-3.139-3.557-4.574C147.875,72.057,142.959,69.636,137.363,69.109z"/>
		<path id="Combined-Shape_2_" fill="#222222" d="M135.699,72.011c5.463,0.166,10.178,2.296,14.142,6.389
			c4.132,4.266,6.198,9.374,6.198,15.322V169.9H135v-43.159c1.293-0.685,2.53-1.502,3.711-2.449
			c6.396-4.684,9.506-10.079,9.506-19.659V93.722c0-6.693-2.369-12.539-7.039-17.38C139.482,74.585,137.654,73.14,135.699,72.011
			L135.699,72.011z"/>
		<path id="Combined-Shape_3_" fill="#222222" d="M145.217,104.633V93.722c0-5.915-2.066-11.014-6.199-15.297
			c-4.132-4.283-9.078-6.425-14.84-6.425H82v97.9h21.039v-36.496c12.121-1.751,22.482-4.895,29.779-8.925
			c1.425-0.675,2.78-1.53,4.066-2.569C141.139,118.809,145.217,114.665,145.217,104.633z"/>
		<g id="Group-3">
			<path id="Combined-Shape_4_" fill="#222222" d="M27.045,62.917c-0.616,0.893-1.263,1.777-1.94,2.654H14.848
				C3.194,55.594-1.6,46.677,0.467,38.82C3.521,27.207,20.912,1.445,28.878,2.009C22.258,6.263,18,12.832,18,20.277
				c0,5.646,3.73,13.09,8.143,19.216c0.579,0.804,0.565,1.501-0.554,13.96C25.258,57.138,25.781,60.308,27.045,62.917z"/>
			<path id="Combined-Shape_5_" fill="#222222" d="M65.837,61.988c0.8,1.208,1.656,2.403,2.567,3.582h10.257
				c11.655-9.976,16.448-18.893,14.381-26.75C89.942,27.034,72.074,0.671,64.28,2.052c-0.094,0.081-0.188,0.161-0.28,0.24
				c6.4,4.26,10.473,10.704,10.473,17.985c0,5.646-3.73,13.09-8.143,19.216c-0.579,0.804-0.565,1.501,0.554,13.96
				C67.177,56.711,66.802,59.567,65.837,61.988L65.837,61.988z"/>
			<path id="Combined-Shape_6_" fill="#222222" d="M45,0c0.089,0,2.091,0,2.179,0c13.404,0.747,24,9.537,24,20.276
				c0,5.974-5.449,14.509-7.577,17.463c-1.418,1.969-1.052,4.262,0,15.981c1.052,11.72-7.883,14.272-12.302,14.272
				c-1.391,0-3.446-2.764-5.21-2.764c-1.971,0-3.657,2.764-5.211,2.764c-4.418,0-13.354-2.553-12.302-14.272
				c1.052-11.72,1.418-14.012,0-15.981C26.449,34.786,21,26.251,21,20.277C21,9.537,31.596,0.748,45,0z M45.989,61.87
				c1.587,0,4.789-3.859,4.789-4.809c0-1.138-1.287-2.061-2.874-2.061c-0.736,0-3.095,0-3.832,0c-1.587,0-2.873,0.923-2.873,2.061
				C41.2,58.011,44.402,61.87,45.989,61.87z"/>
		</g>
	</g>
</g>
</svg>
