<?xml version="1.0" encoding="UTF-8"?>
<svg width="100px" height="92px" viewBox="0 0 100 92" version="1.1" xmlns="http://www.w3.org/2000/svg" xmlns:xlink="http://www.w3.org/1999/xlink">
    <!-- Generator: Sketch 40.3 (33839) - http://www.bohemiancoding.com/sketch -->
    <title>brand_symbol</title>
    <desc>Created with Sketch.</desc>
    <defs></defs>
    <g id="Page-1" stroke="none" stroke-width="1" fill="none" fill-rule="evenodd">
        <g id="brand_symbol">
            <path d="M52.2637255,59.6942979 L55.9594771,59.6942979 C57.2862745,59.6942979 57.9970588,58.9847234 57.9970588,57.7078156 C57.9970588,56.4543972 57.0019608,55.8867376 55.7699346,55.8867376 L52.2637255,55.8867376 L52.2637255,59.6942979 L52.2637255,59.6942979 Z M47.8571895,52.3630071 L56.480719,52.3630071 C59.4656863,52.3630071 62.4035948,53.7107092 62.4035948,57.1166667 C62.4035948,58.9377447 61.5267974,60.6642128 59.75,61.3499716 L59.75,61.3972766 C61.5506536,61.8230213 62.0715686,63.8333191 62.2140523,65.4413617 C62.2614379,66.1509362 62.3323529,68.6346099 62.9245098,69.2492482 L58.5653595,69.2492482 C58.1862745,68.6815887 58.1153595,67.0262411 58.0679739,66.5531915 C57.9496732,64.8502128 57.6653595,63.1002553 55.6039216,63.1002553 L52.2637255,63.1002553 L52.2637255,69.2492482 L47.8571895,69.2492482 L47.8571895,52.3630071 L47.8571895,52.3630071 Z" id="Fill-1" fill="#FFFFFF"></path>
            <polyline id="Fill-2" fill="#FFFFFF" points="64.4885621 52.3630071 77.9689542 52.3630071 77.9689542 55.8867376 68.895098 55.8867376 68.895098 58.8431348 77.1869281 58.8431348 77.1869281 62.248766 68.895098 62.248766 68.895098 65.4651773 78.2058824 65.4651773 78.2058824 69.2492482 64.4885621 69.2492482 64.4885621 52.3630071"></polyline>
            <path d="M84.6506536,65.4651773 L86.7352941,65.4651773 C90.0761438,65.394383 91.4022876,64.0936596 91.4022876,60.7111915 C91.4022876,57.6370213 89.7441176,56.1467518 86.7352941,56.1467518 L84.6506536,56.1467518 L84.6506536,65.4651773 L84.6506536,65.4651773 Z M80.2441176,52.3630071 L87.5173203,52.3630071 C92.7058824,52.3630071 95.8091503,55.5082979 95.8091503,60.7353333 C95.8091503,66.2693617 92.6581699,69.2492482 87.5173203,69.2492482 L80.2441176,69.2492482 L80.2441176,52.3630071 L80.2441176,52.3630071 Z" id="Fill-3" fill="#FFFFFF"></path>
            <polyline id="Fill-4" fill="#FFFFFF" points="47.8571895 70.9845248 52.2637255 70.9845248 52.2637255 84.0870213 60.1526144 84.0870213 60.1526144 87.870766 47.8571895 87.870766 47.8571895 70.9845248"></polyline>
            <polygon id="Fill-5" fill="#FFFFFF" points="61.3852941 87.870766 65.7918301 87.870766 65.7918301 70.9845248 61.3852941 70.9845248"></polygon>
            <path d="M71.3356209,82.1948227 C71.4300654,84.181305 72.6620915,84.8200851 74.5336601,84.8200851 C75.8604575,84.8200851 77.2346405,84.3470355 77.2346405,83.093617 C77.2346405,81.6033475 74.8179739,81.3195177 72.3781046,80.6337589 C69.9614379,79.9476738 67.4264706,78.8599858 67.4264706,75.7616738 C67.4264706,72.0722128 71.1460784,70.6295745 74.3205882,70.6295745 C77.6846405,70.6295745 81.072549,72.2614326 81.0960784,76.0693191 L76.6895425,76.0693191 C76.7607843,74.5320709 75.3156863,74.0352057 73.9653595,74.0352057 C73.0176471,74.0352057 71.8330065,74.3663404 71.8330065,75.477844 C71.8330065,76.7785674 74.2728758,77.0150922 76.7369281,77.7011773 C79.1771242,78.3869362 81.6411765,79.5222553 81.6411765,82.5729362 C81.6411765,86.8538723 77.9928105,88.2257163 74.2728758,88.2257163 C70.3879085,88.2257163 66.9526144,86.5230638 66.929085,82.1948227 L71.3356209,82.1948227" id="Fill-6" fill="#FFFFFF"></path>
            <polyline id="Fill-7" fill="#FFFFFF" points="95.5718954 74.7682695 90.525817 74.7682695 90.525817 87.870766 86.119281 87.870766 86.119281 74.7682695 81.0732026 74.7682695 81.0732026 70.9845248 95.5718954 70.9845248 95.5718954 74.7682695"></polyline>
            <path d="M80.5594771,12.8565106 C77.1630719,16.1309929 76.4336601,20.8735603 78.9281046,23.4528227 C81.424183,26.0317589 86.2003268,25.4670355 89.5947712,22.1935319 C92.9905229,18.9197021 93.7212418,14.1748511 91.2248366,11.5975461 C88.730719,9.01828369 83.9535948,9.58398582 80.5594771,12.8565106" id="Fill-8" fill="#FFFFFF"></path>
            <path d="M77.8421569,28.7751206 C74.4490196,32.0486241 73.7196078,36.7924965 76.2140523,39.3701277 C78.7098039,41.9493901 83.4839869,41.3853191 86.8771242,38.1114894 C90.2745098,34.8373333 91.0029412,30.093461 88.5078431,27.5128936 C86.0153595,24.9352624 81.2392157,25.5009645 77.8421569,28.7751206" id="Fill-9" fill="#FFFFFF"></path>
            <path d="M54.5163399,5.48704965 C51.120915,8.76185816 50.3918301,13.505078 52.8869281,16.0849929 C55.3813725,18.6629504 60.1581699,18.0988794 63.5519608,14.8243972 C66.9457516,11.5505674 67.675817,6.80473759 65.1813725,4.22743262 C62.6875817,1.64914894 57.9101307,2.21158865 54.5163399,5.48704965" id="Fill-10" fill="#FFFFFF"></path>
            <path d="M70.5875817,2.97499291 C67.1924837,6.2504539 66.4624183,10.9933475 68.9555556,13.571305 C71.4529412,16.1495887 76.227451,15.5871489 79.6228758,12.3123404 C83.0173203,9.0381844 83.7477124,4.29170213 81.2513072,1.71537589 C78.7581699,-0.863886525 73.9826797,-0.297858156 70.5875817,2.97499291" id="Fill-12" fill="#FFFFFF"></path>
            <path d="M73.6647059,31.9638014 C73.6647059,39.3277163 67.6833333,45.3002128 60.304902,45.3002128 C52.9264706,45.3002128 46.945098,39.3277163 46.945098,31.9638014 C46.945098,24.5982553 52.9264706,18.6273901 60.304902,18.6273901 C67.6833333,18.6273901 73.6647059,24.5982553 73.6647059,31.9638014" id="Fill-14" fill="#FFFFFF"></path>
            <path d="M42.6362745,23.9780709 C42.6362745,35.7253617 33.0957516,45.2447518 21.3323529,45.2447518 C9.56764706,45.2447518 0.0307189542,35.7253617 0.0307189542,23.9780709 C0.0307189542,12.2353475 9.56764706,2.714 21.3323529,2.714 L42.6630719,2.714 L42.6362745,23.9780709" id="Fill-15" fill="#FFFFFF"></path>
            <path d="M42.869281,70.6024965 C42.869281,82.4202553 33.2715686,92 21.4333333,92 C9.59705882,92 0,82.4202553 0,70.6024965 C0,58.7824539 9.59705882,49.2033617 21.4333333,49.2033617 C33.2715686,49.2033617 42.869281,58.7824539 42.869281,70.6024965" id="Fill-17" fill="#FFFFFF"></path>
            <polygon id="Fill-19" fill="#DA2A1C" points="11.8771242 72.855844 12.8261438 72.855844 12.8261438 68.5471773 11.8771242 68.5471773"></polygon>
            <path d="M16.7130719,72.5269929 C16.3866013,72.8104965 15.9352941,72.9524113 15.3588235,72.9524113 C14.7745098,72.9524113 14.3222222,72.8114752 14.0019608,72.5299291 C13.6813725,72.2487092 13.5212418,71.814156 13.5212418,71.2265957 L13.5212418,68.5471773 L14.4702614,68.5471773 L14.4702614,71.2265957 C14.4702614,71.3430638 14.4803922,71.4579007 14.5006536,71.5707801 C14.520915,71.6830071 14.5630719,71.7828369 14.627451,71.8692908 C14.6918301,71.9554184 14.7816993,72.0262128 14.8964052,72.0803688 C15.0114379,72.1345248 15.1656863,72.1619291 15.3588235,72.1619291 C15.6977124,72.1619291 15.9310458,72.0865674 16.0601307,71.935844 C16.1892157,71.7847943 16.2535948,71.5482695 16.2535948,71.2265957 L16.2535948,68.5471773 L17.2029412,68.5471773 L17.2029412,71.2265957 C17.2029412,71.8099149 17.0395425,72.2434894 16.7130719,72.5269929" id="Fill-20" fill="#DA2A1C"></path>
            <path d="M20.6666667,69.6965248 C20.6101307,69.606156 20.5398693,69.5265532 20.4552288,69.4583688 C20.3702614,69.3898582 20.2745098,69.3366809 20.1679739,69.2985106 C20.0611111,69.2603404 19.9493464,69.2410922 19.8323529,69.2410922 C19.6189542,69.2410922 19.4375817,69.2825248 19.2882353,69.3647376 C19.1392157,69.4472766 19.0183007,69.5578723 18.925817,69.6965248 C18.8330065,69.8355035 18.7653595,69.9937305 18.7232026,70.1705532 C18.6810458,70.3473759 18.6598039,70.5303972 18.6598039,70.7192908 C18.6598039,70.9006809 18.6810458,71.0768511 18.7232026,71.2474752 C18.7653595,71.4187518 18.8330065,71.5724113 18.925817,71.7091064 C19.0183007,71.8458014 19.1392157,71.9554184 19.2882353,72.0382837 C19.4375817,72.1204965 19.6189542,72.1619291 19.8323529,72.1619291 C20.122549,72.1619291 20.3493464,72.0735177 20.5127451,71.8963688 C20.675817,71.7192199 20.7754902,71.4859574 20.8117647,71.1962553 L21.730719,71.1962553 C21.7065359,71.4657305 21.6437908,71.7091064 21.5431373,71.926383 C21.4424837,72.1436596 21.3094771,72.3289645 21.1444444,72.4819716 C20.979085,72.6346525 20.7856209,72.7514468 20.5640523,72.8317021 C20.3424837,72.9119574 20.098366,72.9524113 19.8323529,72.9524113 C19.5019608,72.9524113 19.204902,72.8949929 18.9408497,72.7804823 C18.6767974,72.6659716 18.4542484,72.5080709 18.2728758,72.3064539 C18.0915033,72.1054894 17.9526144,71.8692908 17.8558824,71.5975319 C17.7591503,71.3260993 17.7107843,71.033461 17.7107843,70.7192908 C17.7107843,70.397617 17.7591503,70.0991064 17.8558824,69.8234326 C17.9526144,69.5477589 18.0915033,69.3073191 18.2728758,69.1021135 C18.4542484,68.8969078 18.6767974,68.7360709 18.9408497,68.6196028 C19.204902,68.5024823 19.5019608,68.4447376 19.8323529,68.4447376 C20.0702614,68.4447376 20.2947712,68.4786667 20.5065359,68.5471773 C20.7179739,68.6153617 20.9075163,68.7151915 21.0748366,68.8456879 C21.2418301,68.9765106 21.3800654,69.1383262 21.4888889,69.331461 C21.5977124,69.5245957 21.6660131,69.7457872 21.6944444,69.9953617 L20.7754902,69.9953617 C20.7591503,69.8863972 20.7232026,69.7872199 20.6666667,69.6965248" id="Fill-21" fill="#DA2A1C"></path>
            <polyline id="Fill-22" fill="#DA2A1C" points="23.1996732 68.5471773 25.0009804 71.4373475 25.0130719 71.4373475 25.0130719 68.5471773 25.901634 68.5471773 25.901634 72.855844 24.9526144 72.855844 23.1571895 69.9712199 23.145098 69.9712199 23.145098 72.855844 22.2565359 72.855844 22.2565359 68.5471773 23.1996732 68.5471773"></polyline>
            <path d="M20.9183007,75.2116312 C20.8392157,75.2980851 20.7578431,75.3835603 20.6751634,75.467078 C19.4251634,76.7139716 17.703268,77.4839007 15.7973856,77.4839007 C13.8895425,77.4839007 12.1686275,76.7139716 10.9176471,75.467078 C9.66797386,74.2188794 8.89771242,72.5002411 8.89705882,70.5962979 C8.89771242,68.6930071 9.66797386,66.9733901 10.9176471,65.725844 C12.1686275,64.4786241 13.8895425,63.7090213 15.7973856,63.7077163 C17.703268,63.7090213 19.4251634,64.4786241 20.6751634,65.725844 C20.8199346,65.8697163 20.9565359,66.0201135 21.0872549,66.1767092 L23.9039216,66.1767092 C22.3366013,63.3106809 19.2911765,61.3679149 15.7901961,61.3666099 C10.6872549,61.3679149 6.55130719,65.4961702 6.55065359,70.5914043 C6.55130719,75.6856596 10.6872549,79.8145674 15.7901961,79.8145674 C19.2062092,79.8145674 22.1895425,77.9634752 23.7879085,75.2116312 L20.9183007,75.2116312" id="Fill-23" fill="#DA2A1C"></path>
            <path d="M98.7284314,54.1087234 C98.6232026,54.6972624 98.1764706,55.0626525 97.630719,55.0626525 C96.8366013,55.0626525 96.3156863,54.4617163 96.3156863,53.663078 C96.3156863,52.9137021 96.8117647,52.3375603 97.6183007,52.3316879 C98.1826797,52.3316879 98.6418301,52.6598865 98.722549,53.266695 L98.3006536,53.266695 C98.2385621,52.9505674 97.9718954,52.7339433 97.6183007,52.7339433 C97.0970588,52.7339433 96.8117647,53.148922 96.8117647,53.663078 C96.8117647,54.2017021 97.1281046,54.6600709 97.630719,54.6600709 C97.996732,54.6600709 98.2571895,54.4307234 98.3006536,54.1087234 L98.7284314,54.1087234 L98.7284314,54.1087234 Z M97.5558824,51.7496738 C96.5513072,51.7496738 95.7696078,52.5359149 95.7696078,53.663078 C95.7696078,54.7158582 96.4522876,55.5764823 97.5558824,55.5764823 C98.5486928,55.5764823 99.3303922,54.7964397 99.3303922,53.663078 C99.3303922,52.5359149 98.5486928,51.7496738 97.5558824,51.7496738 L97.5558824,51.7496738 Z M97.5558824,55.9790638 C96.2222222,55.9790638 95.2732026,54.9820709 95.2732026,53.663078 C95.2732026,52.2693759 96.3281046,51.346766 97.5558824,51.346766 C98.7718954,51.346766 99.8267974,52.2693759 99.8267974,53.663078 C99.8267974,55.0561277 98.7718954,55.9790638 97.5558824,55.9790638 L97.5558824,55.9790638 Z" id="Fill-24" fill="#FFFFFF"></path>
        </g>
    </g>
</svg>