<svg xmlns="http://www.w3.org/2000/svg" xmlns:xlink="http://www.w3.org/1999/xlink" width="907" height="651" version="1.1" viewBox="0 0 907 651" style="background:#fff"><defs><linearGradient id="linearGradient-1" x1="50%" x2="50%" y1="0%" y2="98.603%"><stop offset="0%" stop-color="#F63"/><stop offset="100%" stop-color="#FF0E83"/></linearGradient></defs><g id="MXM-Logos" fill="none" fill-rule="evenodd" stroke="none" stroke-width="1"><g id="Mark-with-Circle-Shape-on-light"><g id="Oval-1-+-MXM-LOGO" transform="translate(215.000000, 87.000000)"><circle id="Oval-1" cx="238.5" cy="238.5" r="238.5" fill="url(#linearGradient-1)"/><g id="MXM-LOGO" fill="#FFF" transform="translate(111.000000, 120.000000)"><path id="Imported-Layers" fill-opacity=".7" d="M212.821991,6.42903225 L127.732757,72.1272823 C127.488505,72.315872 127,72.6930513 127,72.6930513 L40.374965,7.00503089 C35.6000618,3.29772405 30.0423964,1.63214623 24.6085269,1.6315987 C11.9840924,1.62995612 0.0180763804,10.6165205 0.0180763804,23.8644892 L0.0180763804,73.6801587 L0,221.766562 C0,235.013436 11.9671116,244 24.5904506,244 C30.0254156,244 35.5814376,242.334422 40.3568886,238.62602 L127,172.362549 C170.111619,205.836994 212.803914,238.62602 212.803914,238.62602 C217.578818,242.333327 223.137031,244 228.570352,244 C241.195335,244 254,235.014537 254,221.766568 L254,73.680157 L254,22.8583026 C254,9.61142895 241.211768,1.05560006 228.588429,1.05560006 C223.153464,1.05560006 217.597442,2.72117788 212.821991,6.42903225 Z"/><polygon id="Fill-3-Copy" fill-opacity=".6" points="63.427 122.625 127 172.363 190.166 122.611 127 72.693"/><polyline id="Fill-4-Copy" fill-opacity=".6" points=".031 73.503 .031 171.747 63.427 122.625 .031 73.503"/><polyline id="Fill-5-Copy" fill-opacity=".6" points="190.166 122.611 254 172.363 254 72.693 190.166 122.611"/><path id="Fill-6-Copy" d="M211.666667,7.28494355 L127,72.6930535 L190.166265,122.610827 L254,72.6930535 L254,22.8583027 C254,3.9215303 229.809523,-8.28841522 211.666667,7.28494355 Z"/><path id="Fill-7-Copy" d="M40.4617731,6.61522488 C24.571838,-5.69710531 0.0486302528,4.52663428 0.0486302528,23.4634067 L0.0486302528,73.5032949 L63.4274099,122.624819 L127.000006,72.693049 L40.4617731,6.61522488 Z"/></g></g></g></g></svg>