<?xml version="1.0" ?><!DOCTYPE svg  PUBLIC '-//W3C//DTD SVG 1.1//EN'  'http://www.w3.org/Graphics/SVG/1.1/DTD/svg11.dtd'><svg height="512px" style="enable-background:new 0 0 512 512;" version="1.1" viewBox="0 0 512 512" width="512px" xml:space="preserve" xmlns="http://www.w3.org/2000/svg" xmlns:xlink="http://www.w3.org/1999/xlink"><g id="_x33_12-soundcloud"><g><path d="M106.083,256.18l4.169,46.728l-4.169,49.097c-0.216,1.798-1.582,3.163-3.164,3.163    c-1.581,0-3.019-1.365-3.019-3.163l-4.026-49.097L99.9,256.18c0-1.58,1.366-3.02,3.019-3.02    C104.501,253.16,105.867,254.6,106.083,256.18z M121.466,223.399c-2.013,0-3.379,1.582-3.594,3.595l-3.594,75.913l3.594,49.097    c0.215,2.014,1.581,3.595,3.594,3.595c1.798,0,3.378-1.581,3.378-3.595l4.17-49.097l-4.17-75.913    C124.844,224.981,123.264,223.399,121.466,223.399z M139.797,206.076c-2.229,0-3.811,1.581-4.025,3.81l-3.163,93.452l3.163,48.738    c0.215,2.227,1.797,3.81,4.025,3.81c2.013,0,3.811-1.583,3.811-3.81l3.81-48.738l-3.81-93.453    C143.607,207.657,141.81,206.076,139.797,206.076z M31.177,275.517c-1.006,0-1.581,0.792-1.797,1.798l-3.379,25.593l3.379,25.159    c0.216,1.005,0.791,1.797,1.797,1.797c1.008,0,1.581-0.792,1.798-1.797l4.026-25.159l-4.026-25.593    C32.758,276.309,32.185,275.517,31.177,275.517z M48.143,259.772c-1.008,0-1.798,0.793-1.798,1.799l-4.601,41.336l4.601,40.326    c0,1.225,0.79,2.012,1.798,2.012c1.006,0,1.797-0.787,2.013-1.798l5.175-40.54l-5.175-41.336    C49.939,260.565,49.148,259.772,48.143,259.772z M66.329,251.579c-1.222,0-2.228,1.007-2.372,2.372l-4.169,48.956l4.169,47.3    c0.216,1.222,1.223,2.228,2.372,2.228c1.223,0,2.229-1.006,2.229-2.228l4.961-47.3l-4.961-48.956    C68.558,252.586,67.552,251.579,66.329,251.579L66.329,251.579z M84.517,249.997c-1.366,0-2.587,1.008-2.587,2.589l-4.171,50.321    l4.171,48.738c0,1.579,1.221,2.586,2.587,2.586s2.588-1.007,2.805-2.586l4.6-48.738l-4.6-50.321    C87.104,251.005,85.883,249.997,84.517,249.997z M258.049,170.276c-0.791-0.575-2.013-1.007-3.02-1.007    c-1.581,0-3.02,0.576-4.024,1.365c-1.367,1.223-2.229,3.02-2.373,4.816v0.576l-2.372,127.021l1.223,23.364l1.222,22.786    c0.216,3.379,3.019,6.183,6.397,6.183s6.183-2.804,6.183-6.183l2.805-46.15l-2.805-127.598    C260.997,173.295,259.847,171.282,258.049,170.276L258.049,170.276z M238.855,181.275c-1.007-0.576-2.013-1.008-3.163-1.008    s-2.229,0.432-3.163,1.008c-1.581,1.006-2.588,2.803-2.588,4.815l-0.216,1.222l-2.013,115.595c0,0,0,0.213,2.229,47.154v0.217    c0,1.223,0.432,2.372,1.223,3.378c1.222,1.367,2.803,2.229,4.6,2.229c1.582,0,3.02-0.79,4.026-1.798    c1.223-1.006,1.797-2.371,1.797-4.026l0.217-4.816l2.228-42.125l-2.372-117.029C241.444,184.078,240.438,182.281,238.855,181.275    L238.855,181.275z M158.773,197.448c-2.227,0-4.169,2.014-4.169,4.385l-3.162,101.074l3.162,48.306    c0.216,2.372,2.014,4.169,4.169,4.169c2.373,0,4.171-1.797,4.387-4.169l3.593-48.306l-3.593-101.074    C163.016,199.462,161.219,197.448,158.773,197.448L158.773,197.448z M429.568,242.593c-7.763,0-15.167,1.582-21.997,4.385    c-4.602-50.896-47.3-90.863-99.418-90.863c-12.795,0-25.161,2.372-36.157,6.759c-4.386,1.581-5.608,3.162-5.608,6.612v179.5    c0,3.593,2.803,6.182,6.181,6.613h156.93c31.125,0,56.501-25.161,56.501-56.286C486.07,267.968,460.695,242.593,429.568,242.593    L429.568,242.593z M216.283,199.246c-3.02,0-5.391,2.372-5.606,5.607l-2.373,98.267l2.373,47.158    c0.216,3.02,2.587,5.391,5.606,5.391s5.392-2.371,5.392-5.391l2.804-47.158l-2.804-98.267    C221.459,201.618,219.303,199.246,216.283,199.246L216.283,199.246z M177.752,193.639c-2.372,0-4.601,2.229-4.601,4.817    l-2.804,104.451l2.804,48.091c0.216,2.587,2.229,4.601,4.601,4.601c2.588,0,4.603-2.014,4.816-4.601l3.163-48.091l-3.163-104.451    C182.354,195.868,180.34,193.639,177.752,193.639z M196.946,196.082c-2.804,0-4.96,2.229-4.96,4.961l-2.804,101.864l2.804,47.729    c0.215,2.806,2.229,4.962,4.96,4.962s4.96-2.228,4.96-4.962l3.02-47.729l-3.02-101.864    C201.906,198.239,199.75,196.082,196.946,196.082L196.946,196.082z" style="fill:#F7620E;"/></g></g><g id="Layer_1"/></svg>