<svg xmlns="http://www.w3.org/2000/svg" xmlns:xlink="http://www.w3.org/1999/xlink" id="Capa_1" x="0" y="0" version="1.1" viewBox="0 0 512 512" xml:space="preserve" style="enable-background:new 0 0 512 512"><path style="fill:#00bdc6" d="M327.487,324.511v-29.045l-63.355,63.355V131.799l92.4,1.506L366.355,211 c0.798,6.306,1.142,12.612,1.061,18.888C366.952,265.168,352.803,299.195,327.487,324.511z"/><path style="fill:#00a2a9" d="M367.416,229.888c-3.658,1.193-7.569,1.839-11.622,1.839c-4.245,0-8.368-0.707-12.329-2.082 c-4.77,21.101-13.754,40.505-26.427,56.554c-14.634,18.534-32.895,31.066-52.905,36.604V131.799l92.4,1.506L366.355,211 C367.154,217.306,367.497,223.612,367.416,229.888z"/><path style="fill:#c8d6d5" d="M193.734,38.379v144.709h-78.817v-80.465c0-27.731,17.564-51.349,42.173-60.353 c6.882-2.516,14.31-3.891,22.072-3.891H193.734z"/><path style="fill:#afc3c3" d="M193.734,38.379v144.709h-78.817V157.67c3.113-0.839,6.377-1.283,9.752-1.283 c2.88,0,5.68,0.344,8.378,0.95v-9.328c0-14.664,5.447-28.701,15.331-39.525c1.374-1.496,2.81-2.921,4.315-4.255 c-2.547-8.095-3.911-16.665-3.911-25.477c0-13.057,2.981-25.437,8.307-36.483c6.882-2.516,14.31-3.891,22.072-3.891h14.573V38.379z"/><path style="fill:#fc4747" d="M370.741,450.23v54.27H109.722v-54.27c0-31.501,11.167-60.394,29.752-82.95 c2.021-2.466,4.144-4.861,6.347-7.165c1.203-1.263,2.436-2.496,3.689-3.709c0.051-0.051,0.111-0.101,0.162-0.152 c1.839-1.779,3.739-3.497,5.69-5.164c6.013-5.154,12.511-9.773,19.394-13.775c19.252-11.197,41.617-17.595,65.477-17.595 s46.225,6.397,65.467,17.595c6.771,3.921,13.158,8.449,19.08,13.481c2.122,1.809,4.174,3.679,6.175,5.609 c0.263,0.263,0.536,0.526,0.798,0.778l0.758,0.758c0.617,0.616,1.233,1.243,1.819,1.869c2.324,2.405,4.538,4.891,6.66,7.458 C359.574,389.827,370.741,418.71,370.741,450.23z"/><path style="fill:#e20f0a" d="M334.329,359.811c-0.091,0.111-0.192,0.222-0.303,0.323l-84.547,83.719 c-5.104,5.053-13.32,5.073-18.444,0.04h-0.01c-0.495-0.485-50.096-49.166-84.881-83.446c-0.111-0.111-0.222-0.222-0.323-0.334 c1.203-1.263,2.436-2.496,3.689-3.709c0.051-0.051,0.111-0.101,0.162-0.152c1.839-1.779,3.739-3.497,5.69-5.164 c6.013-5.154,12.511-9.773,19.394-13.775c19.252-11.197,41.617-17.595,65.477-17.595s46.225,6.397,65.467,17.595 c6.771,3.921,13.158,8.449,19.08,13.481c2.122,1.809,4.174,3.679,6.175,5.609c0.263,0.263,0.536,0.526,0.798,0.778l0.758,0.758 C333.127,358.558,333.743,359.185,334.329,359.811z"/><path style="fill:#385f82" d="M324.779,350.797c-43.557,43.133-84.547,83.719-84.547,83.719s-49.691-48.762-84.871-83.426 c6.013-5.154,12.511-9.773,19.394-13.775c19.252-11.197,41.617-17.595,65.477-17.595s46.225,6.397,65.467,17.595 C312.47,341.237,318.857,345.764,324.779,350.797z"/><g><path style="fill:#4e7693" d="M149.672,356.254V504.5h-39.949v-54.27c0-31.501,11.167-60.394,29.752-82.95 c3.123-3.81,6.488-7.448,10.035-10.874C149.56,356.355,149.621,356.305,149.672,356.254z"/><path style="fill:#4e7693" d="M370.741,450.23v54.27h-38.989V357.184l0.758,0.758c2.981,2.981,5.801,6.084,8.479,9.328 C359.574,389.827,370.741,418.71,370.741,450.23z"/></g><path style="fill:#fecbaa" d="M305.703,337.313c-28.038,27.817-65.472,63.723-65.472,63.723s-37.434-35.906-65.472-63.723 c19.245-11.195,41.615-17.597,65.472-17.597S286.459,326.118,305.703,337.313z"/><path style="fill:#ffae85" d="M305.703,337.314c-28.038,27.817-65.472,63.723-65.472,63.723s-37.434-35.906-65.472-63.723 c4.07-2.362,8.271-4.522,12.602-6.442c21.134,20.863,46.298,45.695,52.87,52.036c7.587-7.316,33.676-33.012,52.96-51.996 C297.493,332.822,301.663,334.962,305.703,337.314z"/><rect style="fill:#fecbaa" width="59.653" height="65.46" x="210.409" y="274.57"/><path style="fill:#ffae85" d="M270.058,274.575v46.288c-9.557,3.377-19.576,5.125-29.827,5.125s-20.27-1.749-29.827-5.125v-46.288 H270.058z"/><path style="fill:#fecbaa" d="M380.32,194.059c0,13.547-10.984,24.531-24.531,24.531c-3.568,0-6.944-0.764-9.999-2.13 c-8.562-3.829-14.521-12.421-14.521-22.4c0-10.572,6.693-19.586,16.069-23.033c2.633-0.965,5.477-1.497,8.452-1.497 C369.336,169.529,380.32,180.513,380.32,194.059z"/><path style="fill:#ffae85" d="M347.338,171.026v22.852c0,7.648-0.523,15.195-1.548,22.581c-8.562-3.829-14.521-12.421-14.521-22.4 C331.269,183.487,337.962,174.473,347.338,171.026z"/><path style="fill:#fecbaa" d="M149.194,194.059c0,9.979-5.959,18.571-14.521,22.4c-3.055,1.367-6.432,2.13-9.999,2.13 c-13.547,0-24.531-10.984-24.531-24.531c0-13.547,10.984-24.531,24.531-24.531c2.975,0,5.819,0.533,8.452,1.497 C142.501,174.473,149.194,183.487,149.194,194.059z"/><path style="fill:#ffae85" d="M149.194,194.059c0,9.979-5.959,18.571-14.521,22.4c-1.025-7.386-1.548-14.933-1.548-22.581v-22.852 C142.501,174.473,149.194,183.487,149.194,194.059z"/><path style="fill:#fecbaa" d="M334.269,148.009v45.871c0,65.74-42.102,119.039-94.037,119.039s-94.047-53.299-94.047-119.039 v-45.871c0-11.814,4.507-22.577,11.895-30.662c8.307-9.106,20.283-14.815,33.582-14.815h97.129 C313.915,102.532,334.269,122.885,334.269,148.009z"/><path style="fill:#ffae85" d="M334.269,148.009v15.614c-29.883-4.234-58.847-13.471-85.74-27.388v12.309 c0,10.318-8.388,18.716-18.706,18.716c-2.486,0-4.912-0.485-7.216-1.455l-21.981-9.186c-18.817-7.862-33.653-21.94-42.546-39.272 c8.307-9.106,20.283-14.815,33.582-14.815h97.129C313.915,102.532,334.269,122.885,334.269,148.009z"/><path style="fill:#fc4747" d="M240.231,266.713c10.142,0,18.594-9.093,20.577-21.188h-41.154 C221.638,257.619,230.089,266.713,240.231,266.713"/><path style="fill:#00d8e0" d="M161.919,78.755L161.919,78.755c0-39.353,31.902-71.255,71.255-71.255h142.113 c4.633,0,7.241,5.327,4.4,8.987l-27.009,34.794h53.605c4.908,0,7.418,5.888,4.018,9.429l-53.339,55.557l19.67,28.114 c2.583,3.692-0.058,8.764-4.564,8.764l0,0c-48.385,0-95.777-13.722-136.676-39.574l0,0v34.977c0,3.978-4.049,6.674-7.719,5.14 l-21.984-9.191C179.178,133.412,161.919,107.49,161.919,78.755z"/><g><path style="fill:#98f4f4" d="M379.685,16.489l-6.619,8.529H233.178c-36.382,0-66.407,27.276-70.722,62.496 c-0.354-2.88-0.536-5.811-0.536-8.762c0-39.353,31.905-71.248,71.258-71.248h142.111C379.918,7.504,382.525,12.83,379.685,16.489z"/><circle style="fill:#98f4f4" cx="116.939" cy="223.58" r="12.976"/></g><path d="M370.742,459.289c-4.143,0-7.5,3.358-7.5,7.5v37.708c0,4.142,3.357,7.5,7.5,7.5s7.5-3.358,7.5-7.5v-37.708 C378.242,462.647,374.885,459.289,370.742,459.289z"/><path d="M260.809,238.024h-41.154c-2.201,0-4.292,0.967-5.716,2.645s-2.041,3.897-1.685,6.069 c2.611,15.919,14.377,27.474,27.978,27.474s25.367-11.555,27.979-27.474c0.356-2.172-0.26-4.392-1.685-6.069 C265.1,238.991,263.01,238.024,260.809,238.024z M240.231,259.212c-3.819,0-7.382-2.364-9.892-6.188h19.785 C247.614,256.849,244.051,259.212,240.231,259.212z"/><path d="M418.308,51.727c-2.058-4.827-6.777-7.946-12.024-7.946h-38.288l17.617-22.695c3.083-3.973,3.625-9.247,1.413-13.763 C384.814,2.806,380.316,0,375.287,0H253.683c-4.142,0-7.5,3.358-7.5,7.5s3.358,7.5,7.5,7.5h117.664l-24.593,31.682 c-1.756,2.262-2.07,5.326-0.811,7.897s3.872,4.202,6.735,4.202h49.078l-50.204,52.292c-2.48,2.583-2.788,6.56-0.735,9.494 l17.527,25.05c-45.729-0.683-90.238-13.919-128.945-38.386c-2.31-1.46-5.232-1.549-7.626-0.229 c-2.394,1.319-3.881,3.835-3.881,6.569v32.078l-19.31-8.073c-23.791-9.946-39.163-33.035-39.163-58.821 c0-30.453,21.667-56.767,51.518-62.568c4.066-0.79,6.722-4.727,5.932-8.793c-0.791-4.067-4.731-6.72-8.793-5.932 c-19.654,3.82-36.433,14.835-47.824,29.982c-35.89,4.445-62.837,34.864-62.837,71.181v64.471 c-8.876,5.701-14.773,15.652-14.773,26.962c0,7.105,2.295,13.841,6.53,19.384c-1.716,2.994-2.712,6.451-2.712,10.142 c0,11.291,9.186,20.476,20.477,20.476s20.476-9.186,20.476-20.476c0-0.042-0.006-0.083-0.006-0.126 c1.28-0.553,2.515-1.191,3.706-1.903c4.08,22.944,13.229,44.046,26.739,61.15c10.116,12.806,22.032,22.579,35.056,28.966v5.66 c-59.486,16.635-100.686,70.705-100.686,132.895v54.271c0,4.142,3.358,7.5,7.5,7.5s7.5-3.358,7.5-7.5v-54.271 c0-27.686,9.177-53.554,24.951-74.374V504.5c0,4.142,3.358,7.5,7.5,7.5s7.5-3.358,7.5-7.5V363.4 c34.052,33.53,77.343,76.013,77.808,76.469c1.459,1.432,3.356,2.147,5.253,2.147c1.908,0,3.816-0.724,5.277-2.17l78.743-77.971 V504.5c0,4.142,3.357,7.5,7.5,7.5s7.5-3.358,7.5-7.5V377.264c12.242,16.564,20.1,35.821,22.87,56.351 c0.508,3.765,3.727,6.498,7.423,6.498c0.334,0,0.673-0.022,1.013-0.068c4.104-0.554,6.983-4.331,6.43-8.436 c-3.714-27.522-15.54-53.02-34.202-73.733c-4.032-4.476-8.334-8.64-12.85-12.514c-0.189-0.18-0.385-0.347-0.587-0.503 c-7.488-6.352-15.593-11.857-24.2-16.449l14.842-14.841v10.939c0,3.034,1.827,5.768,4.63,6.929c2.803,1.161,6.03,0.519,8.174-1.626 c10.424-10.424,19.158-22.359,25.96-35.473c1.907-3.677,0.473-8.204-3.204-10.111c-3.674-1.906-8.204-0.473-10.11,3.204 c-3.058,5.894-6.549,11.521-10.449,16.844v-8.813c0-3.033-1.827-5.768-4.63-6.929s-6.028-0.519-8.174,1.626l-31.563,31.563 c-4.266-1.67-8.622-3.138-13.066-4.382v-5.669c13.023-6.388,24.94-16.16,35.056-28.966c13.514-17.108,22.664-38.215,26.742-61.165 c4.899,2.93,10.56,4.546,16.438,4.546c1.39,0,2.756-0.099,4.099-0.271c0.162,9.329-0.68,18.664-2.542,27.851 c-0.822,4.06,1.802,8.018,5.861,8.84c0.503,0.102,1.003,0.151,1.497,0.151c3.494,0,6.622-2.455,7.343-6.012 c2.453-12.108,3.321-24.449,2.623-36.737c7.964-5.832,13.148-15.245,13.148-25.849c0-13.328-8.185-24.776-19.791-29.594l-0.488-3.86 c1.507,0.026,3.015,0.041,4.525,0.041c4.892,0,9.333-2.695,11.593-7.033c2.26-4.338,1.921-9.522-0.883-13.53l-16.138-23.065 l49.071-51.112C419.346,62.119,420.364,56.554,418.308,51.727z M122.414,102.625c0-24.558,15.573-45.71,37.823-53.527 c-3.756,9.208-5.819,19.234-5.819,29.657c0,9.521,1.708,18.74,4.872,27.321c-12.957,10.01-20.598,25.442-20.598,41.931v17.274 c-4.311-2.102-9.092-3.252-14.023-3.252c-0.759,0-1.509,0.036-2.255,0.088C122.414,162.117,122.414,102.625,122.414,102.625z M116.935,229.06c-3.02,0-5.477-2.457-5.477-5.476c0-3.02,2.457-5.477,5.477-5.477s5.476,2.457,5.476,5.477 C122.412,226.604,119.955,229.06,116.935,229.06z M138.814,203.544c-1.778,2.643-4.211,4.686-7.031,5.981 c-3.734-3.942-9.002-6.417-14.848-6.417c-2.108,0-4.142,0.321-6.057,0.916c-2.093-2.883-3.238-6.329-3.238-9.965 c0-9.39,7.639-17.029,17.028-17.029c5.582,0,10.817,2.743,14.005,7.338c0.006,0.008,0.013,0.016,0.019,0.024v9.485 c0,3.172,0.094,6.326,0.278,9.458C138.92,203.405,138.863,203.471,138.814,203.544z M240.208,423.984 c-12.791-12.556-46.387-45.544-73.625-72.368c2.283-1.703,4.623-3.337,7.031-4.884c27.197,26.875,61.07,59.375,61.426,59.717 c1.451,1.392,3.321,2.087,5.192,2.087s3.741-0.696,5.192-2.087c0.356-0.342,34.199-32.814,61.391-59.683 c2.278,1.47,4.504,3.024,6.684,4.646L240.208,423.984z M270.057,347.534c4.143,0,7.5-3.358,7.5-7.5v-7.039 c5.359,1.701,10.57,3.764,15.61,6.167c-20.085,19.795-42.904,41.816-52.935,51.472c-10.034-9.658-32.863-31.689-52.952-51.489 c5.013-2.38,10.231-4.433,15.627-6.142v7.032c0,4.142,3.358,7.5,7.5,7.5s7.5-3.358,7.5-7.5v-22.648 c7.24,2.005,14.715,3.038,22.325,3.038c7.611,0,15.085-1.033,22.325-3.038v22.648C262.557,344.176,265.914,347.534,270.057,347.534z M240.231,305.424c-47.718,0-86.539-50.041-86.539-111.548v-45.869c0-10.747,4.541-20.858,12.347-28.004 c8.455,13.765,21.136,24.882,36.756,31.412l21.983,9.191c1.626,0.68,3.341,1.015,5.047,1.015c2.538,0,5.057-0.742,7.238-2.194 c3.649-2.429,5.828-6.497,5.828-10.88v-21.765c26.15,14.73,54.497,24.819,83.878,29.942v37.152 C326.77,255.384,287.949,305.424,240.231,305.424z M355.793,211.086c-5.63,0-10.892-2.781-14.074-7.439 c-0.072-0.105-0.152-0.199-0.227-0.299c0.185-3.137,0.279-6.296,0.279-9.472v-9.475c3.188-4.617,8.414-7.372,14.022-7.372 c9.39,0,17.029,7.639,17.029,17.029S365.183,211.086,355.793,211.086z M352.626,162.2c-3.811,0.377-7.479,1.428-10.856,3.074v-6.375 c3.511,0.406,7.033,0.738,10.565,1.002L352.626,162.2z"/><path d="M294.379,172.943l-20.543,6.479c-3.95,1.246-6.143,5.458-4.896,9.409c0.947,3.004,3.613,4.968,6.571,5.2v10.434 c0,4.142,3.357,7.5,7.5,7.5s7.5-3.358,7.5-7.5v-13.036c0-0.51-0.052-1.008-0.149-1.49l8.529-2.69 c3.95-1.246,6.143-5.458,4.896-9.409C302.542,173.89,298.328,171.699,294.379,172.943z"/><path d="M207.239,179.422l-20.542-6.479c-3.951-1.247-8.163,0.947-9.409,4.897s0.947,8.163,4.897,9.409l7.96,2.51 c-0.122,0.537-0.193,1.095-0.193,1.669v13.036c0,4.142,3.358,7.5,7.5,7.5s7.5-3.358,7.5-7.5v-10.39c0.011,0,0.022,0.002,0.033,0.002 c3.186,0,6.142-2.046,7.151-5.246C213.381,184.88,211.189,180.668,207.239,179.422z"/></svg>