<svg xmlns="http://www.w3.org/2000/svg" xmlns:xlink="http://www.w3.org/1999/xlink" id="Capa_1" x="0" y="0" version="1.1" viewBox="0 0 511.999 511.999" xml:space="preserve" style="enable-background:new 0 0 511.999 511.999"><path style="fill:#fe7c7a" d="M321.15,56.899c-36.296,0-69.028,15.639-92.15,40.702c-23.122-25.063-55.854-40.702-92.15-40.702 C66.793,56.899,10,115.151,10,187.009c0,100.654,219,268.09,219,268.09s219-167.435,219-268.09 C448,115.151,391.207,56.899,321.15,56.899z"/><circle style="fill:#c6ef9a" cx="424" cy="249.279" r="78"/><path d="M338.859,344.259l-0.284,0.29c-3.865,3.945-3.8,10.276,0.145,14.142c1.946,1.907,4.473,2.857,6.998,2.857 c2.593,0,5.185-1.003,7.144-3.001l0.284-0.29c3.865-3.945,3.8-10.276-0.145-14.142C349.056,340.25,342.725,340.315,338.859,344.259z"/><path d="M460.574,239.276H434v-26.574c0-5.523-4.477-10-10-10s-10,4.477-10,10v26.574h-26.574c-5.523,0-10,4.477-10,10 s4.477,10,10,10H414v26.574c0,5.523,4.477,10,10,10s10-4.477,10-10v-26.574h26.574c5.523,0,10-4.477,10-10 S466.097,239.276,460.574,239.276z"/><path d="M456.694,167.577c-9.34-69.03-67.048-120.678-135.545-120.678c-34.577,0-66.922,12.889-92.149,36.514 c-25.228-23.625-57.573-36.514-92.149-36.514C61.391,46.899,0,109.752,0,187.009c0,15.264,4.453,32.373,13.312,51.259H10 c-5.523,0-10,4.477-10,10s4.477,10,10,10h13.962c18.677,31.62,48.213,67.577,88.487,107.623 c54.58,54.271,109.924,96.73,110.477,97.153c1.792,1.371,3.933,2.056,6.074,2.056s4.281-0.685,6.074-2.056 c0.422-0.323,42.75-32.781,89.658-77.007c4.019-3.789,4.205-10.118,0.416-14.136c-3.788-4.018-10.117-4.205-14.136-0.416 c-35.774,33.729-68.801,60.472-82.011,70.92c-15.698-12.42-59.4-47.873-102.593-90.838c-34.58-34.399-61.052-65.747-78.949-93.299 h89.526c4.461,0,8.382-2.955,9.612-7.242l17.472-60.902l48.384,155.018c1.304,4.176,5.171,7.021,9.546,7.021 s8.242-2.845,9.545-7.021l26.795-85.873h44.644c5.523,0,10-4.477,10-10s-4.477-10-10-10h-51.999c-4.375,0-8.243,2.844-9.546,7.021 l-19.442,62.305L173.21,152.289c-1.316-4.217-5.234-7.081-9.662-7.02c-4.417,0.051-8.278,2.995-9.497,7.242l-24.603,85.758H35.624 C25.287,218.753,20,201.552,20,187.009c0-66.229,52.419-120.11,116.851-120.11c32.384,0,62.5,13.312,84.799,37.482 c1.894,2.052,4.558,3.219,7.35,3.219s5.457-1.167,7.35-3.219c22.299-24.17,52.415-37.482,84.799-37.482 c55.707,0,103.068,40.174,114.325,95.125c-3.757-0.491-7.586-0.748-11.475-0.748c-48.523,0-88,39.477-88,88s39.477,88,88,88 s88-39.477,88-88C512,212.3,489.075,180.582,456.694,167.577z M424,317.276c-37.495,0-68-30.505-68-68s30.505-68,68-68 s68,30.505,68,68S461.495,317.276,424,317.276z"/></svg>