<svg
  id="Capa_1"
  enable-background="new 0 0 512 512"
  height="512"
  viewBox="0 0 512 512"
  width="512"
  xmlns="http://www.w3.org/2000/svg"
>
  <g>
    <g>
      <g>
        <circle cx="70.13" cy="70.13" fill="#f6e266" r="40.407" />
      </g>
      <g>
        <path
          d="m89.127 34.466c3.023 5.664 4.742 12.128 4.742 18.997 0 22.316-18.091 40.407-40.407 40.407-6.868 0-13.333-1.719-18.997-4.742 6.799 12.738 20.217 21.41 35.664 21.41 22.316 0 40.407-18.091 40.407-40.407.001-15.448-8.671-28.866-21.409-35.665z"
          fill="#f1d333"
        />
      </g>
    </g>
    <g>
      <g>
        <circle cx="256" cy="37.805" fill="#f6e266" r="30.305" />
      </g>
      <g>
        <path
          d="m270.248 11.057c2.267 4.248 3.557 9.096 3.557 14.248 0 16.737-13.568 30.305-30.305 30.305-5.151 0-10-1.289-14.248-3.556 5.099 9.552 15.162 16.056 26.748 16.056 16.737 0 30.305-13.568 30.305-30.305 0-11.586-6.504-21.649-16.057-26.748z"
          fill="#f1d333"
        />
      </g>
    </g>
    <g>
      <g>
        <circle cx="256" cy="474.195" fill="#f6e266" r="30.305" />
      </g>
      <g>
        <path
          d="m270.248 447.447c2.267 4.248 3.557 9.096 3.557 14.248 0 16.737-13.568 30.305-30.305 30.305-5.151 0-10-1.289-14.248-3.556 5.099 9.553 15.163 16.057 26.748 16.057 16.737 0 30.305-13.568 30.305-30.305 0-11.587-6.504-21.65-16.057-26.749z"
          fill="#f1d333"
        />
      </g>
    </g>
    <g>
      <g>
        <circle cx="474.195" cy="256" fill="#f6e266" r="30.305" />
      </g>
      <g>
        <path
          d="m488.443 229.252c2.267 4.248 3.557 9.096 3.557 14.248 0 16.737-13.568 30.305-30.305 30.305-5.151 0-10-1.289-14.248-3.556 5.099 9.553 15.163 16.057 26.748 16.057 16.737 0 30.305-13.568 30.305-30.305 0-11.587-6.504-21.65-16.057-26.749z"
          fill="#f1d333"
        />
      </g>
    </g>
    <g>
      <g>
        <circle cx="37.805" cy="256" fill="#f6e266" r="30.305" />
      </g>
      <g>
        <path
          d="m52.052 229.252c2.267 4.248 3.557 9.096 3.557 14.248 0 16.737-13.568 30.305-30.305 30.305-5.151 0-10-1.289-14.248-3.556 5.099 9.553 15.163 16.057 26.748 16.057 16.737 0 30.305-13.568 30.305-30.305.001-11.587-6.503-21.65-16.057-26.749z"
          fill="#f1d333"
        />
      </g>
    </g>
    <g>
      <g>
        <circle cx="256" cy="205.492" fill="#f1d0a5" r="50.508" />
      </g>
      <g>
        <path
          d="m281.122 161.682c4.253 7.401 6.698 15.973 6.698 25.122 0 27.895-22.613 50.508-50.508 50.508-9.149 0-17.721-2.445-25.122-6.698 8.715 15.165 25.064 25.386 43.81 25.386 27.895 0 50.508-22.613 50.508-50.508 0-18.746-10.221-35.095-25.386-43.81z"
          fill="#f1b986"
        />
      </g>
      <g>
        <path
          d="m171.146 296.406v44.447h169.707v-44.447c0-22.316-18.091-40.406-40.407-40.406h-88.894c-22.315 0-40.406 18.091-40.406 40.406z"
          fill="#dd5790"
        />
      </g>
      <g>
        <path
          d="m300.447 256h-24.244c22.316 0 40.406 18.091 40.406 40.406v44.447h24.244v-44.447c.001-22.315-18.09-40.406-40.406-40.406z"
          fill="#da387d"
        />
      </g>
    </g>
    <g>
      <g>
        <circle cx="441.87" cy="70.13" fill="#f6e266" r="40.407" />
      </g>
      <g>
        <path
          d="m460.867 34.466c3.023 5.664 4.742 12.128 4.742 18.997 0 22.316-18.091 40.407-40.406 40.407-6.868 0-13.333-1.719-18.997-4.742 6.799 12.738 20.217 21.41 35.664 21.41 22.316 0 40.407-18.091 40.407-40.407-.001-15.448-8.672-28.866-21.41-35.665z"
          fill="#f1d333"
        />
      </g>
    </g>
    <g>
      <g>
        <circle cx="441.87" cy="441.87" fill="#f6e266" r="40.407" />
      </g>
      <g>
        <path
          d="m460.867 406.205c3.023 5.664 4.742 12.128 4.742 18.997 0 22.316-18.091 40.406-40.406 40.406-6.868 0-13.333-1.719-18.997-4.742 6.799 12.738 20.217 21.41 35.664 21.41 22.316 0 40.407-18.091 40.407-40.407-.001-15.447-8.672-28.864-21.41-35.664z"
          fill="#f1d333"
        />
      </g>
    </g>
    <g>
      <g>
        <circle cx="70.13" cy="441.87" fill="#f6e266" r="40.407" />
      </g>
      <g>
        <path
          d="m89.127 406.205c3.023 5.664 4.742 12.128 4.742 18.997 0 22.316-18.091 40.406-40.407 40.406-6.868 0-13.333-1.719-18.997-4.742 6.799 12.738 20.217 21.41 35.664 21.41 22.316 0 40.407-18.091 40.407-40.407.001-15.447-8.671-28.864-21.409-35.664z"
          fill="#f1d333"
        />
      </g>
    </g>
    <g>
      <path
        d="m414.843 263.5h22.298c3.489 17.265 18.777 30.305 37.055 30.305 20.845 0 37.804-16.959 37.804-37.805s-16.959-37.805-37.805-37.805c-18.278 0-33.566 13.04-37.055 30.305h-22.298c-1.783-38.203-17.103-72.927-41.27-99.466l40.164-40.163c7.906 5.757 17.627 9.166 28.134 9.166 26.416 0 47.906-21.491 47.906-47.907s-21.49-47.906-47.906-47.906-47.906 21.491-47.906 47.906c0 10.507 3.408 20.228 9.166 28.134l-40.164 40.163c-26.539-24.166-61.263-39.487-99.466-41.269v-22.298c17.265-3.489 30.305-18.777 30.305-37.055 0-20.846-16.959-37.805-37.805-37.805s-37.805 16.959-37.805 37.805c0 18.278 13.04 33.566 30.305 37.055v22.297c-38.203 1.783-72.927 17.103-99.466 41.269l-40.161-40.16c5.758-7.907 9.167-17.629 9.167-28.136 0-15.952-7.901-30.807-21.135-39.737-3.436-2.316-8.097-1.412-10.412 2.022-2.317 3.434-1.412 8.095 2.021 10.412 9.096 6.137 14.525 16.344 14.525 27.303 0 18.146-14.764 32.91-32.91 32.91s-32.909-14.764-32.909-32.91c0-14.654 9.835-27.679 23.917-31.674 3.985-1.131 6.299-5.278 5.168-9.263s-5.28-6.296-9.262-5.168c-20.504 5.818-34.823 24.777-34.823 46.105 0 26.418 21.492 47.91 47.91 47.91 10.508 0 20.23-3.409 28.136-9.167l40.161 40.16c-24.167 26.539-39.487 61.263-41.27 99.466h-22.297c-3.489-17.265-18.777-30.305-37.055-30.305-20.846.001-37.805 16.96-37.805 37.806s16.959 37.805 37.805 37.805c18.278 0 33.566-13.04 37.055-30.305h22.298c1.783 38.203 17.103 72.927 41.27 99.466l-40.164 40.163c-7.906-5.757-17.627-9.166-28.134-9.166-26.416 0-47.906 21.491-47.906 47.907s21.49 47.906 47.906 47.906 47.906-21.491 47.906-47.906c0-10.507-3.408-20.228-9.166-28.134l40.164-40.163c26.539 24.166 61.263 39.487 99.466 41.269v22.297c-17.265 3.489-30.305 18.777-30.305 37.055 0 20.847 16.959 37.806 37.805 37.806s37.805-16.959 37.805-37.805c0-18.278-13.04-33.566-30.305-37.055v-22.297c38.203-1.783 72.927-17.103 99.466-41.269l40.161 40.16c-5.758 7.907-9.167 17.629-9.167 28.136 0 26.417 21.492 47.91 47.91 47.91s47.91-21.492 47.91-47.91c0-5.186-.826-10.293-2.455-15.182-1.311-3.929-5.56-6.053-9.486-4.744-3.93 1.31-6.054 5.557-4.744 9.487 1.118 3.355 1.686 6.868 1.686 10.438 0 18.146-14.764 32.91-32.91 32.91s-32.91-14.763-32.91-32.91 14.764-32.91 32.91-32.91c4.153 0 8.203.764 12.037 2.271 3.851 1.515 8.208-.382 9.724-4.237 1.515-3.855-.382-8.208-4.237-9.724-5.589-2.196-11.484-3.31-17.523-3.31-10.508 0-20.23 3.409-28.136 9.167l-40.161-40.16c24.164-26.539 39.485-61.263 41.268-99.466zm59.352-30.305c12.575 0 22.805 10.23 22.805 22.805s-10.23 22.805-22.805 22.805-22.805-10.23-22.805-22.805 10.231-22.805 22.805-22.805zm-32.325-195.971c18.145 0 32.906 14.762 32.906 32.906 0 18.145-14.762 32.907-32.906 32.907s-32.906-14.762-32.906-32.907 14.762-32.906 32.906-32.906zm-208.675.581c0-12.575 10.231-22.805 22.805-22.805s22.805 10.23 22.805 22.805-10.231 22.805-22.805 22.805-22.805-10.231-22.805-22.805zm-195.39 241c-12.575 0-22.805-10.23-22.805-22.805s10.23-22.805 22.805-22.805 22.804 10.23 22.804 22.805-10.23 22.805-22.804 22.805zm218.195-166.829c79.415 0 144.024 64.609 144.024 144.024s-64.609 144.024-144.024 144.024-144.024-64.608-144.024-144.024 64.609-144.024 144.024-144.024zm-185.87 362.8c-18.145 0-32.906-14.762-32.906-32.906 0-18.145 14.762-32.907 32.906-32.907s32.906 14.762 32.906 32.907-14.762 32.906-32.906 32.906zm208.675-.581c0 12.575-10.231 22.805-22.805 22.805s-22.805-10.23-22.805-22.805 10.231-22.805 22.805-22.805 22.805 10.231 22.805 22.805z"
      />
      <path
        d="m171.15 348.35h42.355c.023 0 .045.003.068.003s.045-.003.068-.003h24.859c4.143 0 7.5-3.358 7.5-7.5s-3.357-7.5-7.5-7.5h-17.427v-12.7c0-4.142-3.357-7.5-7.5-7.5s-7.5 3.358-7.5 7.5v12.7h-27.423v-36.94c0-18.146 14.759-32.91 32.899-32.91h88.9c18.141 0 32.899 14.764 32.899 32.91v36.94h-27.423v-12.7c0-4.142-3.357-7.5-7.5-7.5s-7.5 3.358-7.5 7.5v12.7h-17.425c-4.143 0-7.5 3.358-7.5 7.5s3.357 7.5 7.5 7.5h24.859c.023 0 .045.003.068.003s.045-.003.068-.003h42.355c4.143 0 7.5-3.358 7.5-7.5v-44.44c0-26.418-21.487-47.91-47.899-47.91h-5.568c11.738-10.622 19.126-25.968 19.126-43.008 0-31.986-26.022-58.008-58.008-58.008s-58.008 26.022-58.008 58.008c0 17.04 7.388 32.386 19.126 43.008h-5.568c-26.412 0-47.899 21.492-47.899 47.91v44.44c-.002 4.142 3.356 7.5 7.498 7.5zm41.842-142.858c0-23.714 19.293-43.008 43.008-43.008s43.008 19.293 43.008 43.008-19.293 43.008-43.008 43.008-43.008-19.293-43.008-43.008z"
      />
    </g>
  </g>
</svg>
