<svg xmlns="http://www.w3.org/2000/svg" width="512pt" height="512pt" viewBox="0 -61 512.001 512"><path fill="#fff" d="m335.691406 217.871094c0 89.933594-72.90625 162.839844-162.839844 162.839844-89.933593 0-162.839843-72.90625-162.839843-162.839844s72.90625-162.839844 162.839843-162.839844c89.933594 0 162.839844 72.90625 162.839844 162.839844zm0 0"/><g fill="#98a1b3"><path d="m225.503906 372.011719-52.652344-38.253907-52.648437 38.25"/><path d="m9.984375 215.425781 52.652344 38.253907-20.109375 61.894531"/><path d="m124.847656 62.21875-20.113281 61.898438h-65.078125"/><path d="m209.855469 167.085938 22.871093 70.386718-59.875 43.503906-59.875-43.503906 22.871094-70.386718zm0 0"/></g><path fill="#f5737f" d="m268.53125 9.988281c-11.933594-.074219-23.019531 6.324219-28.917969 16.695313-38.683593 68.015625-39.984375 157.324218 4.085938 233.65625 44.070312 76.332031 122.066406 119.863281 200.308593 120.371094 11.933594.074218 23.019532-6.324219 28.917969-16.695313 38.6875-68.015625 39.984375-157.324219-4.085937-233.65625-44.070313-76.335937-122.0625-119.863281-200.308594-120.371094zm0 0"/><path d="m425.390625 250.230469c-2.757813-4.777344-8.867187-6.414063-13.644531-3.65625l-10.773438 6.222656-17.375-30.09375 10.773438-6.21875c4.78125-2.757813 6.417968-8.871094 3.65625-13.648437-2.757813-4.777344-8.867188-6.414063-13.644532-3.65625l-10.773437 6.222656-17.375-30.09375 10.773437-6.21875c4.78125-2.757813 6.417969-8.871094 3.660157-13.648438-2.761719-4.777344-8.871094-6.414062-13.648438-3.65625l-10.773437 6.222656-17.375-30.09375 10.773437-6.21875c4.78125-2.757812 6.417969-8.871093 3.660157-13.648437-2.761719-4.777344-8.871094-6.414063-13.648438-3.65625l-10.773438 6.222656-13.582031-23.523437c-2.757812-4.777344-8.867187-6.414063-13.644531-3.65625-4.777344 2.757812-6.417969 8.871094-3.65625 13.648437l13.578125 23.519531-10.773437 6.222657c-4.777344 2.757812-6.417969 8.867187-3.65625 13.644531 1.851562 3.207031 5.207031 4.996094 8.660156 4.996094 1.695312 0 3.414062-.429688 4.984375-1.339844l10.777343-6.21875 17.371094 30.089844-10.773437 6.222656c-4.777344 2.757812-6.417969 8.867188-3.65625 13.644531 1.847656 3.207031 5.207031 4.996094 8.660156 4.996094 1.695313 0 3.414063-.429687 4.984375-1.339844l10.777344-6.21875 17.371094 30.089844-10.773438 6.222656c-4.777344 2.757813-6.417969 8.867188-3.65625 13.644531 1.847656 3.207032 5.207031 4.996094 8.660156 4.996094 1.695313 0 3.414063-.429687 4.984375-1.339844l10.777344-6.21875 17.371094 30.089844-10.773438 6.222656c-4.777343 2.757813-6.417969 8.867188-3.65625 13.644532 1.847657 3.207031 5.207031 4.996094 8.660157 4.996094 1.695312 0 3.414062-.429688 4.984374-1.339844l10.777344-6.21875 13.578125 23.519531c1.851563 3.207031 5.207031 4.996094 8.660157 4.996094 1.695312 0 3.414062-.429688 4.988281-1.339844 4.777343-2.757813 6.414062-8.867187 3.65625-13.644531l-13.582031-23.523438 10.773437-6.21875c4.777344-2.757812 6.417969-8.871094 3.65625-13.648437zm0 0"/><path d="m497.152344 167.78125c-1.859375-5.195312-7.574219-7.898438-12.773438-6.042969-5.191406 1.859375-7.898437 7.578125-6.039062 12.773438 22.296875 62.339843 17.160156 129.613281-14.097656 184.566406-4.089844 7.191406-11.75 11.644531-20.019532 11.644531-.050781 0-.101562 0-.152344 0-77.457031-.5-150.921874-44.710937-191.71875-115.375-34.066406-59.003906-40.765624-128.507812-19.753906-189.035156.03125-.089844.070313-.171875.101563-.261719.011719-.039062.019531-.074219.027343-.113281 4.132813-11.828125 9.316407-23.316406 15.570313-34.3125 4.089844-7.191406 11.75-11.644531 20.019531-11.644531h.148438c63.230468.40625 124.066406 29.601562 166.90625 80.097656 3.570312 4.207031 9.871094 4.726563 14.082031 1.15625 4.207031-3.570313 4.722656-9.875 1.152344-14.082031-46.613281-54.941406-112.953125-86.707032-182.011719-87.152344-15.546875-.109375-29.976562 8.234375-37.664062 21.75-5.332032 9.367188-9.949219 19.0625-13.871094 29.003906-14.363282-3.789062-29.191406-5.710937-44.207032-5.710937-17.457031 0-34.308593 2.609375-50.207031 7.445312-.511719.113281-1.015625.261719-1.5.457031-36.085937 11.335938-67.105469 34.21875-88.722656 64.292969-.671875.710938-1.242187 1.515625-1.6875 2.398438-18.714844 26.992187-29.945313 59.539062-30.6679688 94.628906-.078125.675781-.0859374 1.355469-.0273437 2.027344-.0039063.527343-.0195313 1.050781-.0195313 1.578125 0 38.308594 12.5351568 73.738281 33.7070308 102.421875.480469.894531 1.097657 1.714843 1.828126 2.429687 20.402343 26.644532 48.363281 47.207032 80.660156 58.4375.492187.214844 1 .398438 1.519531.53125 17.316406 5.839844 35.851563 9.011719 55.117187 9.011719 18.96875 0 37.566407-3.109375 55.136719-9.023437.527344-.136719 1.039063-.320313 1.539063-.539063 25.472656-8.84375 48.742187-23.597656 67.785156-43.359375 41.886719 33.371094 93.367188 52.578125 146.628906 52.921875h.277344c15.441406 0 29.75-8.316406 37.390625-21.75 34.136719-60.019531 39.804687-133.34375 15.542969-201.171875zm-324.300782 100.84375-48.128906-34.96875 18.382813-56.578125h60.625c3.074219 19.460937 8.457031 38.742187 16.136719 57.386719zm-67.808593-39.066406-40.402344 13.230468-44.457031-32.300781c1.34375-28.101562 10.316406-54.238281 24.878906-76.382812h54.390625l25.316406 34.742187zm-83.980469 6.265625 29.828125 21.671875-11.378906 35.023437c-9.632813-17.136719-16.054688-36.308593-18.449219-56.695312zm189.460938-166.121094c-8.363282 28.136719-11.398438 57.792969-9.128907 87.394531h-60.464843l-25.179688-34.554687 16.949219-52.160157c12.800781-3.488281 26.261719-5.363281 40.152343-5.363281 12.789063 0 25.417969 1.578125 37.671876 4.683594zm-101.660157 9.375-11.386719 35.046875h-36.765624c13.527343-14.613281 29.867187-26.585938 48.152343-35.046875zm-55.15625 234.421875 16.761719-51.597656 40.765625-13.34375 51.625 37.507812v42.601563l-44.207031 32.117187c-25.65625-9.765625-48.023438-26.242187-64.945313-47.285156zm89.300781 54.285156 29.84375-21.679687 29.828126 21.671875c-9.742188 1.9375-19.722657 2.941406-29.828126 2.941406-10.210937.003906-20.1875-1.011719-29.84375-2.933594zm84.039063-7-44.207031-32.117187v-42.601563l45.527344-33.078125c2.109374 4.160157 4.332031 8.277344 6.679687 12.347657 12.925781 22.386718 28.890625 42.324218 47.113281 59.355468-15.675781 16.035156-34.511718 28.277344-55.113281 36.09375zm0 0"/><path d="m468.835938 140.355469c2.636718 0 5.203124-1.070313 7.070312-2.9375 1.859375-1.847657 2.917969-4.425781 2.917969-7.0625 0-2.628907-1.058594-5.207031-2.917969-7.066407-1.867188-1.855468-4.433594-2.925781-7.070312-2.925781-2.628907 0-5.195313 1.070313-7.0625 2.925781-1.859376 1.859376-2.917969 4.4375-2.917969 7.066407 0 2.636719 1.058593 5.214843 2.917969 7.0625 1.867187 1.867187 4.433593 2.9375 7.0625 2.9375zm0 0"/></svg>