<?xml version="1.0"?><svg version="1.1" id="圖層_1" xmlns="http://www.w3.org/2000/svg" x="0" y="0" viewBox="0 0 100 100" xml:space="preserve"><g><path d="M53.115 66.105l-35.702 8.389v-58.83l34.518-8.089a2.412 2.412 0 0 1 3.004 2.338v53.854c0 1.104-.75 2.067-1.82 2.338z" fill="#f47e60"/><path d="M52.78 10.246l11.766 6.863-35.367 8.359c-6.171.09-10.093-2.198-11.766-6.863l35.367-8.359z" fill="#e0e0e0"/><path d="M64.881 72.968l-35.702 8.389V22.528l34.518-8.089a2.412 2.412 0 0 1 3.004 2.338V70.63c0 1.104-.75 2.067-1.82 2.338z" fill="#e15b64"/><path d="M17.413 15.664v58.829c1.696 5.721 6.396 6.808 11.766 6.863V22.528c-6.327.006-10.249-2.282-11.766-6.864z" fill="#f8b26a"/></g><g><path d="M68.649 76.852l-36.627 8.606V25.105l35.413-8.299a2.474 2.474 0 0 1 3.081 2.399v55.249c0 1.132-.769 2.12-1.867 2.398z" fill="#f47e60"/><path d="M68.305 19.546l12.071 7.041-36.284 8.576c-6.33.092-10.354-2.255-12.071-7.041l36.284-8.576z" fill="#e0e0e0"/><path d="M80.72 83.894L44.093 92.5V32.146l35.413-8.299a2.474 2.474 0 0 1 3.081 2.399v55.249a2.474 2.474 0 0 1-1.867 2.399z" fill="#e15b64"/><path d="M32.022 25.105v60.354c1.74 5.869 6.562 6.985 12.071 7.041V32.146c-6.492.006-10.515-2.341-12.071-7.041z" fill="#f8b26a"/></g><metadata xmlns:d="https://loading.io/stock/">
<d:name>book</d:name>
<d:tags>bible,document,dictionary,publication,dairy,manual,hardcover,paperback,booklet,book,books</d:tags>
<d:license>by</d:license>
<d:slug>g9r5dd</d:slug>
</metadata></svg>