<?xml version="1.0" encoding="iso-8859-1"?>
<!-- Generator: Adobe Illustrator 19.0.0, SVG Export Plug-In . SVG Version: 6.00 Build 0)  -->
<svg version="1.1" id="Layer_1" xmlns="http://www.w3.org/2000/svg" xmlns:xlink="http://www.w3.org/1999/xlink" x="0px" y="0px"
	 viewBox="0 0 492.006 492.006" style="enable-background:new 0 0 492.006 492.006;" xml:space="preserve">
<path style="fill:#AEC9D3;" d="M314.803,265.606c-2.4,8-10.4,13.6-19.2,11.2l0,0c-8-2.4-13.6-10.4-11.2-19.2l36.8-140
	c2.4-8,10.4-13.6,19.2-11.2l0,0c8,2.4,13.6,10.4,11.2,19.2L314.803,265.606z"/>
<path style="fill:#8DAAB2;" d="M314.803,265.606c-2.4,8-10.4,13.6-19.2,11.2l0,0c-8-2.4-13.6-10.4-11.2-19.2l36.8-140
	c2.4-8,10.4-13.6,19.2-11.2l0,0"/>
<path style="fill:#EA2D83;" d="M386.803,273.606c0,13.6-11.2,28-24.8,28h-75.2c-13.6,0-16.8-14.4-16.8-28l0,0
	c0-13.6,11.2-28,24.8-28h75.2C383.603,245.606,386.803,260.006,386.803,273.606L386.803,273.606z"/>
<path style="fill:#A0007A;" d="M386.803,274.406L386.803,274.406c0,13.6-11.2,27.2-24.8,27.2h-75.2c-13.6,0-16.8-12.8-16.8-27.2l0,0
	c0-13.6,9.6-28.8,24.8-28.8"/>
<path style="fill:#FFFB76;" d="M378.003,274.406c0,3.2-4.8,6.4-8,6.4l0,0c-3.2,0-8-3.2-8-6.4v-9.6c0-3.2,4.8-6.4,8-6.4l0,0
	c3.2,0,8,3.2,8,6.4V274.406z"/>
<g>
	<circle style="fill:#00233F;" cx="316.403" cy="120.006" r="56"/>
	<path style="fill:#00233F;" d="M293.203,464.806c0,2.4-2.4,4.8-4.8,4.8l0,0c-2.4,0-4.8-2.4-4.8-4.8l0,0c0-2.4,2.4-4.8,4.8-4.8l0,0
		C291.603,460.006,293.203,461.606,293.203,464.806L293.203,464.806z"/>
</g>
<circle style="fill:#095589;" cx="333.203" cy="461.606" r="30.4"/>
<path style="fill:#00233F;" d="M333.203,431.206c16.8,0,30.4,13.6,30.4,30.4s-13.6,30.4-30.4,30.4"/>
<circle style="fill:#38ADD6;" cx="333.203" cy="461.606" r="12.8"/>
<path style="fill:#0C86BC;" d="M342.803,452.006c4.8,4.8,4.8,12.8,0,18.4c-4.8,4.8-12.8,4.8-18.4,0"/>
<circle style="fill:#095589;" cx="423.603" cy="461.606" r="30.4"/>
<path style="fill:#00233F;" d="M423.603,431.206c16.8,0,30.4,13.6,30.4,30.4s-13.6,30.4-30.4,30.4"/>
<circle style="fill:#38ADD6;" cx="423.603" cy="461.606" r="12.8"/>
<path style="fill:#0C86BC;" d="M432.403,452.006c4.8,4.8,4.8,12.8,0,18.4c-4.8,4.8-12.8,4.8-18.4,0"/>
<path style="fill:#00233F;" d="M266.003,324.006c0,28-22.4,49.6-49.6,49.6h-4c-28,0-49.6-22.4-49.6-49.6v-84.8
	c0-28,22.4-49.6,49.6-49.6h4c28,0,49.6,22.4,49.6,49.6V324.006z"/>
<path style="fill:#095589;" d="M210.003,189.606L210.003,189.606c28,0,48,22.4,48,49.6v84c0,28-21.6,49.6-48.8,49.6l0,0"/>
<g>
	<path style="fill:#EA2D83;" d="M450.003,421.606v-11.2c0-50.4-39.2-92.8-89.6-92.8h-265.6c-50.4,0-60.8,42.4-60.8,92.8v11.2
		H450.003z"/>
	<path style="fill:#EA2D83;" d="M342.003,145.606c0,72-60,89.6-134.4,89.6c-138.4,0-134.4-18.4-134.4-89.6
		c0-136-110.4-145.6,134.4-145.6C346.003-0.794,342.003,73.606,342.003,145.606z"/>
</g>
<g>
	<path style="fill:#A0007A;" d="M73.203,145.606c0,60-2.4,82.4,77.6,88c41.6-5.6,41.6-24.8,41.6-81.6c0-68.8,0-142.4-74.4-142.4
		c-24,0-44,0-61.6,0C31.603,26.406,73.203,62.406,73.203,145.606z"/>
	<path style="fill:#A0007A;" d="M199.603,317.606h-104.8c-50.4,0-60.8,42.4-60.8,92.8v11.2h256v-11.2
		C290.003,360.006,250.003,317.606,199.603,317.606z"/>
</g>
<path style="fill:#AEC9D3;" d="M482.003,430.406c0,8-6.4,15.2-15.2,15.2h-433.6c-8,0-15.2-6.4-15.2-15.2v-1.6
	c0-8,6.4-15.2,15.2-15.2h433.6c8,0,15.2,6.4,15.2,15.2L482.003,430.406L482.003,430.406z"/>
<path style="fill:#8DAAB2;" d="M482.003,446.406c0,8-6.4,15.2-15.2,15.2h-433.6c-8,0-15.2-6.4-15.2-15.2v-1.6
	c0-8,6.4-15.2,15.2-15.2h433.6c8,0,15.2,6.4,15.2,15.2L482.003,446.406L482.003,446.406z"/>
<circle style="fill:#095589;" cx="63.603" cy="461.606" r="30.4"/>
<path style="fill:#00233F;" d="M63.603,431.206c16.8,0,30.4,13.6,30.4,30.4s-13.6,30.4-30.4,30.4"/>
<circle style="fill:#38ADD6;" cx="63.603" cy="461.606" r="12.8"/>
<path style="fill:#0C86BC;" d="M72.403,452.006c4.8,4.8,4.8,12.8,0,18.4c-4.8,4.8-12.8,4.8-18.4,0"/>
<circle style="fill:#095589;" cx="153.203" cy="461.606" r="30.4"/>
<path style="fill:#00233F;" d="M153.203,431.206c16.8,0,30.4,13.6,30.4,30.4s-13.6,30.4-30.4,30.4"/>
<circle style="fill:#38ADD6;" cx="153.203" cy="461.606" r="12.8"/>
<path style="fill:#0C86BC;" d="M162.803,452.006c4.8,4.8,4.8,12.8,0,18.4c-4.8,4.8-12.8,4.8-18.4,0"/>
<circle style="fill:#095589;" cx="243.603" cy="461.606" r="30.4"/>
<path style="fill:#00233F;" d="M243.603,431.206c16.8,0,30.4,13.6,30.4,30.4s-13.6,30.4-30.4,30.4"/>
<circle style="fill:#38ADD6;" cx="243.603" cy="461.606" r="12.8"/>
<g>
	<path style="fill:#0C86BC;" d="M252.403,452.006c4.8,4.8,4.8,12.8,0,18.4c-4.8,4.8-12.8,4.8-18.4,0"/>
	<path style="fill:#0C86BC;" d="M112.403,464.806c0,2.4-2.4,4.8-4.8,4.8l0,0c-2.4,0-4.8-2.4-4.8-4.8l0,0c0-2.4,2.4-4.8,4.8-4.8l0,0
		C110.003,460.006,112.403,461.606,112.403,464.806L112.403,464.806z"/>
	<path style="fill:#0C86BC;" d="M202.803,464.806c0,2.4-2.4,4.8-4.8,4.8l0,0c-2.4,0-4.8-2.4-4.8-4.8l0,0c0-2.4,2.4-4.8,4.8-4.8l0,0
		C200.403,460.006,202.803,461.606,202.803,464.806L202.803,464.806z"/>
</g>
<circle style="fill:#095589;" cx="106.803" cy="120.006" r="56"/>
<path style="fill:#00233F;" d="M162.803,120.006c0,31.2-24.8,56-56,56s-56-24.8-56-56"/>
<ellipse style="fill:#EA2D83;" cx="81.203" cy="120.006" rx="22.4" ry="33.6"/>
<path style="fill:#A0007A;" d="M81.203,153.606c-12,0-22.4-15.2-22.4-33.6s9.6-33.6,22.4-33.6"/>
<path style="fill:#AEC9D3;" d="M54.803,265.606c-2.4,8-10.4,13.6-19.2,11.2l0,0c-8-2.4-13.6-10.4-11.2-19.2l36.8-140
	c2.4-8,10.4-13.6,19.2-11.2l0,0c8,2.4,13.6,10.4,11.2,19.2L54.803,265.606z"/>
<path style="fill:#8DAAB2;" d="M54.803,265.606c-2.4,8-10.4,13.6-19.2,11.2l0,0c-8-2.4-13.6-10.4-11.2-19.2l36.8-140
	c2.4-8,10.4-13.6,19.2-11.2l0,0"/>
<path style="fill:#EA2D83;" d="M126.803,273.606c0,13.6-11.2,28-24.8,28h-75.2c-13.6,0-16.8-14.4-16.8-28l0,0
	c0-13.6,11.2-28,24.8-28h75.2C123.603,245.606,126.803,260.006,126.803,273.606L126.803,273.606z"/>
<path style="fill:#A0007A;" d="M126.803,274.406L126.803,274.406c0,13.6-11.2,27.2-24.8,27.2h-75.2c-13.6,0-16.8-12.8-16.8-27.2l0,0
	c0-13.6,9.6-28.8,24.8-28.8"/>
<path style="fill:#FFFB76;" d="M114.003,274.406c0,3.2-0.8,6.4-4,6.4l0,0c-3.2,0-4-3.2-4-6.4v-9.6c0-3.2,0.8-6.4,4-6.4l0,0
	c3.2,0,4,3.2,4,6.4V274.406z"/>
<g>
	<path style="fill:#8DAAB2;" d="M150.003,108.006c0,1.6-0.8,2.4-2.4,2.4h-16c-1.6,0-2.4-0.8-2.4-2.4l0,0c0-1.6,0.8-2.4,2.4-2.4h16
		C148.403,105.606,150.003,106.406,150.003,108.006L150.003,108.006z"/>
	<path style="fill:#8DAAB2;" d="M142.803,92.806c0,1.6-0.8,2.4-2.4,2.4h-16c-1.6,0-2.4-0.8-2.4-2.4l0,0c0-1.6,0.8-2.4,2.4-2.4h16
		C142.003,90.406,142.803,91.206,142.803,92.806L142.803,92.806z"/>
</g>
<g>
	<path style="fill:#AEC9D3;" d="M114.003,354.406c0,1.6-1.6,3.2-3.2,3.2h-33.6c-1.6,0-3.2-1.6-3.2-3.2v-1.6c0-1.6,1.6-3.2,3.2-3.2
		h33.6c1.6,0,3.2,1.6,3.2,3.2V354.406z"/>
	<path style="fill:#AEC9D3;" d="M114.003,370.406c0,1.6-1.6,3.2-3.2,3.2h-33.6c-1.6,0-3.2-1.6-3.2-3.2v-1.6c0-1.6,1.6-3.2,3.2-3.2
		h33.6c1.6,0,3.2,1.6,3.2,3.2V370.406z"/>
	<path style="fill:#AEC9D3;" d="M114.003,386.406c0,1.6-1.6,3.2-3.2,3.2h-33.6c-1.6,0-3.2-1.6-3.2-3.2v-1.6c0-1.6,1.6-3.2,3.2-3.2
		h33.6c1.6,0,3.2,1.6,3.2,3.2V386.406z"/>
</g>
<g>
	<path style="fill:#8DAAB2;" d="M170.003,260.006c-1.6,0-3.2-1.6-3.2-3.2l0,0c0-1.6,1.6-3.2,3.2-3.2h84.8c1.6,0,3.2,1.6,3.2,3.2l0,0
		c0,1.6-1.6,3.2-3.2,3.2"/>
	<path style="fill:#8DAAB2;" d="M258.003,282.406c0,1.6-1.6,3.2-3.2,3.2h-81.6c-1.6,0-3.2-1.6-3.2-3.2v-1.6c0-1.6,1.6-3.2,3.2-3.2
		h81.6c1.6,0,3.2,1.6,3.2,3.2V282.406z"/>
	<path style="fill:#8DAAB2;" d="M258.003,306.406c0,1.6-1.6,3.2-3.2,3.2h-81.6c-1.6,0-3.2-1.6-3.2-3.2v-1.6c0-1.6,1.6-3.2,3.2-3.2
		h81.6c1.6,0,3.2,1.6,3.2,3.2V306.406z"/>
</g>
<ellipse style="fill:#FFFB76;" cx="270.803" cy="69.606" rx="61.6" ry="15.2"/>
<g>
	<path style="fill:#FFD67B;" d="M332.403,69.606c0,8.8-27.2,15.2-61.6,15.2s-61.6-7.2-61.6-15.2"/>
	<ellipse style="fill:#FFD67B;" cx="285.203" cy="117.606" rx="4" ry="6.4"/>
	<ellipse style="fill:#FFD67B;" cx="285.203" cy="144.006" rx="4" ry="6.4"/>
	<ellipse style="fill:#FFD67B;" cx="285.203" cy="170.406" rx="4" ry="6.4"/>
</g>
<g>
</g>
<g>
</g>
<g>
</g>
<g>
</g>
<g>
</g>
<g>
</g>
<g>
</g>
<g>
</g>
<g>
</g>
<g>
</g>
<g>
</g>
<g>
</g>
<g>
</g>
<g>
</g>
<g>
</g>
</svg>
