<svg xmlns="http://www.w3.org/2000/svg" id="Capa_1" width="512" height="512" enable-background="new 0 0 512 512" viewBox="0 0 512 512"><g><g id="_x3C_Group_x3E__35_"><path fill="#f5fcff" d="m493.405 204.183c7.209 19.196 11.092 39.598 11.092 60.748 0 35.171-8.807 68.273-25.062 97.198-36.073 64.186-110.829 104.802-205.438 104.802-63.422 0-92.026-16.236-111.604-27.805-9.945-5.877-22.127-6.527-32.606-1.669l-55.959 25.945c-9.942 4.609-21.31-2.65-21.31-13.608v-46.224l-30-72.976c-8.444-20.614-13.021-42.698-13.021-65.663 0-22.943 4.569-45.006 12.997-65.603 3.489-7.99 6.375-17.869 13.157-28.651 6.503-10.338 14.749-21.506 25.176-32.637 19.493-20.809 39.488-33.882 53.845-41.751 23.526-12.895 73.788-36.358 141.326-36.358 20.74 0 72.797.529 128.902 29.701 35.866 18.649 57.751 40.866 63.502 46.875 24.037 25.118 37.574 50.64 45.003 67.676z"/><path fill="#e6f7fe" d="m295.997 439.931c-63.422 0-115.026-15.236-134.604-26.805-9.945-5.877-22.127-6.527-32.606-1.669l-36.599 15.376c-6.803 2.858-14.393-1.852-14.851-9.217l-.304-4.885c-.81-13.019-3.587-25.841-8.237-38.028l-28.277-74.108c-8.444-20.614-13.021-42.698-13.021-65.663-.372-44.04 9.738-66.724 9.738-66.724-7.612 11.742-12.988 22.525-16.742 31.122-8.428 20.597-12.997 42.66-12.997 65.603 0 22.965 4.578 45.049 13.021 65.663l21.669 55.599c5.506 14.128 8.331 29.158 8.331 44.32v23.281c0 10.958 11.368 18.218 21.31 13.608l55.959-25.945c10.48-4.859 22.662-4.208 32.606 1.669 19.578 11.569 52.182 26.805 115.604 26.805 96.035 0 169.544-44.946 205.035-110.725-39.709 49.059-104.435 80.723-185.035 80.723z"/><g><g><path fill="#faf063" d="m100.804 385.325c-7.305 0-13.096-.012-17.699-.033-20.932-.093-35.844-15.087-35.844-36.019v-230.678c0-11.694 7.003-21.73 18.417-22.685.719-.06 1.448-.084 2.184-.07 12.053.226 21.754 10.067 21.754 22.174v218.612c0 3.499 2.831 6.337 6.331 6.337 22.984 0 55.706-.103 79.114-.208h.101c9.952 0 48.801 22.443 48.801 22.443v19.914c0-.001-106.965.213-123.159.213z"/></g></g><path fill="#f5de46" d="m120.804 367.325c-15.29 0-23.946-.052-28.959-.126-14.749-.216-26.584-12.246-26.584-26.997v-241.607c0-.898.059-1.784.162-2.659-11.293 1.082-20.162 11.052-20.162 22.659v230.678c0 20.932 16.913 37.926 37.845 38.019 4.603.021 10.394.032 17.698.032 16.194 0 123.16-.214 123.16-.214v-19.96c-31.771.062-91.399.175-103.16.175z"/><g><path fill="#faf063" d="m223.963 385.319c-52.41 0-93.049-40.639-93.049-93.049 0-29.06 11.109-55.116 31.724-72.565 16.564-14.02 37.975-22.484 61.325-22.484 52.411 0 95.049 42.639 95.049 95.049s-42.638 93.049-95.049 93.049zm0-143.742c-27.952 0-50.693 22.741-50.693 50.693s22.741 50.693 50.693 50.693 50.693-22.741 50.693-50.693-22.741-50.693-50.693-50.693z"/></g><g><path fill="#f5de46" d="m238.963 372.319c-52.41 0-95.049-42.639-95.049-95.049 0-22.392 7.788-42.996 20.791-59.258-21.8 17.432-35.791 44.24-35.791 74.258 0 52.41 42.639 95.049 95.049 95.049 30.018 0 56.826-13.991 74.258-35.791-16.261 13.003-36.866 20.791-59.258 20.791z"/></g><g><g><path fill="#faf063" d="m334.199 383.325c-7.305 0-13.096-.012-17.699-.033-20.932-.093-37.844-17.087-37.844-38.019v-220.678c0-11.607 4.868-27.58 16.161-28.662.802-.077 1.616-.109 2.44-.093 12.053.226 21.754 10.067 21.754 22.174v218.613c0 3.499 2.831 6.336 6.33 6.337 22.982.001 59.183-.208 59.216-.208 12.073 0 21.911 9.657 22.171 21.692.267 12.409-6.245 18.611-18.657 18.667-34.304.152-37.769.21-53.872.21z"/></g></g><path fill="#f5de46" d="m404.072 367.113c-34.305.153-37.77.211-53.873.211-15.289 0-23.945-.052-28.959-.126-14.749-.216-26.584-12.246-26.584-26.997v-241.607c0-.898.059-1.784.162-2.659-11.293 1.082-20.162 11.052-20.162 22.659v230.678c0 20.932 16.913 37.926 37.845 38.019 4.603.021 10.394.032 17.698.032 16.103 0 19.568-.058 53.873-.211 11.565-.052 21.476-8.914 22.559-20.161-.842.101-1.695.159-2.559.162z"/><path fill="#e27f86" d="m412.912 290.38-13.277-4.085c-7.568-2.028-12.407-9.416-11.242-17.164l32.008-198.666c2.232-14.839 10.199-27.052 23.133-28.303 8.327-.806 17.082 1.801 23.959 8.588l28.027 27.662c8.578 8.466 11.294 21.225 6.908 32.451l-67.683 173.237-.536 1.371c-2.854 7.308-13.718 6.94-21.297 4.909z"/><path fill="#df646e" d="m416.912 279.658c-7.568-2.028-12.407-9.416-11.242-17.164l30.797-204.758c.932-6.196 3.555-11.453 7.231-15.572-12.996 1.188-24.99 10.672-27.231 25.572l-30.797 204.758c-1.165 7.748 3.673 15.136 11.242 17.164l18.97 5.083c7.579 2.031 15.473-1.962 18.328-9.27l.417-1.066z"/><path fill="#e27f86" d="m418.645 365.091c0-19.054-15.446-34.5-34.5-34.5-4.316 0-8.447.793-12.255 2.24-13.004 4.943-21.245 17.522-21.245 32.26 0 19.054 14.446 33.5 33.5 33.5 14.736 0 27.314-8.239 32.258-21.24 1.449-3.809 2.242-7.942 2.242-12.26z"/><path fill="#df646e" d="m404.145 379.591c-19.054 0-34.5-15.446-34.5-34.5 0-4.316.8-8.444 2.247-12.253-13.003 4.943-22.247 17.515-22.247 32.253 0 19.054 15.446 34.5 34.5 34.5 14.737 0 27.31-9.244 32.253-22.247-3.809 1.447-7.937 2.247-12.253 2.247z"/></g><g><path d="m83.105 394.788 140.857.026h.001c19.457 0 38.122-5.404 54.428-15.674 8.311 9.525 20.501 15.587 34.075 15.648 11.319.051 28.78.043 41.975-.036 7.606 7.616 18.113 12.334 29.702 12.334 23.159 0 42-18.841 42-41.999s-18.841-41.999-42-41.999c-11.574 0-22.07 4.706-29.674 12.305-9.381.036-19.479.064-27.958.066v-217.441c0-16.06-13.06-29.371-29.113-29.672-15.246-.614-30.5 13.519-30.243 30.253v80.687c-13.47-6.275-28.178-9.564-43.192-9.564-56.545 0-102.548 46.002-102.548 102.546 0 15.402 3.42 30.018 9.529 43.138-10.645.028-22.833.051-33.827.053v-136.588c0-4.142-3.358-7.5-7.5-7.5s-7.5 3.358-7.5 7.5v137.752c0 7.63 6.205 13.836 13.83 13.836 14.373 0 30.981-.039 43.573-.077 8.177 11.844 18.775 21.894 31.079 29.422l-87.461-.016c-16.75-.075-30.377-13.765-30.377-30.518v-230.671c-.07-6.816 6.079-15.444 14.961-15.256 7.937.149 14.395 6.732 14.395 14.675v45.685c0 4.142 3.358 7.5 7.5 7.5s7.5-3.358 7.5-7.5v-45.685c0-16.06-13.06-29.371-29.113-29.672-15.243-.628-30.499 13.526-30.242 30.253v230.672c.001 24.987 20.327 45.406 45.343 45.517zm328.038-29.7c0 14.887-12.112 26.999-27 26.999-14.019-.123-26.907-11.423-27-26.999 0-14.887 12.112-26.999 27-26.999s27 12.111 27 26.999zm-124.309-257.548c2.83-2.778 6.448-4.278 10.283-4.198 7.937.149 14.394 6.732 14.394 14.675v218.606c0 7.629 6.204 13.836 13.83 13.836h.196c5.845 0 12.531-.014 19.252-.034-1.707 4.567-2.646 9.506-2.646 14.661 0 5.173.946 10.129 2.665 14.709-7.836.034-23.764.033-32.276-.008-16.75-.075-30.378-13.765-30.378-30.518 0-55.666 0-176.088 0-230.672.001-4.108 1.706-8.138 4.68-11.057zm-150.418 184.729c0-48.273 39.274-87.547 87.548-87.547 15.211 0 30.055 3.947 43.192 11.43v37.167c-10.658-11.807-26.072-19.241-43.192-19.241-32.088 0-58.192 26.104-58.192 58.191 0 14.88 5.633 29.048 15.861 39.895 2.842 3.014 7.588 3.154 10.602.311 3.014-2.842 3.153-7.588.311-10.602-7.593-8.052-11.774-18.565-11.774-29.604 0-23.816 19.376-43.192 43.192-43.192s43.192 19.376 43.192 43.192-19.376 43.191-43.192 43.191c-1.676 0-3.363-.097-5.014-.289-4.115-.471-7.836 2.472-8.314 6.586-.477 4.115 2.472 7.837 6.586 8.314 2.222.257 4.49.388 6.742.388 17.12 0 32.534-7.435 43.192-19.241v18.052c0 6.045 1.199 11.818 3.356 17.105-13.938 8.804-29.903 13.439-46.548 13.439-48.274.001-87.548-39.272-87.548-87.545z"/><path d="m399.757 178.831c4.081.614 7.915-2.204 8.532-6.301l15.594-103.674c1.95-17.366 25.447-25.91 38.34-12.762l28.026 27.662c6.453 6.367 8.49 15.938 5.191 24.382l-68.217 174.602c-1.467 3.754-5.514 5.798-9.401 4.755l-18.971-5.083c-3.886-1.041-6.364-4.826-5.766-8.803l10.025-66.653c.615-4.096-2.205-7.916-6.302-8.532-4.084-.619-7.916 2.204-8.532 6.301l-10.025 66.653c-1.733 11.532 5.453 22.505 16.717 25.523l18.971 5.083c1.985.532 3.981.787 5.951.787 9.224-.001 17.8-5.603 21.303-14.571l68.217-174.602c5.482-14.032 2.097-29.936-8.625-40.517l-28.025-27.662c-22.976-22.311-59.46-7.705-63.711 21.206l-15.594 103.673c-.615 4.097 2.205 7.917 6.302 8.533z"/><path d="m114.68 103.795c1.261 0 2.541-.319 3.714-.989 40.497-23.138 88.079-35.369 137.604-35.369 44.42 0 87.831 9.995 125.539 28.904 3.702 1.858 8.21.359 10.066-3.342 1.857-3.703.36-8.209-3.342-10.066-39.785-19.951-85.521-30.496-132.263-30.496-52.13 0-102.286 12.914-145.045 37.344-3.597 2.055-4.846 6.637-2.791 10.233 1.384 2.423 3.914 3.781 6.518 3.781z"/><path d="m15 264.931c0-21.475 4.185-42.591 12.438-62.761 1.569-3.834-.268-8.213-4.101-9.781-3.837-1.568-8.213.268-9.782 4.101-8.994 21.981-13.555 45.008-13.555 68.441 0 23.455 4.569 46.503 13.58 68.504 1.189 2.903 3.989 4.659 6.943 4.659.946 0 1.91-.181 2.84-.561 3.833-1.57 5.667-5.95 4.098-9.783-8.269-20.188-12.461-41.323-12.461-62.819z"/><path d="m383.003 440.109c-31.964 14.808-67.965 22.316-107.006 22.316-60.44 0-91.49-13.767-111.787-25.761-12.092-7.145-26.887-7.898-39.576-2.016l-55.958 25.944c-2.37 1.099-4.99.922-7.191-.483s-3.463-3.709-3.463-6.321v-46.223c0-4.142-3.358-7.5-7.5-7.5s-7.5 3.358-7.5 7.5v46.223c0 7.719 3.884 14.808 10.39 18.962 6.505 4.155 14.571 4.697 21.574 1.45l55.958-25.944c8.209-3.807 17.793-3.313 25.636 1.321 20.231 11.954 54.62 27.847 119.418 27.847 41.235 0 79.358-7.976 113.31-23.705 3.759-1.741 5.393-6.2 3.652-9.958-1.74-3.757-6.2-5.394-9.957-3.652z"/><path d="m490.767 197.163c-3.878 1.456-5.841 5.78-4.385 9.657 7.043 18.751 10.613 38.303 10.613 58.11 0 64.547-30.814 122.354-84.54 158.6-3.434 2.316-4.34 6.978-2.023 10.411 1.449 2.148 3.815 3.307 6.225 3.307 1.443 0 2.901-.416 4.187-1.284 57.928-39.079 91.151-101.419 91.151-171.034 0-21.615-3.893-42.94-11.57-63.383-1.457-3.877-5.782-5.838-9.658-4.384z"/></g></g></svg>