<?xml version="1.0" encoding="utf-8"?><svg xml:space="preserve" viewBox="0 0 100 100" y="0" x="0" xmlns="http://www.w3.org/2000/svg" id="圖層_1" version="1.1" width="200px" height="200px" xmlns:xlink="http://www.w3.org/1999/xlink" style="width:100%;height:100%;background-color:rgb(255, 255, 255);animation-play-state:paused" ><g class="ldl-scale" style="transform-origin:50% 50% 0px;transform:rotate(0deg) scale(0.8);animation-play-state:paused" ><g style="animation-play-state:paused" ><path fill="#abbd81" d="M50.906 24.68H22.564c-3.498 3.575-5.656 8.466-5.656 13.863s2.158 10.288 5.656 13.863h28.342c3.498-3.575 5.656-8.466 5.656-13.863s-2.158-10.288-5.656-13.863z" style="fill:rgb(171, 189, 129);animation-play-state:paused" ></path>
<path fill="#849b87" d="M7.5 55.212h58.47V21.875H7.5v33.337zM22.564 24.68h28.342c3.498 3.575 5.656 8.466 5.656 13.863s-2.158 10.288-5.656 13.863H22.564c-3.498-3.575-5.656-8.466-5.656-13.863s2.158-10.288 5.656-13.863z" style="fill:rgb(132, 155, 135);animation-play-state:paused" ></path>
<path fill="#f5e6c8" d="M35.74 39.78c1.908.645 2.733 1.264 2.733 2.243 0 1.032-1.005 1.598-2.475 1.598a8.676 8.676 0 0 1-2.788-.479c-.819-.279-1.704.171-1.919 1.009l-.031.121a1.488 1.488 0 0 0 .971 1.786c.897.294 1.986.504 3.096.553v1.186c0 .698.566 1.263 1.263 1.263h.001c.698 0 1.263-.566 1.263-1.263V46.43c2.964-.515 4.589-2.475 4.589-4.77 0-2.32-1.238-3.738-4.306-4.821-2.191-.825-3.094-1.366-3.094-2.217 0-.723.541-1.444 2.217-1.444.92 0 1.676.146 2.286.327.8.238 1.634-.257 1.841-1.066a1.497 1.497 0 0 0-1.083-1.818 11.062 11.062 0 0 0-2.322-.332v-1.005a1.263 1.263 0 0 0-2.526 0v1.186c-2.759.541-4.358 2.32-4.358 4.589.002 2.504 1.884 3.793 4.642 4.721z" style="fill:rgb(245, 230, 200);animation-play-state:paused" ></path></g>
<g style="animation-play-state:paused" ><path fill="#abbd81" d="M63.664 36.064H35.321c-3.498 3.575-5.656 8.466-5.656 13.863s2.158 10.288 5.656 13.863h28.342c3.498-3.575 5.656-8.466 5.656-13.863s-2.157-10.288-5.655-13.863z" style="fill:rgb(171, 189, 129);animation-play-state:paused" ></path>
<path fill="#849b87" d="M20.257 66.596h58.47V33.259h-58.47v33.337zm15.064-30.532h28.342c3.498 3.575 5.656 8.466 5.656 13.863s-2.158 10.288-5.656 13.863H35.322c-3.498-3.575-5.656-8.466-5.656-13.863s2.157-10.288 5.655-13.863z" style="fill:rgb(132, 155, 135);animation-play-state:paused" ></path>
<path fill="#f5e6c8" d="M48.498 51.164c1.908.645 2.733 1.264 2.733 2.243 0 1.032-1.005 1.598-2.475 1.598a8.676 8.676 0 0 1-2.788-.479c-.819-.279-1.704.171-1.919 1.009l-.031.121a1.488 1.488 0 0 0 .971 1.786c.897.294 1.986.504 3.096.553v1.186c0 .698.566 1.263 1.263 1.263h.001c.698 0 1.263-.566 1.263-1.263v-1.367c2.964-.515 4.589-2.475 4.589-4.77 0-2.32-1.238-3.738-4.306-4.821-2.191-.825-3.094-1.366-3.094-2.217 0-.723.541-1.444 2.217-1.444.92 0 1.676.146 2.286.327.8.238 1.634-.257 1.841-1.066a1.497 1.497 0 0 0-1.083-1.818 11.062 11.062 0 0 0-2.322-.332v-1.005a1.263 1.263 0 0 0-2.526 0v1.186c-2.759.541-4.358 2.32-4.358 4.589.001 2.504 1.883 3.793 4.642 4.721z" style="fill:rgb(245, 230, 200);animation-play-state:paused" ></path></g>
<g style="animation-play-state:paused" ><path fill="#abbd81" d="M77.436 47.593H49.094c-3.498 3.575-5.656 8.466-5.656 13.863s2.158 10.288 5.656 13.863h28.342c3.498-3.575 5.656-8.466 5.656-13.863s-2.158-10.288-5.656-13.863z" style="fill:rgb(171, 189, 129);animation-play-state:paused" ></path>
<path fill="#849b87" d="M34.03 78.125H92.5V44.788H34.03v33.337zm15.064-30.532h28.342c3.498 3.575 5.656 8.466 5.656 13.863s-2.158 10.288-5.656 13.863H49.094c-3.498-3.575-5.656-8.466-5.656-13.863s2.158-10.288 5.656-13.863z" style="fill:rgb(132, 155, 135);animation-play-state:paused" ></path>
<path fill="#f5e6c8" d="M62.27 62.694c1.908.645 2.733 1.264 2.733 2.243 0 1.032-1.005 1.598-2.475 1.598a8.676 8.676 0 0 1-2.788-.479c-.819-.279-1.704.171-1.919 1.009l-.031.121a1.488 1.488 0 0 0 .971 1.786c.897.294 1.986.504 3.096.553v1.186c0 .698.566 1.263 1.263 1.263h.001c.698 0 1.263-.566 1.263-1.263v-1.367c2.964-.515 4.589-2.475 4.589-4.77 0-2.32-1.238-3.738-4.306-4.821-2.191-.825-3.094-1.366-3.094-2.217 0-.723.541-1.444 2.217-1.444.92 0 1.676.146 2.286.327.8.238 1.634-.257 1.841-1.066a1.497 1.497 0 0 0-1.083-1.818 11.062 11.062 0 0 0-2.322-.332v-1.005a1.263 1.263 0 0 0-2.526 0v1.186c-2.759.541-4.358 2.32-4.358 4.589.001 2.503 1.883 3.793 4.642 4.721z" style="fill:rgb(245, 230, 200);animation-play-state:paused" ></path></g>
<metadata xmlns:d="https://loading.io/stock/" style="animation-play-state:paused" ><d:name style="animation-play-state:paused" >paper money</d:name>
<d:tags style="animation-play-state:paused" >paper money,price,money,dollar,bucks,sale,value,currency</d:tags>
<d:license style="animation-play-state:paused" >by</d:license>
<d:slug style="animation-play-state:paused" >rccwdo</d:slug></metadata></g><!-- generated by https://loading.io/ --></svg>