<svg xmlns="http://www.w3.org/2000/svg" width="72" height="72"><g><g id="svg_8"><path id="svg_1" fill="#fefdef" d="m44.5,0l20.5,20.5l0,42.5c0,3.866 -3.134,7 -7,7l-44,0c-3.866,0 -7,-3.134 -7,-7l0,-56c0,-3.866 3.134,-7 7,-7l30.5,0z"/><path id="svg_2" fill="#6474a6" d="m26.999,48.5c-0.346,0 -0.692,-0.118 -0.976,-0.361l-7,-6c-0.332,-0.285 -0.523,-0.701 -0.523,-1.139s0.191,-0.854 0.523,-1.139l7,-6c0.631,-0.539 1.576,-0.466 2.115,0.162c0.539,0.629 0.467,1.576 -0.162,2.115l-5.671,4.862l5.672,4.861c0.629,0.539 0.701,1.486 0.162,2.115c-0.297,0.346 -0.717,0.524 -1.14,0.524zm18.002,0c0.346,0 0.692,-0.118 0.976,-0.361l7,-6c0.332,-0.285 0.523,-0.701 0.523,-1.139s-0.191,-0.854 -0.523,-1.139l-7,-6c-0.631,-0.539 -1.576,-0.466 -2.115,0.162c-0.539,0.629 -0.467,1.576 0.162,2.115l5.671,4.862l-5.672,4.861c-0.629,0.539 -0.701,1.486 -0.162,2.115c0.297,0.346 0.717,0.524 1.14,0.524zm-13.988,5.986c-0.199,0 -0.402,-0.04 -0.597,-0.124c-0.76,-0.331 -1.108,-1.214 -0.778,-1.974l10.986,-23.992c0.33,-0.761 1.214,-1.105 1.974,-0.778c0.76,0.331 1.108,1.214 0.778,1.974l-10.986,23.991c-0.246,0.566 -0.798,0.903 -1.377,0.903z"/><path id="svg_3" fill="none" stroke="#1f212b" stroke-linecap="round" stroke-linejoin="round" stroke-miterlimit="10" d="m60.5,37.5l0,25c0,1.657 -1.343,3 -3,3l-43,0c-1.657,0 -3,-1.343 -3,-3l0,-55c0,-1.657 1.343,-3 3,-3l13,0m33,26l0,4m0,-9l0,2"/><path id="svg_4" fill="#fef6aa" d="m44.5,0l0,13.5c0,3.866 3.134,7 7,7l13.5,0"/><path id="svg_5" fill="none" stroke="#1f212b" stroke-miterlimit="10" d="m44.5,0l0,13.5c0,3.866 3.134,7 7,7l13.5,0"/><path id="svg_6" fill="none" stroke="#1f212b" stroke-linejoin="round" stroke-miterlimit="10" stroke-width="2" d="m44.5,0l20.5,20.5l0,42.5c0,3.866 -3.134,7 -7,7l-44,0c-3.866,0 -7,-3.134 -7,-7l0,-56c0,-3.866 3.134,-7 7,-7l30.5,0z"/><path id="svg_7" fill="none" stroke="#000" stroke-linejoin="round" stroke-miterlimit="10" d="m26.999,48.5c-0.346,0 -0.692,-0.118 -0.976,-0.361l-7,-6c-0.332,-0.285 -0.523,-0.701 -0.523,-1.139s0.191,-0.854 0.523,-1.139l7,-6c0.631,-0.539 1.576,-0.466 2.115,0.162c0.539,0.629 0.467,1.576 -0.162,2.115l-5.671,4.862l5.672,4.861c0.629,0.539 0.701,1.486 0.162,2.115c-0.297,0.346 -0.717,0.524 -1.14,0.524zm18.002,0c0.346,0 0.692,-0.118 0.976,-0.361l7,-6c0.332,-0.285 0.523,-0.701 0.523,-1.139s-0.191,-0.854 -0.523,-1.139l-7,-6c-0.631,-0.539 -1.576,-0.466 -2.115,0.162c-0.539,0.629 -0.467,1.576 0.162,2.115l5.671,4.862l-5.672,4.861c-0.629,0.539 -0.701,1.486 -0.162,2.115c0.297,0.346 0.717,0.524 1.14,0.524zm-13.988,5.986c-0.199,0 -0.402,-0.04 -0.597,-0.124c-0.76,-0.331 -1.108,-1.214 -0.778,-1.974l10.986,-23.992c0.33,-0.761 1.214,-1.105 1.974,-0.778c0.76,0.331 1.108,1.214 0.778,1.974l-10.986,23.991c-0.246,0.566 -0.798,0.903 -1.377,0.903z"/></g></g></svg>