<?xml version="1.0" encoding="utf-8"?><svg xml:space="preserve" viewBox="0 0 100 100" y="0px" x="0px" xmlns:xlink="http://www.w3.org/1999/xlink" xmlns="http://www.w3.org/2000/svg" id="Layer_1" version="1.1" width="194px" height="194px" style="width:100%;height:100%;animation-play-state:paused" ><g class="ldl-scale" style="transform-origin:50% 50% 0px;transform:rotate(18deg) scale(1);animation-play-state:paused" ><path d="M88.22,28.03c-0.78-1.66-2.8-2.32-4.39-1.41l-0.01,0.01c1.59-0.92,2.04-2.99,0.99-4.5C78.19,12.66,67.58,6.17,55.41,5.15 C53.58,4.99,52,6.41,52,8.25v0.01c0-1.83-1.58-3.26-3.4-3.1c-11.52,0.99-22.43,6.94-29.41,16.96c-1.05,1.51-0.61,3.59,0.98,4.51 l2.49,1.44l-2.48-1.43c-1.59-0.92-3.61-0.27-4.39,1.39c-4.9,10.47-5.21,22.9-0.01,33.95c0.78,1.66,2.8,2.32,4.39,1.41l6.81-3.93 c-5.35-9.26-4.98-20.24,0-28.89l0,0C32.33,21.3,42.03,16.13,52,16.12v0c10.69,0,20.02,5.81,25.01,14.45l0,0 c5.35,9.26,4.98,20.24,0,28.89l0,0C71.67,68.7,61.97,73.87,52,73.88v7.86c0,1.83,1.58,3.26,3.4,3.1 c11.52-0.99,22.43-6.94,29.41-16.96c1.05-1.51,0.61-3.59-0.98-4.51l-2.49-1.44l2.48,1.43c1.59,0.92,3.61,0.27,4.39-1.39 C93.11,51.51,93.41,39.08,88.22,28.03z" stroke-miterlimit="10" stroke-linejoin="round" stroke-linecap="round" stroke-width="3.5" stroke="#323334" fill="#F6B26A" style="stroke:rgb(50, 51, 52);fill:rgb(246, 178, 106);animation-play-state:paused" ></path>
<path d="M77.02,30.56L77.02,30.56c-5-8.63-14.33-14.44-25.02-14.44v0c-9.97,0.01-19.67,5.18-25.02,14.44l0,0c-4.98,8.64-5.35,19.63,0,28.89 L52,45v28.88c9.97-0.01,19.67-5.18,25.02-14.44l0,0C81.99,50.8,82.36,39.82,77.02,30.56z" stroke-miterlimit="10" stroke-linejoin="round" stroke-linecap="round" stroke-width="3.5" stroke="#323334" fill="#F5E169" style="stroke:rgb(50, 51, 52);fill:rgb(245, 225, 105);animation-play-state:paused" ></path>
<path d="M40.61,31.83c0,0,1.37,5.79-1.42,8.89s-8.69,2.34-8.69,2.34s-1.37-5.79,1.42-8.89C34.72,31.07,40.61,31.83,40.61,31.83z" stroke-miterlimit="10" stroke-linejoin="round" stroke-linecap="round" stroke-width="3.5" stroke="#323334" fill="#849B87" style="stroke:rgb(50, 51, 52);fill:rgb(132, 155, 135);animation-play-state:paused" ></path>
<path d="M71.98,37.38c0,0-4.86,3.42-8.78,1.99s-5.41-7.19-5.41-7.19s4.86-3.42,8.78-1.99C70.49,31.63,71.98,37.38,71.98,37.38z" stroke-miterlimit="10" stroke-linejoin="round" stroke-linecap="round" stroke-width="3.5" stroke="#323334" fill="#849B87" style="stroke:rgb(50, 51, 52);fill:rgb(132, 155, 135);animation-play-state:paused" ></path>
<line y2="52.17" x2="57.24" y1="51.4" x1="57.68" stroke-miterlimit="10" stroke-linejoin="round" stroke-linecap="round" stroke-width="3.5" stroke="#323334" fill="none" style="stroke:rgb(50, 51, 52);animation-play-state:paused" ></line>
<line y2="46.8" x2="63.66" y1="44.35" x1="58.6" stroke-miterlimit="10" stroke-linejoin="round" stroke-linecap="round" stroke-width="3.5" stroke="#323334" fill="none" style="stroke:rgb(50, 51, 52);animation-play-state:paused" ></line>
<line y2="46.19" x2="73.1" y1="46.83" x1="72.48" stroke-miterlimit="10" stroke-linejoin="round" stroke-linecap="round" stroke-width="3.5" stroke="#323334" fill="none" style="stroke:rgb(50, 51, 52);animation-play-state:paused" ></line>
<line y2="25.45" x2="57.33" y1="25.45" x1="56.44" stroke-miterlimit="10" stroke-linejoin="round" stroke-linecap="round" stroke-width="3.5" stroke="#323334" fill="none" style="stroke:rgb(50, 51, 52);animation-play-state:paused" ></line>
<line y2="44.94" x2="39.65" y1="45.71" x1="40.1" stroke-miterlimit="10" stroke-linejoin="round" stroke-linecap="round" stroke-width="3.5" stroke="#323334" fill="none" style="stroke:rgb(50, 51, 52);animation-play-state:paused" ></line>
<circle r="4.89" cy="57.01" cx="66.77" stroke-miterlimit="10" stroke-width="3.5" stroke="#323334" fill="#C33836" style="stroke:rgb(50, 51, 52);fill:rgb(195, 56, 54);animation-play-state:paused" ></circle>
<circle r="4.89" cy="27.67" cx="45.43" stroke-miterlimit="10" stroke-width="3.5" stroke="#323334" fill="#C33836" style="stroke:rgb(50, 51, 52);fill:rgb(195, 56, 54);animation-play-state:paused" ></circle>
<line y2="37.83" x2="50.32" y1="38.6" x1="49.87" stroke-miterlimit="10" stroke-linejoin="round" stroke-linecap="round" stroke-width="3.5" stroke="#323334" fill="none" style="stroke:rgb(50, 51, 52);animation-play-state:paused" ></line>
<g style="animation-play-state:paused" ><path d="M19.99,70.44l-6.81,3.93c-1.59,0.92-2.04,2.99-0.99,4.5c6.62,9.48,17.23,15.96,29.39,16.99c1.83,0.15,3.41-1.26,3.41-3.1v-7.87 C34.31,84.89,24.98,79.07,19.99,70.44z" stroke-miterlimit="10" stroke-linejoin="round" stroke-linecap="round" stroke-width="3.5" stroke="#323334" fill="#F6B26A" style="stroke:rgb(50, 51, 52);fill:rgb(246, 178, 106);animation-play-state:paused" ></path>
<path d="M45,84.89V56L19.99,70.44C24.98,79.07,34.31,84.89,45,84.89z" stroke-miterlimit="10" stroke-linejoin="round" stroke-linecap="round" stroke-width="3.5" stroke="#323334" fill="#F5E169" style="stroke:rgb(50, 51, 52);fill:rgb(245, 225, 105);animation-play-state:paused" ></path>
<line y2="70.18" x2="30.07" y1="72.93" x1="30.6" stroke-miterlimit="10" stroke-linejoin="round" stroke-linecap="round" stroke-width="3.5" stroke="#323334" fill="none" style="stroke:rgb(50, 51, 52);animation-play-state:paused" ></line>
<path d="M35.69,71.62c0,0,1.49,5.75,5.41,7.19c0.97,0.36,2.01,0.41,3.01,0.3l-0.09-9.61C40.18,68.46,35.69,71.62,35.69,71.62z" stroke-miterlimit="10" stroke-linejoin="round" stroke-linecap="round" stroke-width="3.5" stroke="#323334" fill="#849B87" style="stroke:rgb(50, 51, 52);fill:rgb(132, 155, 135);animation-play-state:paused" ></path></g>
<path d="M52.46,58.63c-0.15-0.05-0.3-0.09-0.45-0.13l0.09,9.61c3.03-0.35,5.77-2.28,5.77-2.28S56.38,60.07,52.46,58.63z" stroke-miterlimit="10" stroke-linejoin="round" stroke-linecap="round" stroke-width="3.5" stroke="#323334" fill="#849B87" style="stroke:rgb(50, 51, 52);fill:rgb(132, 155, 135);animation-play-state:paused" ></path>
<metadata xmlns:d="https://loading.io/stock/" style="animation-play-state:paused" ><d:name style="animation-play-state:paused" >pizza</d:name>


<d:tags style="animation-play-state:paused" >pizza,delicious,food,yummy,bread,cheese,pepper,vegetable,broccoli,sausage</d:tags>


<d:license style="animation-play-state:paused" >by</d:license>


<d:slug style="animation-play-state:paused" >1g0ru8</d:slug></metadata></g><!-- generated by https://loading.io/ --></svg>