<svg xmlns="http://www.w3.org/2000/svg" width="512" height="512" viewBox="0 0 128 128"><g><path fill="#dfeef4" d="m107.427 84.289h-30.155a182.929 182.929 0 0 1 -13.272 18.371 182.929 182.929 0 0 1 -13.272-18.371h-30.155l-14.267 37.405h115.388z"/><path fill="#f45858" d="m64 6.31a30.711 30.711 0 0 0 -30.71 30.71c-.18 29.3 30.71 65.64 30.71 65.64s30.89-36.34 30.71-65.64a30.711 30.711 0 0 0 -30.71-30.71zm0 43.74a13.03 13.03 0 1 1 13.03-13.03 13.025 13.025 0 0 1 -13.03 13.03z"/><path fill="#f2da30" d="m110.74 92.96-57.58 20.48-22.44-29.15h20.01a182.752 182.752 0 0 0 13.27 18.37 182.752 182.752 0 0 0 13.27-18.37h30.16z"/><path fill="#3ea2e5" d="m29.96 121.694 56.996-20.274 15.604 20.274z"/></g></svg>