<svg width="65" height="65" xmlns="http://www.w3.org/2000/svg"><g><path id="svg_1" d="m52,64l-39,0c-6.6,0 -12,-5.4 -12,-12l0,-39c0,-6.6 5.4,-12 12,-12l39,0c6.6,0 12,5.4 12,12l0,39c0,6.6 -5.4,12 -12,12z" fill="#52bea0"/><path id="svg_2" d="m52,65l-39,0c-7.168,0 -13,-5.832 -13,-13l0,-39c0,-7.168 5.832,-13 13,-13l39,0c7.168,0 13,5.832 13,13l0,39c0,7.168 -5.832,13 -13,13zm-39,-63c-6.065,0 -11,4.935 -11,11l0,39c0,6.065 4.935,11 11,11l39,0c6.065,0 11,-4.935 11,-11l0,-39c0,-6.065 -4.935,-11 -11,-11l-39,0z" fill="#1f212b"/><path id="svg_3" d="m59.5,30.5l0,18.663c0,5.685 -4.652,10.337 -10.337,10.337l-33.326,0c-5.685,0 -10.337,-4.652 -10.337,-10.337l0,-33.326c0,-5.685 4.652,-10.337 10.337,-10.337l33.663,0" fill="#52bea0"/><path id="svg_4" d="m49.163,60l-33.326,0c-5.976,0 -10.837,-4.861 -10.837,-10.837l0,-33.326c0,-5.976 4.861,-10.837 10.837,-10.837l33.663,0c0.276,0 0.5,0.224 0.5,0.5s-0.224,0.5 -0.5,0.5l-33.663,0c-5.424,0 -9.837,4.413 -9.837,9.837l0,33.326c0,5.424 4.413,9.837 9.837,9.837l33.326,0c5.424,0 9.837,-4.413 9.837,-9.837l0,-18.663c0,-0.276 0.224,-0.5 0.5,-0.5s0.5,0.224 0.5,0.5l0,18.663c0,5.975 -4.861,10.837 -10.837,10.837zm10.337,-32c-0.276,0 -0.5,-0.224 -0.5,-0.5l0,-4c0,-0.276 0.224,-0.5 0.5,-0.5s0.5,0.224 0.5,0.5l0,4c0,0.276 -0.224,0.5 -0.5,0.5zm0,-6c-0.276,0 -0.5,-0.224 -0.5,-0.5l0,-2c0,-0.276 0.224,-0.5 0.5,-0.5s0.5,0.224 0.5,0.5l0,2c0,0.276 -0.224,0.5 -0.5,0.5z" fill="#1f212b"/><path id="svg_5" d="m21.5,23.5l-4,0c-1.65,0 -3,-1.35 -3,-3l0,-2c0,-1.65 1.35,-3 3,-3l4,0c1.65,0 3,1.35 3,3l0,2c0,1.65 -1.35,3 -3,3z" fill="#fdfcee"/><path id="svg_6" d="m21.5,24l-4,0c-1.93,0 -3.5,-1.57 -3.5,-3.5l0,-2c0,-1.93 1.57,-3.5 3.5,-3.5l4,0c1.93,0 3.5,1.57 3.5,3.5l0,2c0,1.929 -1.57,3.5 -3.5,3.5zm-4,-8c-1.379,0 -2.5,1.122 -2.5,2.5l0,2c0,1.378 1.121,2.5 2.5,2.5l4,0c1.379,0 2.5,-1.122 2.5,-2.5l0,-2c0,-1.378 -1.121,-2.5 -2.5,-2.5l-4,0z" fill="#1f212b"/><path id="svg_7" d="m47.5,23.5l-17,0c-1.65,0 -3,-1.35 -3,-3l0,-2c0,-1.65 1.35,-3 3,-3l17,0c1.65,0 3,1.35 3,3l0,2c0,1.65 -1.35,3 -3,3z" fill="#fdfcee"/><path id="svg_8" d="m47.5,24l-17,0c-1.93,0 -3.5,-1.57 -3.5,-3.5l0,-2c0,-1.93 1.57,-3.5 3.5,-3.5l17,0c1.93,0 3.5,1.57 3.5,3.5l0,2c0,1.929 -1.57,3.5 -3.5,3.5zm-17,-8c-1.379,0 -2.5,1.122 -2.5,2.5l0,2c0,1.378 1.121,2.5 2.5,2.5l17,0c1.379,0 2.5,-1.122 2.5,-2.5l0,-2c0,-1.378 -1.121,-2.5 -2.5,-2.5l-17,0z" fill="#1f212b"/><path id="svg_9" d="m21.5,35.5l-4,0c-1.65,0 -3,-1.35 -3,-3l0,-2c0,-1.65 1.35,-3 3,-3l4,0c1.65,0 3,1.35 3,3l0,2c0,1.65 -1.35,3 -3,3z" fill="#fdfcee"/><path id="svg_10" d="m21.5,36l-4,0c-1.93,0 -3.5,-1.57 -3.5,-3.5l0,-2c0,-1.93 1.57,-3.5 3.5,-3.5l4,0c1.93,0 3.5,1.57 3.5,3.5l0,2c0,1.929 -1.57,3.5 -3.5,3.5zm-4,-8c-1.379,0 -2.5,1.122 -2.5,2.5l0,2c0,1.378 1.121,2.5 2.5,2.5l4,0c1.379,0 2.5,-1.122 2.5,-2.5l0,-2c0,-1.378 -1.121,-2.5 -2.5,-2.5l-4,0z" fill="#1f212b"/><path id="svg_11" d="m47.5,35.5l-17,0c-1.65,0 -3,-1.35 -3,-3l0,-2c0,-1.65 1.35,-3 3,-3l17,0c1.65,0 3,1.35 3,3l0,2c0,1.65 -1.35,3 -3,3z" fill="#fdfcee"/><path id="svg_12" d="m47.5,36l-17,0c-1.93,0 -3.5,-1.57 -3.5,-3.5l0,-2c0,-1.93 1.57,-3.5 3.5,-3.5l17,0c1.93,0 3.5,1.57 3.5,3.5l0,2c0,1.929 -1.57,3.5 -3.5,3.5zm-17,-8c-1.379,0 -2.5,1.122 -2.5,2.5l0,2c0,1.378 1.121,2.5 2.5,2.5l17,0c1.379,0 2.5,-1.122 2.5,-2.5l0,-2c0,-1.378 -1.121,-2.5 -2.5,-2.5l-17,0z" fill="#1f212b"/><path id="svg_13" d="m21.5,48.5l-4,0c-1.65,0 -3,-1.35 -3,-3l0,-2c0,-1.65 1.35,-3 3,-3l4,0c1.65,0 3,1.35 3,3l0,2c0,1.65 -1.35,3 -3,3z" fill="#fdfcee"/><path id="svg_14" d="m21.5,49l-4,0c-1.93,0 -3.5,-1.57 -3.5,-3.5l0,-2c0,-1.93 1.57,-3.5 3.5,-3.5l4,0c1.93,0 3.5,1.57 3.5,3.5l0,2c0,1.929 -1.57,3.5 -3.5,3.5zm-4,-8c-1.379,0 -2.5,1.122 -2.5,2.5l0,2c0,1.378 1.121,2.5 2.5,2.5l4,0c1.379,0 2.5,-1.122 2.5,-2.5l0,-2c0,-1.378 -1.121,-2.5 -2.5,-2.5l-4,0z" fill="#1f212b"/><path id="svg_15" d="m47.5,48.5l-17,0c-1.65,0 -3,-1.35 -3,-3l0,-2c0,-1.65 1.35,-3 3,-3l17,0c1.65,0 3,1.35 3,3l0,2c0,1.65 -1.35,3 -3,3z" fill="#fdfcee"/><path id="svg_16" d="m47.5,49l-17,0c-1.93,0 -3.5,-1.57 -3.5,-3.5l0,-2c0,-1.93 1.57,-3.5 3.5,-3.5l17,0c1.93,0 3.5,1.57 3.5,3.5l0,2c0,1.929 -1.57,3.5 -3.5,3.5zm-17,-8c-1.379,0 -2.5,1.122 -2.5,2.5l0,2c0,1.378 1.121,2.5 2.5,2.5l17,0c1.379,0 2.5,-1.122 2.5,-2.5l0,-2c0,-1.378 -1.121,-2.5 -2.5,-2.5l-17,0z" fill="#1f212b"/></g></svg>