<svg xmlns="http://www.w3.org/2000/svg" id="Capa_1" width="512" height="512" enable-background="new 0 0 512.001 512.001" viewBox="0 0 512.001 512.001"><g><g><path fill="#ff9c9b" d="m234.445 175.194.036 193.175c-5.109-6.699-17.979-10.564-31.753-10.559-39.821.005-72.092 32.291-72.087 72.108.009 39.816 32.296 72.094 72.113 72.083 39.816-.005 72.094-32.292 72.083-72.108l-.03-170.431 154.405-33.193.014 76.337c-5.107-6.698-17.979-10.564-31.751-10.564-39.816.005-72.094 32.292-72.083 72.113.005 39.816 32.292 72.089 72.109 72.083 39.822-.009 72.092-32.291 72.083-72.113l-.041-236.406z"/><g><g><path fill="#eaaacb" d="m141.595 156.062v47.616c-4.895-6.418-16.913-10.122-30.109-10.117-38.153.005-69.072 30.938-69.067 69.087.008 38.148 30.943 69.073 69.092 69.064 38.148-.005 69.074-30.94 69.064-69.087l-.031-170.175 71.42 42.564c0-.894-.009-1.786-.027-2.677-1.071-52.568-36.073-98.427-86.105-114.595l-24.238-7.742v55.65"/></g></g></g><g><path d="m141.59 120.67c-4.235 0-8.104-2.775-9.46-6.786-1.315-3.889-.074-8.339 3.12-10.942 3.291-2.681 8.011-2.986 11.622-.758 3.498 2.158 5.34 6.416 4.528 10.446-.932 4.621-5.095 8.04-9.81 8.04z"/><path d="m111.49 341.711c-21.113 0-40.963-8.221-55.898-23.15-14.939-14.934-23.169-34.79-23.173-55.912-.005-43.604 35.463-79.083 79.066-79.089h.028c7.35 0 14.165.969 20.083 2.773v-30.272c0-5.523 4.477-10 10-10s10 4.477 10 10v47.616c0 4.29-2.736 8.102-6.8 9.474-4.062 1.372-8.551.001-11.152-3.41-2.286-2.998-10.819-6.181-22.134-6.181-.007 0-.013 0-.02 0-32.577.004-59.075 26.51-59.071 59.085.003 15.779 6.152 30.614 17.313 41.771 11.157 11.153 25.988 17.295 41.76 17.295h.016c15.78-.002 30.615-6.149 41.771-17.31s17.299-25.996 17.295-41.774l-.029-170.175c0-3.598 1.932-6.918 5.06-8.696 3.127-1.777 6.968-1.737 10.06.104l54.783 32.649c-6.87-41.176-36.552-75.957-77.689-89.25l-11.163-3.565v41.957c0 5.523-4.477 10-10 10s-10-4.477-10-10v-55.65c0-3.192 1.524-6.193 4.102-8.076 2.577-1.883 5.9-2.422 8.94-1.45l24.238 7.742c54.524 17.619 91.91 67.414 93.06 123.917.02.956.029 1.917.029 2.88 0 3.598-1.933 6.917-5.06 8.695-3.128 1.776-6.969 1.736-10.06-.104l-56.297-33.552.026 152.57c.005 21.12-8.216 40.979-23.15 55.918s-34.791 23.167-55.912 23.17c-.008 0-.016 0-.022 0z"/><path d="m202.732 512.001c-21.919 0-42.528-8.535-58.033-24.034-15.51-15.504-24.054-36.119-24.059-58.047-.003-21.93 8.534-42.547 24.037-58.055 15.504-15.509 36.12-24.052 58.05-24.055h.035c7.997 0 15.378 1.079 21.716 3.081l-.032-175.695c-.001-4.761 3.354-8.862 8.021-9.804l235.098-47.475c2.937-.595 5.99.163 8.312 2.063 2.321 1.899 3.667 4.739 3.668 7.738l.04 236.406c.01 45.268-36.812 82.104-82.081 82.114-.003 0-.007 0-.01 0-45.268.001-82.096-36.819-82.102-82.082-.005-21.929 8.53-42.548 24.035-58.058 15.504-15.51 36.119-24.053 58.048-24.056 8.01 0 15.403 1.081 21.749 3.086l-.009-46.48-134.406 28.894.029 162.351c.005 21.927-8.53 42.545-24.034 58.054-15.505 15.51-36.12 24.053-58.048 24.055-.009-.001-.017-.001-.024-.001zm.025-144.191c-.009 0-.017 0-.025 0-16.59.002-32.184 6.463-43.91 18.194-11.726 11.73-18.183 27.325-18.181 43.912.004 16.585 6.467 32.179 18.199 43.906 11.727 11.723 27.316 18.179 43.895 18.179h.017c16.587-.002 32.18-6.464 43.907-18.195s18.183-27.325 18.179-43.91l-.03-170.432c-.001-4.714 3.29-8.788 7.898-9.779l154.405-33.193c2.951-.633 6.035.099 8.385 1.998 2.351 1.898 3.716 4.757 3.717 7.777l.014 76.337c.001 4.29-2.734 8.103-6.799 9.476-4.068 1.374-8.552.001-11.153-3.41-2.45-3.213-11.624-6.628-23.799-6.628-16.585.002-32.178 6.464-43.904 18.196-11.728 11.731-18.184 27.327-18.18 43.915.004 34.235 27.863 62.086 62.101 62.086h.008c34.24-.007 62.092-27.87 62.084-62.11l-.038-224.187-215.098 43.436.034 184.991c.001 4.29-2.735 8.103-6.799 9.476-4.064 1.375-8.551.001-11.152-3.409-2.453-3.215-11.616-6.626-23.775-6.626z"/></g></g></svg>