<svg xmlns="http://www.w3.org/2000/svg" data-name="Layer 1" viewBox="0 0 512 512"><path fill="#ccd3df" d="M374.15,101.27h-2.06V425.42a49.574,49.574,0,0,0,32.84,46.64,29.961,29.961,0,0,0,16.22-26.64V101.27Z"/><path fill="#b0b5ca" d="M471.15,142.97V425.42a49.546,49.546,0,0,1-66.22,46.64,29.961,29.961,0,0,0,16.22-26.64V142.97h50Z"/><path fill="#e5f5fd" d="M386.6,460.44a49.373,49.373,0,0,1-14.51-35.02V36.58H40.85V424.95a50,50,0,0,0,50,50H396.4a28.948,28.948,0,0,0,8.53-2.89A49.565,49.565,0,0,1,386.6,460.44Z"/><polygon fill="#49bdff" points="173.76 266.63 132.34 336.55 90.91 266.63 173.76 266.63"/><polygon fill="#3090fc" points="173.76 266.63 173.76 406.46 132.34 336.55 173.76 266.63"/><polygon fill="#49bdff" points="132.34 336.55 173.76 406.46 90.91 406.46 132.34 336.55"/><polygon fill="#3090fc" points="132.34 336.55 90.91 406.46 90.91 266.63 132.34 336.55"/><polygon fill="#fb6771" points="331.76 88.63 211.34 155.05 90.91 88.63 331.76 88.63"/><polygon fill="#e75163" points="331.76 88.63 331.76 221.46 211.34 155.05 331.76 88.63"/><polygon fill="#fb6771" points="331.76 221.46 90.91 221.46 211.34 155.05 331.76 221.46"/><polygon fill="#e75163" points="211.34 155.05 90.91 221.46 90.91 88.63 211.34 155.05"/><path fill="#c4dee8" d="M70.85,424.95V36.58h-30V424.95a50,50,0,0,0,50,50h30A50,50,0,0,1,70.85,424.95Z"/><path fill="#284268" d="M471.15,136.97h-44v-35.7a6,6,0,0,0-6-6H378.09V36.58a6,6,0,0,0-6-6H40.85a6,6,0,0,0-6,6V424.95a56.063,56.063,0,0,0,56,56l339.014-.615A55.615,55.615,0,0,0,477.15,425.42V142.97A6,6,0,0,0,471.15,136.97Zm-56,308.45a23.87,23.87,0,0,1-10.737,19.98,43.851,43.851,0,0,1-13.57-9.2A43.241,43.241,0,0,1,378.09,425.42V211.72a6,6,0,1,0-12,0v213.7a55.324,55.324,0,0,0,21.077,43.53H90.85a44.049,44.049,0,0,1-44-44V42.58H366.09V174.1a6,6,0,0,0,12,0V107.27h37.06Zm50-20a43.579,43.579,0,0,1-43.53,43.53c-1.046,0-2.087-.046-3.123-.119a35.855,35.855,0,0,0,8.653-23.411V148.97h38Z"/><path fill="#284268" d="M62.8,80.3a6,6,0,0,0-6,6v6.3a6,6,0,0,0,12,0V86.3A6,6,0,0,0,62.8,80.3Z"/><path fill="#284268" d="M62.8,105.6a6,6,0,0,0-6,6v196a6,6,0,0,0,12,0v-196A6,6,0,0,0,62.8,105.6Z"/><path fill="#284268" d="M333.86,303.76H313.34a6,6,0,1,0,0,12h20.52a6,6,0,0,0,0-12Z"/><path fill="#284268" d="M293.59,303.76H202.5a6,6,0,0,0,0,12h91.09a6,6,0,0,0,0-12Z"/><path fill="#284268" d="M338.77,277.35a6,6,0,0,0-6-6H234.82a6,6,0,0,0,0,12h97.95A6,6,0,0,0,338.77,277.35Z"/><path fill="#284268" d="M202.5,283.35h12.57a6,6,0,0,0,0-12H202.5a6,6,0,0,0,0,12Z"/><path fill="#284268" d="M338.77,342.52a6,6,0,0,0-6-6H234.82a6,6,0,1,0,0,12h97.95A6,6,0,0,0,338.77,342.52Z"/><path fill="#284268" d="M202.5,348.52h12.57a6,6,0,0,0,0-12H202.5a6,6,0,0,0,0,12Z"/><path fill="#284268" d="M333.86,365.76H313.34a6,6,0,1,0,0,12h20.52a6,6,0,0,0,0-12Z"/><path fill="#284268" d="M202.5,377.76h91.09a6,6,0,0,0,0-12H202.5a6,6,0,0,0,0,12Z"/><path fill="#284268" d="M333.86,395.76H273.34a6,6,0,1,0,0,12h60.52a6,6,0,0,0,0-12Z"/><path fill="#284268" d="M253.59,395.76H202.5a6,6,0,0,0,0,12h51.09a6,6,0,0,0,0-12Z"/><path fill="#284268" d="M90.915,227.463H331.761a6,6,0,0,0,6-6V88.626a6,6,0,0,0-6-6H90.915a6,6,0,0,0-6,6V221.463A6,6,0,0,0,90.915,227.463Zm23.3-12L211.338,161.9l97.121,53.566ZM325.761,211.3l-102-56.258,102-56.257Zm-17.3-116.676-97.121,53.566L114.217,94.626ZM96.915,98.787l102,56.257-102,56.257Z"/><path fill="#284268" d="M173.761,260.626H90.915a6,6,0,0,0-6,6V406.463a6,6,0,0,0,6,6h82.846a6,6,0,0,0,6-6V266.626A6,6,0,0,0,173.761,260.626Zm-10.529,12-30.894,52.147-30.894-52.147Zm-66.317,15.9,28.449,48.019-28.449,48.02Zm4.529,111.938,30.894-52.147,30.894,52.147Zm66.317-15.9-28.449-48.02,28.449-48.019Z"/></svg>