<?xml version="1.0" encoding="utf-8"?><svg version="1.1" id="Layer_1" xmlns="http://www.w3.org/2000/svg" xmlns:xlink="http://www.w3.org/1999/xlink" x="0px" y="0px" viewBox="0 0 95.83 122.88" style="enable-background:new 0 0 95.83 122.88" xml:space="preserve"><style type="text/css"><![CDATA[
	.st0{fill-rule:evenodd;clip-rule:evenodd;fill:#78CDD4;}
	.st1{fill-rule:evenodd;clip-rule:evenodd;fill:#B1E0E6;}
	.st2{fill:#262626;}
	.st3{fill-rule:evenodd;clip-rule:evenodd;fill:#FEFDEF;}
]]></style><g><path class="st2" d="M64.49,40.46v15.68c0,0.79-0.01,0.42-0.02,1.34v0.01c-0.01,0.76-0.01,1.17,0.01,1.25 c0.03,0.1,0.33,0.56,0.98,1.56l27.31,42c0.05,0.07,0.11,0.15,0.15,0.23c2.02,3.26,2.97,6.54,2.91,9.48 c-0.04,1.86-0.47,3.57-1.28,5.08c-0.84,1.56-2.06,2.88-3.65,3.86c-1.97,1.23-4.49,1.92-7.51,1.9c-0.09,0.01-0.18,0.01-0.27,0.01 H18.52c-1.34,0-1.54,0-1.76,0.01c-4.52,0.08-8.86,0.16-13.04-3.52c-2.36-2.08-3.73-4.86-3.71-8.18c0.02-2.72,1-5.71,3.22-8.82 l27.12-42.43c0.04-0.07,0.08-0.14,0.12-0.21c0.43-0.67,0.58-0.81,0.61-0.9c0.02-0.08-0.02-0.18-0.03-0.67 c0-0.27-0.01-0.58-0.01-0.98l0.01-16.8c-1.12-0.41-2.12-1.06-2.95-1.89c-1.47-1.47-2.38-3.49-2.38-5.73c0-2.23,0.91-4.26,2.38-5.73 s3.49-2.38,5.73-2.38h28.2c2.23,0,4.26,0.91,5.73,2.38s2.38,3.49,2.38,5.73S69.2,37,67.74,38.47 C66.84,39.37,65.73,40.06,64.49,40.46L64.49,40.46z"/><path class="st3" d="M60.8,40.81H34.71L34.7,57.16c0,2.85,0.22,2.39-1.31,4.78L6.21,104.47c-3.67,5.15-3.07,9.45-0.06,12.1 c3.61,3.18,7.93,2.59,12.37,2.59h64.59c8.86,0.2,11.46-7,6.68-14.7L62.62,62.68c-2.13-3.28-1.82-2.63-1.82-6.54V40.81L60.8,40.81z"/><path class="st1" d="M14.97,90.68l-8.81,13.79c-3.67,5.15-3.07,9.45-0.06,12.1c3.61,3.18,7.93,2.59,12.37,2.59h64.59 c8.86,0.2,11.46-7,6.68-14.7l-8.96-13.77H14.97L14.97,90.68z"/><path class="st2" d="M27.01,72.28c-0.98,0-1.77-0.79-1.77-1.77s0.79-1.77,1.77-1.77h6.97c0.98,0,1.77,0.79,1.77,1.77 s-0.79,1.77-1.77,1.77H27.01L27.01,72.28z"/><path class="st2" d="M22.2,79.99c-0.98,0-1.77-0.79-1.77-1.77s0.79-1.77,1.77-1.77h8.92c0.98,0,1.77,0.79,1.77,1.77 s-0.79,1.77-1.77,1.77H22.2L22.2,79.99z"/><path class="st2" d="M17.24,87.86c-0.98,0-1.77-0.79-1.77-1.77s0.79-1.77,1.77-1.77h10.9c0.98,0,1.77,0.79,1.77,1.77 s-0.79,1.77-1.77,1.77H17.24L17.24,87.86z"/><path class="st2" d="M59.63,101.14c2.17,0,4.14,0.88,5.57,2.31s2.31,3.4,2.31,5.57c0,2.17-0.88,4.14-2.31,5.57 c-1.43,1.42-3.4,2.31-5.57,2.31c-2.17,0-4.14-0.88-5.57-2.31c-1.43-1.43-2.31-3.4-2.31-5.57c0-2.17,0.88-4.13,2.31-5.56l0.01-0.01 C55.5,102.02,57.47,101.14,59.63,101.14L59.63,101.14z"/><path class="st0" d="M59.63,103.5c3.05,0,5.52,2.47,5.52,5.52c0,3.05-2.47,5.52-5.52,5.52c-3.05,0-5.52-2.47-5.52-5.52 C54.12,105.97,56.59,103.5,59.63,103.5L59.63,103.5z"/><path class="st2" d="M78.37,101.06c1.23,0,2.35,0.5,3.16,1.31c0.06,0.06,0.12,0.13,0.17,0.19c0.71,0.79,1.14,1.83,1.14,2.97 c0,1.22-0.5,2.34-1.31,3.15l-0.01,0.01c-0.81,0.81-1.92,1.3-3.15,1.3c-1.23,0-2.34-0.5-3.16-1.31l0,0 c-0.81-0.81-1.31-1.93-1.31-3.16c0-1.22,0.5-2.34,1.31-3.15l0.01-0.01C76.03,101.56,77.14,101.06,78.37,101.06L78.37,101.06z"/><path class="st0" d="M78.37,103.42c1.17,0,2.11,0.95,2.11,2.11s-0.94,2.11-2.11,2.11c-1.17,0-2.11-0.95-2.11-2.11 S77.2,103.42,78.37,103.42L78.37,103.42z"/><path class="st2" d="M61.78,81.14c1.71,0,3.26,0.69,4.38,1.81c1.12,1.12,1.81,2.67,1.81,4.38s-0.69,3.26-1.81,4.38 c-1.12,1.12-2.67,1.81-4.38,1.81c-1.71,0-3.26-0.69-4.38-1.81c-1.12-1.12-1.81-2.67-1.81-4.38s0.69-3.26,1.81-4.38 C58.52,81.84,60.07,81.14,61.78,81.14L61.78,81.14z"/><path class="st0" d="M61.78,83.5c2.12,0,3.83,1.71,3.83,3.83c0,2.12-1.72,3.83-3.83,3.83c-2.12,0-3.83-1.72-3.83-3.83 C57.95,85.22,59.66,83.5,61.78,83.5L61.78,83.5z"/><path class="st2" d="M41.47,102.71c1.21,0,2.3,0.49,3.1,1.29l0,0c0.8,0.79,1.29,1.89,1.29,3.11c0,1.2-0.49,2.3-1.29,3.1l-0.01,0.01 c-0.8,0.79-1.89,1.28-3.09,1.28c-1.21,0-2.31-0.49-3.11-1.29c-0.06-0.06-0.12-0.13-0.17-0.19c-0.69-0.78-1.12-1.8-1.12-2.92 c0-1.21,0.49-2.31,1.29-3.11c0.06-0.06,0.13-0.12,0.19-0.17C39.34,103.13,40.36,102.71,41.47,102.71L41.47,102.71z"/><path class="st0" d="M41.47,105.07c1.13,0,2.04,0.91,2.04,2.04s-0.91,2.04-2.04,2.04s-2.04-0.91-2.04-2.04 S40.35,105.07,41.47,105.07L41.47,105.07z"/><path class="st2" d="M46.22,66.77c1.21,0,2.31,0.49,3.11,1.29c0.8,0.8,1.29,1.89,1.29,3.11c0,1.21-0.49,2.3-1.29,3.1l0,0 c-0.8,0.8-1.9,1.29-3.11,1.29c-1.2,0-2.3-0.49-3.1-1.29l-0.01-0.01c-0.79-0.8-1.28-1.89-1.28-3.09c0-1.21,0.49-2.31,1.29-3.11 C43.91,67.26,45.01,66.77,46.22,66.77L46.22,66.77z"/><path class="st0" d="M46.22,69.13c1.13,0,2.04,0.91,2.04,2.04c0,1.13-0.91,2.04-2.04,2.04c-1.13,0-2.04-0.91-2.04-2.04 C44.19,70.04,45.1,69.13,46.22,69.13L46.22,69.13z"/><path class="st2" d="M45.84,81.38c1.36,0,2.6,0.55,3.5,1.45l0,0l0,0c0.9,0.9,1.45,2.14,1.45,3.5c0,1.36-0.55,2.6-1.45,3.49 l-0.01,0.01c-0.9,0.9-2.13,1.45-3.5,1.45c-1.37,0-2.61-0.55-3.5-1.45c-0.06-0.06-0.11-0.12-0.16-0.18 c-0.8-0.88-1.29-2.05-1.29-3.33c0-1.37,0.56-2.61,1.45-3.5C43.23,81.94,44.47,81.38,45.84,81.38L45.84,81.38z"/><path class="st0" d="M45.84,83.74c1.43,0,2.6,1.16,2.6,2.6c0,1.43-1.16,2.6-2.6,2.6c-1.43,0-2.6-1.16-2.6-2.6 C43.25,84.91,44.41,83.74,45.84,83.74L45.84,83.74z"/><path class="st2" d="M44.03,9.64c1.7,0,3.25,0.69,4.37,1.81l0,0l0,0c1.12,1.12,1.81,2.67,1.81,4.38c0,1.71-0.69,3.26-1.81,4.38 c-1.12,1.12-2.67,1.81-4.38,1.81c-1.71,0-3.26-0.69-4.38-1.81c-1.12-1.12-1.81-2.67-1.81-4.38c0-1.71,0.69-3.26,1.81-4.38 C40.78,10.33,42.33,9.64,44.03,9.64L44.03,9.64z"/><path class="st0" d="M44.03,12c2.12,0,3.83,1.72,3.83,3.83s-1.72,3.83-3.83,3.83c-2.12,0-3.83-1.72-3.83-3.83S41.92,12,44.03,12 L44.03,12z"/><path class="st2" d="M53.44,0c1.36,0,2.6,0.56,3.49,1.45l0,0l0,0c0.9,0.9,1.45,2.14,1.45,3.5c0,1.37-0.55,2.61-1.45,3.5 c-0.06,0.06-0.12,0.11-0.18,0.16c-0.88,0.8-2.05,1.29-3.33,1.29c-1.37,0-2.61-0.56-3.5-1.45s-1.45-2.14-1.45-3.5 c0-1.37,0.56-2.61,1.45-3.5c0.06-0.06,0.12-0.11,0.18-0.17C51,0.49,52.17,0,53.44,0L53.44,0z"/><path class="st0" d="M53.44,2.36c1.43,0,2.59,1.16,2.59,2.6c0,1.43-1.16,2.6-2.59,2.6s-2.6-1.16-2.6-2.6 C50.84,3.52,52,2.36,53.44,2.36L53.44,2.36z"/><path class="st3" d="M33.82,28.33h28.2c2.43,0,4.41,1.98,4.41,4.41l0,0c0,2.43-1.98,4.41-4.41,4.41h-28.2 c-2.43,0-4.41-1.98-4.41-4.41l0,0C29.41,30.32,31.39,28.33,33.82,28.33L33.82,28.33z"/></g></svg>