<svg xmlns="http://www.w3.org/2000/svg" width="83" height="83"><g><path id="svg_1" fill="#fdf5a9" d="m51,18.86322c-11,0 -20,8.9 -20,20s9,20 20,20s20,-8.9 20,-20s-9,-20 -20,-20z"/><path id="svg_2" fill="none" stroke="#1f212b" stroke-linecap="round" stroke-miterlimit="10" stroke-width="2" d="m70.4,43.46322c0.4,-1.5 0.6,-3.1 0.6,-4.7c0,-11 -9,-20 -20,-20c-7.5,0 -14,4.1 -17.5,10.2"/><path id="svg_3" fill="#8eb4da" d="m71.1,50.76322c-0.9,0 -1.7,0.1 -2.6,0.4c-0.5,-7.1 -6,-12.6 -12.7,-12.6c-3.9,0 -7.3,1.9 -9.7,4.8c-2.8,-6.3 -8.7,-10.6 -15.6,-10.6c-9.5,0 -17.2,8.1 -17.5,18.2c-0.7,-0.2 -1.4,-0.3 -2.2,-0.3c-5.5,0 -9.9,4.8 -9.9,10.6c0,5.9 4.4,10.6 9.9,10.6c0.6,0 59.6,0 60.3,0c5.5,0 9.9,-4.8 9.9,-10.6c0,-5.8 -4.4,-10.5 -9.9,-10.5z"/><path id="svg_4" fill="#1f212b" d="m71.1,49.56322c-0.6,0 -1.1,0 -1.7,0.1c-1.1,-7 -6.8,-12.3 -13.6,-12.3c-3.5,0 -6.9,1.4 -9.4,4c-3.3,-6 -9.3,-9.7 -15.9,-9.7c-9.7,0 -17.6,7.8 -18.4,17.9c-0.4,-0.1 -0.8,-0.1 -1.2,-0.1c-6,0.1 -10.9,5.3 -10.9,11.7c0,6.4 4.9,11.6 10.9,11.6l60.2,0c6,0 10.9,-5.2 10.9,-11.6c0,-6.4 -4.9,-11.6 -10.9,-11.6zm0,21.2l-60.2,0c-4.9,0 -8.9,-4.3 -8.9,-9.6s4,-9.5 8.9,-9.5c0.6,0 1.3,0.1 1.9,0.2c0.3,0.1 0.6,0 0.9,-0.2c0.2,-0.2 0.4,-0.5 0.4,-0.8c0.3,-9.5 7.5,-17.1 16.4,-17.1c6.3,0 11.9,3.8 14.7,9.8c0.1,0.3 0.4,0.5 0.8,0.6c0.3,0 0.7,-0.1 0.9,-0.4c2.2,-2.8 5.5,-4.4 8.9,-4.4c6.1,0 11.2,5.1 11.7,11.6c0,0.3 0.2,0.6 0.4,0.8c0.2,0.2 0.6,0.2 0.9,0.1c0.8,-0.2 1.5,-0.3 2.3,-0.3c4.9,0 8.9,4.3 8.9,9.5s-4,9.7 -8.9,9.7z"/><line id="svg_5" x1="51" x2="51" y1="7.763" y2="14.763" fill="none" stroke="#1f212b" stroke-linecap="round" stroke-linejoin="round" stroke-miterlimit="10" stroke-width="2"/><line id="svg_6" x1="29.1" x2="34" y1="16.863" y2="21.763" fill="none" stroke="#1f212b" stroke-linecap="round" stroke-linejoin="round" stroke-miterlimit="10" stroke-width="2"/><line id="svg_7" x1="82" x2="75" y1="38.763" y2="38.763" fill="none" stroke="#1f212b" stroke-linecap="round" stroke-linejoin="round" stroke-miterlimit="10" stroke-width="2"/><line id="svg_8" x1="72.9" x2="68" y1="16.863" y2="21.763" fill="none" stroke="#1f212b" stroke-linecap="round" stroke-linejoin="round" stroke-miterlimit="10" stroke-width="2"/><path id="svg_9" fill="none" stroke="#1f212b" stroke-linecap="round" stroke-miterlimit="10" d="m59.1,24.36322c-2.4,-1.3 -5.1,-2.1 -8.1,-2.1c-6,0 -11.5,3.2 -14.4,8.4"/><path id="svg_10" fill="none" stroke="#1f212b" stroke-linecap="round" stroke-miterlimit="10" d="m62.3,26.76322c-0.5,-0.5 -1,-0.9 -1.5,-1.3"/><line id="svg_11" x1="9.5" x2="38.5" y1="67.263" y2="67.263" fill="none" stroke="#1f212b" stroke-linecap="round" stroke-linejoin="round" stroke-miterlimit="10"/><line id="svg_12" x1="40.5" x2="41.5" y1="67.263" y2="67.263" fill="none" stroke="#1f212b" stroke-linecap="round" stroke-linejoin="round" stroke-miterlimit="10"/><line id="svg_13" x1="43.5" x2="48.5" y1="67.263" y2="67.263" fill="none" stroke="#1f212b" stroke-linecap="round" stroke-linejoin="round" stroke-miterlimit="10"/></g></svg>